<?xml version="1.0" encoding="utf-8"?>
<!-- Generator: Adobe Illustrator 26.5.0, SVG Export Plug-In . SVG Version: 6.00 Build 0)  -->
<svg version="1.1" id="Capa_3" xmlns="http://www.w3.org/2000/svg" xmlns:xlink="http://www.w3.org/1999/xlink" x="0px" y="0px"
	 viewBox="0 0 2032.1 448.2" style="enable-background:new 0 0 2032.1 448.2;" xml:space="preserve">
<style type="text/css">
	.st0{fill:#FFFFFF;}
</style>
<g>
	<polyline class="st0" points="1071.2,5.8 1071.2,5.8 1071.2,5.8 1071.2,5.8 1071.2,5.8 	"/>
	<path class="st0" d="M1043.7,138.5l-0.4,0.3v-0.1C1043.4,138.6,1043.6,138.5,1043.7,138.5L1043.7,138.5"/>
	<path class="st0" d="M1012,116.6c0.2-0.9,0.4-1.8,0.5-2.7c0-0.1,0-0.1,0-0.2c0-0.4,0.1-0.8,0.2-1.2c0-0.3,0.1-0.5,0.1-0.8
		c0-0.1,0-0.2,0-0.3c0.1-0.6,0-1.1-0.2-1.8c-0.2-0.6-1.7-1.7-2.7-1.7h-0.1c-0.5,0-0.9,0.1-1.2,0.3c0.6,1.3,0.8,2.9,0.8,4.8
		c0,1.3-0.2,2.7-0.3,4l-0.1,1c-0.2,1.5-0.3,3.2-0.2,5c0.1,1.7,0.4,3.3,0.9,4.8c0.1,0.2,0.1,0.5,0.1,0.6c0.2,0.3,0.5,0.4,0.9,0.4h0.1
		c0.3,0,0.5-0.1,0.7-0.2c0-0.1,0.1-0.1,0.1-0.2C1010.1,126.3,1011.1,121.1,1012,116.6"/>
	<path class="st0" d="M1008.5,125.5L1008.5,125.5c-0.1-0.8-0.2-1.6-0.3-2.4c0-0.2,0-0.5,0-0.7l0,0l0,0v-0.1v-0.1
		c0-1.4,0.1-2.8,0.3-4.1c0-0.3,0.1-0.7,0.1-1c0.2-1.3,0.3-2.7,0.3-4c0-0.1,0-0.2,0-0.3l0,0l0,0c0-1.7-0.3-3-0.8-4.2l0,0
		c0,0,0-0.1-0.1-0.1c0,0,0-0.1-0.1-0.1c-0.3-0.4-1.1-0.7-2.1-0.7c-0.3,0-0.5,0-0.8,0.1c-0.7,0.1-1.1,0.4-1.3,0.6
		c0.9,1.2,1.3,2.7,1.5,4.6c0.1,1.2,0.1,2.5,0.1,3.7c0,0.4,0,0.9,0,1.3c0,1.9,0.1,3.5,0.4,4.8c0.3,1.6,0.9,3.2,1.6,4.6
		c0.2,0.4,0.2,0.8,0.1,1.1c0.2,0.3,0.6,0.5,1.3,0.5c0.2,0,0.3-0.1,0.4-0.2l0,0c0.1-0.1,0-0.3-0.1-0.6
		C1008.9,127.2,1008.7,126.4,1008.5,125.5"/>
	<path class="st0" d="M1020.3,119.9L1020.3,119.9c0.3-0.6,0.5-1.1,0.8-1.6c0.4-0.8,0.7-1.5,0.9-1.9c0-0.5-0.3-1.2-1.1-2
		c-1.4-1.2-2.3-1.5-2.5-1.3l0,0c0.1,0.6,0,1.3-0.2,1.9c-0.7,1.7-1.6,3.8-2.3,5.9v0.1c-0.1,0.4-0.3,0.8-0.4,1.2
		c-0.2,0.8-0.4,1.5-0.6,2.2v0.1c-0.3,1.3-0.4,2.5-0.4,3.8c0,0.1,0,0.2,0,0.3s0,0.2,0,0.3c0.1,0.2,0.1,0.3,0.2,0.4
		c1.2,1,2.3,1.1,2.8,1.2C1017,127.7,1019,122.2,1020.3,119.9"/>
	<path class="st0" d="M1024,121.4c0.4-0.5,1-1.3,1.3-1.8c0-0.1,0-0.1,0-0.2c0.1-0.6-0.2-1.2-0.7-1.8c-1-1.3-1.7-1.3-2.1-1.2
		c0,0,0,0.1-0.1,0.1c-0.2,0.4-0.5,1.2-1,2l0,0c-0.3,0.5-0.5,1.1-0.8,1.6l0,0c-0.5,0.8-1,2-1.4,3.3l0,0l0,0c-0.8,2.2-1.4,4.8-1.4,6.4
		l0,0l0,0c0,0.4,0,0.7,0.1,0.9c0.1,0.3,0.2,0.5,0.4,0.6c0.4,0.3,0.8,0.5,1.2,0.5c0.9,0.2,1.4,0,1.6-0.2
		C1020.9,128.8,1022.7,123.3,1024,121.4"/>
	<path class="st0" d="M1027.1,124.5c0.3-0.5,0.7-1.1,1-1.5c0.1-0.1,0.2-0.2,0.2-0.3c0.1-0.5,0-1.1-0.6-1.7c-0.7-0.7-1.5-1.1-1.9-1.2
		c0,0,0,0.1-0.1,0.1c-0.3,0.4-1,1.3-1.4,1.9c-0.3,0.4-0.6,0.9-0.9,1.6l0,0c-0.4,1-0.9,2.3-1.2,3.6c-0.3,1-0.5,2-0.6,2.9l0,0
		c-0.1,0.5-0.1,0.9-0.1,1.4c0,0.1,0,0.2,0,0.3l0,0c0,0.2,0,0.3,0,0.5c0,0.1,0,0.1,0,0.2c0.1,0.5,0.3,0.8,0.5,1
		c1.2,0.8,2.2,0.5,2.7,0.2C1024.8,130.5,1026,126,1027.1,124.5"/>
	<path class="st0" d="M1030.6,127.8c0.3-0.6,0.6-1,0.9-1.3l0,0l0,0c0-0.1,0.1-0.1,0.1-0.2c0.3-0.3,0.5-0.6,0-1.6
		c-0.6-1.1-2.2-1.8-2.8-2c0,0-0.1,0.1-0.1,0.2l0,0c-0.3,0.4-0.9,1.2-1.3,1.9c-0.2,0.3-0.4,0.7-0.6,1.3l0,0c-0.7,1.8-1.4,4.7-1.4,6.7
		c0,0.1,0,0.2,0,0.3l0,0l0,0c0,0.2,0,0.3,0,0.5s0,0.3,0.1,0.5c0.1,0.5,0.3,0.9,0.6,1.1c1,0.6,1.9,0.6,2.6,0.5c0.3,0,0.6-0.2,0.8-0.5
		l0,0C1029.3,132.5,1030.2,128.6,1030.6,127.8"/>
	<path class="st0" d="M1000.9,113.9c0.3,1,0.5,2.1,0.6,3.2c0.1,0.6,0.2,1.1,0.3,1.7c0.3,1.8,0.8,3.3,1.3,4.7c0.5,1.2,1,2.4,1.6,3.4
		l0,0c0.2,0.3,0.4,0.6,0.6,1c0.2,0.3,0.4,0.5,0.6,0.6c0.3,0.1,0.5,0.1,0.8,0.1c0.1,0,0.2-0.1,0.3-0.2s0.1-0.1,0.1-0.2c0,0,0,0,0-0.1
		l0,0c0.1-0.2,0-0.4-0.1-0.7c-0.1-0.3-0.3-0.6-0.4-0.9c-0.5-1.2-0.9-2.5-1.2-3.8l0,0c-0.3-1.3-0.4-2.9-0.4-4.7l0,0
		c0-0.1,0-0.1,0-0.2c0-0.4,0-0.9,0-1.3c0-0.7,0-1.4,0-2.1c0-0.1,0-0.1,0-0.2c0-0.4,0-0.9-0.1-1.3c-0.2-1.9-0.6-3.2-1.4-4.4l0,0
		c0,0,0,0-0.1-0.1c0-0.1-0.1-0.1-0.1-0.1c-0.3-0.2-0.9-0.3-1.5-0.3c-0.5,0-1.1,0.1-1.6,0.3c-0.7,0.2-1.2,0.6-1.4,0.8
		c-0.1,0.1-0.2,0.3-0.1,0.4c0.1,0.1,0.2,0.1,0.2,0.2C1000,110.8,1000.5,112.5,1000.9,113.9"/>
	<path class="st0" d="M997.5,115.4c0.4,0.9,0.7,1.8,1,2.6c0.3,0.7,0.5,1.4,0.8,2.1c0.7,1.7,1.5,3.1,2.4,4.3c0.7,1,1.5,1.9,2.4,2.9
		c0.2,0.3,0.4,0.5,0.7,0.8l0,0c0,0,0-0.1-0.1-0.1c-0.2-0.3-0.4-0.6-0.6-1l0,0c-0.6-1-1.1-2.2-1.6-3.5c-0.5-1.4-1-2.9-1.3-4.8
		c-0.1-0.6-0.2-1.1-0.3-1.7c-0.2-1-0.4-2.1-0.6-3.2c-0.4-1.4-0.9-2.9-2.1-4.2c-0.1-0.1-0.2-0.1-0.3-0.2c-0.2-0.1-0.4-0.1-0.6-0.1
		c-0.6,0-1.4,0.2-2.1,0.6c-0.7,0.4-1.1,0.9-1.2,1.2c0.1,0,0.1,0.1,0.2,0.1C996,112.5,996.9,114,997.5,115.4"/>
	<path class="st0" d="M994,117.9c0.2,0.4,1,1.3,1.7,2.3c0.8,1.1,1.6,2.1,1.8,2.5c0.1,0.2,1.5,1.6,2.5,2.6c0.4,0.4,0.8,0.8,1.1,1.1
		c0.6,0.4,1.2,0.8,1.8,1.2c0.1,0.1,0.2,0.1,0.2,0.2c0.1,0,0.2,0.1,0.3,0.1l0,0c0.1,0.1,0.3,0.1,0.4,0.1c-0.1-0.1-0.1-0.1-0.2-0.2
		c-0.8-0.9-1.6-1.9-2.4-2.9c-0.9-1.3-1.8-2.7-2.5-4.4c-0.3-0.7-0.6-1.4-0.8-2.2c-0.3-0.9-0.7-1.8-1-2.6c-0.6-1.3-1.5-2.8-3-3.7
		c0,0-0.1-0.1-0.2-0.1c-0.1,0-0.1,0-0.2,0c0,0,0,0-0.1,0c-0.7,0-2,0.6-3,1.6c-0.3,0.3-0.5,0.6-0.7,0.9
		C991.6,114.9,993,116.2,994,117.9"/>
	<path class="st0" d="M990.5,118.6c0.9,1.6,2.1,3.7,9.4,7.6c0.2,0.1,0.5,0.3,0.7,0.4c0.1,0,0.1,0.1,0.2,0.1c-0.3-0.3-0.7-0.7-1-1
		c-0.1-0.1-0.1-0.1-0.2-0.2l0,0c-1.4-1.4-2.3-2.3-2.4-2.6c-0.2-0.3-0.8-1.1-1.4-1.9c-0.1-0.2-0.3-0.3-0.4-0.5c-0.8-1-1.5-2-1.7-2.3
		c-1-1.6-2.3-2.7-3.9-3.3c0,0,0,0-0.1,0s-0.2,0-0.3,0l0,0c-0.1,0-0.2,0-0.3,0.1c-0.2,0.1-0.5,0.2-0.8,0.4c-0.3,0.2-0.5,0.4-0.8,0.6
		C989.4,116.7,989.9,117.6,990.5,118.6"/>
	<path class="st0" d="M1015.5,120.2c0.7-1.9,1.4-3.8,2.1-5.4c0.3-0.7,0.3-1.2,0.2-1.7c-0.2-0.7-0.6-1.2-0.9-1.6
		c-1-1-2.4-1.5-3.1-1.2c-0.3,0.1-0.4,0.3-0.5,0.7c0,0.1,0,0.2,0,0.4c0,0.1,0,0.3,0,0.4c-0.1,0.7-0.2,1.4-0.3,2.2
		c-0.1,0.8-0.3,1.7-0.5,2.7c-0.5,2.8-1.1,5.8-1.2,8.2l0,0c0,1.2,0.1,2.2,0.5,3l0,0l0,0c0.1,0.2,0.2,0.3,0.2,0.4c0,0,0,0,0.1,0.1l0,0
		c0.3,0.4,0.7,0.6,1.2,0.7c0.4,0,0.6-0.1,0.6-0.1v-0.1c0-0.1,0-0.2,0-0.3s0-0.2,0-0.3c0-1.1,0.1-2.2,0.3-3.4l0,0
		C1014.5,123.3,1015,121.8,1015.5,120.2C1015.5,120.3,1015.5,120.3,1015.5,120.2"/>
	<path class="st0" d="M1034.9,129.6l0.1-0.1c0.1-0.1,0.2-0.3,0.2-0.5c0.1-0.5,0-1.2-1-1.9c-0.2-0.2-0.4-0.3-0.6-0.4
		c-0.3-0.1-0.5-0.2-0.8-0.2s-0.6,0.1-0.9,0.4c-0.2,0.2-0.5,0.6-0.8,1.1l0,0c0,0,0,0.1-0.1,0.1c-0.3,0.6-1,3.7-1.1,6.2l0,0l0,0
		c0,0.4,0,0.7,0,1c0,0.5,0.1,1,0.2,1.3c0.1,0.4,0.3,0.7,0.6,0.8c0.6,0.3,1.3,0.4,2,0.5c0.3,0,0.7-0.1,0.9-0.3
		c0.2-0.2,0.3-0.4,0.3-0.7c-0.4-2.3,0-5.6,0.3-6.3C1034.4,130.2,1034.6,129.9,1034.9,129.6"/>
	<path class="st0" d="M1039,131c0.1-0.4-0.1-1-1.1-1.5c-0.5-0.2-0.9-0.3-1.3-0.3c-0.2,0-0.4,0-0.5,0.1c-0.3,0.1-0.6,0.3-0.8,0.6
		c0,0,0,0,0,0.1c-0.2,0.2-0.3,0.5-0.5,0.9s-0.4,2-0.4,3.6c0,0.8,0.1,1.7,0.2,2.4c0.1,0.5,0.2,1,0.4,1.4c0.2,0.4,0.4,0.7,0.7,0.7
		c1.1,0.3,2.2,0.5,2.7,0c0.1,0,0.1-0.1,0.1-0.2c0-0.2-0.1-0.5,0-0.8c0-0.5,0.1-1,0.1-1.5c0-0.6,0-1.2,0.1-1.7c0-0.4,0-0.8,0-1.2
		c0-0.8,0-1.6,0.2-2.4C1038.9,131.2,1038.9,131.1,1039,131"/>
	<path class="st0" d="M1053.3,126c-0.1-0.4-0.2-0.7-0.3-1c-0.1-0.2-0.3-0.4-0.4-0.6c-0.1-0.1-0.2-0.2-0.3-0.2
		c-0.1,0.1-0.2,0.1-0.2,0.1c-0.9,0.4-2,0.7-2.9,0.9h-0.1c-0.3,0.1-0.7,0.2-1.1,0.2c-0.1,0-0.2,0-0.3,0c-0.3,0.4-0.5,1.5-0.4,2.3
		c0,0.1,0,0.1,0.1,0.2c0.1,0,0.1,0,0.2,0c0,0,3.4,0.2,5.1,0.9c0.2,0,0.5-0.3,0.6-0.8C1053.4,127.5,1053.4,126.7,1053.3,126"/>
	<path class="st0" d="M1046.9,122.2L1046.9,122.2c-0.2,0.2-0.3,0.4-0.3,0.8s0.5,1.4,0.7,1.8c0,0,0,0.1,0.1,0.1
		c0.1,0.1,0.3,0.1,0.5,0.1l0,0c0.2,0,0.5,0,0.9-0.1c0.1,0,0.1,0,0.1,0c0.9-0.2,2-0.5,2.9-0.9l0,0l0,0c0,0,0.1-0.1,0.1-0.2
		c0,0,0,0,0-0.1c0.1-0.5-0.1-1.5-0.6-2.3l0,0c-0.4-0.7-1-1.1-1.5-1.1c-0.1,0-0.2,0-0.3,0C1049.2,120.6,1048,121.9,1046.9,122.2"/>
	<path class="st0" d="M1052.5,129.3c-0.3-0.1-0.7-0.3-1.2-0.4l0,0l0,0c-1.3-0.3-2.9-0.5-3.7-0.5l0,0c0,0,0,0-0.1,0l0,0
		c-0.1,0-0.2,0-0.3,0.1c-0.1,0.1-0.3,0.2-0.4,0.3c-0.2,0.2-0.3,0.4-0.4,0.6c0.1,0,0.2,0.1,0.2,0.1c1,0.6,1.6,1.1,2.4,1.9
		c0.1,0.1,0.2,0.2,0.4,0.4c0.6,0.7,1.3,1.3,2.1,1.8c0.1,0,0.2,0.1,0.2,0.2c0.1-0.1,0.3-0.1,0.4-0.3c1.1-1.3,1.4-2.8,1.1-3.7
		C1053,129.6,1052.8,129.4,1052.5,129.3"/>
	<path class="st0" d="M1051.2,134.2c0-0.1-0.1-0.2-0.2-0.3l0,0c-0.5-0.3-0.9-0.6-1.3-1c-0.3-0.3-0.6-0.6-0.9-0.8
		c-0.1-0.1-0.2-0.2-0.4-0.4c-0.7-0.8-1.3-1.3-2.3-1.8c0,0-0.1,0-0.1-0.1c-0.1,0-0.1,0-0.2,0l0,0l0,0c-0.1,0-0.2,0-0.3,0h-0.1
		c-0.2,0.1-0.6,0.4-0.9,0.6c0.2,0.1,0.3,0.2,0.4,0.4c0.7,1,1.2,2.1,1.5,3.1c0.4,1,1,2.2,1.7,3.1c0,0.1,0.1,0.1,0.1,0.2l0.1,0.1
		c0.1,0.2,0.5,0.1,0.9-0.1c0.2-0.1,0.5-0.2,0.7-0.5c0.3-0.2,0.5-0.4,0.7-0.7l0,0C1051.2,135.3,1051.3,134.6,1051.2,134.2
		C1051.3,134.2,1051.3,134.2,1051.2,134.2"/>
	<path class="st0" d="M1046.2,134.4L1046.2,134.4c0-0.1-0.1-0.2-0.1-0.3c-0.1-0.3-0.2-0.6-0.4-0.9c-0.3-0.7-0.6-1.4-1.1-2
		c-0.1-0.1-0.2-0.2-0.4-0.3c-0.1,0-0.2-0.1-0.2-0.1l0,0h-0.1h-0.1h-0.1h-0.1c-0.2,0-0.8,0.1-0.9,0.4c0,0.1,0,0.1,0,0.2
		c0.1,0.2,0.1,0.4,0.1,0.6c-0.1,1,0.1,2.1,0.4,3.5c0,0.2,0.1,0.5,0.2,0.7c0.2,1,0.4,2,0.4,3v0.1c0.2,0.1,0.4,0.1,0.6,0.1
		c0.3,0,0.5,0,0.9-0.1c0.3-0.1,0.8-0.3,0.9-0.4l0,0c0.7-0.3,1.5-1,1.6-1.5c0,0,0,0,0-0.1s0-0.1,0-0.1
		C1047.2,136.5,1046.6,135.4,1046.2,134.4"/>
	<path class="st0" d="M1042.7,135.7c0-0.1,0-0.2-0.1-0.3l0,0c-0.3-1.3-0.4-2.3-0.3-3.3c0-0.2,0-0.4-0.1-0.5c0-0.1-0.1-0.2-0.1-0.2
		c-0.4-0.4-1.2-0.6-1.7-0.6c-0.1,0-0.2,0-0.3,0c-0.3,0.1-0.5,0.3-0.6,0.5c0,0.1-0.1,0.2-0.1,0.2c-0.2,0.7-0.2,1.4-0.2,2.2
		c0,0.4,0,0.8,0,1.2c0,0.6-0.1,1.1-0.1,1.7c0,0.5,0,1-0.1,1.6c0,0.3,0,0.5,0.1,0.8l0,0c0.1,0.5,0.2,0.7,1.4,1l0,0
		c0.3,0.1,0.7,0.1,1,0.1c0.4,0,0.7-0.1,0.9-0.1c0.3-0.1,0.5-0.2,0.7-0.4c0.1-0.1,0.1-0.2,0.1-0.3l0,0l0,0c0-0.9-0.2-1.8-0.4-2.8
		C1042.8,136.1,1042.7,135.9,1042.7,135.7"/>
	<path class="st0" d="M1007.3,129.5c-0.3-0.2-0.8-0.3-1.5-0.5l0,0c-0.1,0-0.2-0.1-0.3-0.1l0,0h-0.1c-0.1,0-0.2,0-0.3-0.1h-0.1l0,0
		c-0.1,0-0.2-0.1-0.3-0.1c-0.2,0-0.3-0.1-0.5-0.2l0,0h-0.1l0,0l0,0c-0.1,0-0.2-0.1-0.3-0.1c-0.2-0.1-0.5-0.2-0.7-0.2l0,0
		c-0.1,0-0.3-0.1-0.4-0.2c-0.8-0.3-1.8-0.8-2.9-1.4c-2.1-1.1-3.6-2-4.9-2.9l0,0c-0.6-0.4-1.1-0.8-1.5-1.1c-2-1.6-2.7-2.8-3.2-3.8
		c-0.6-1.1-1-1.8-3-2.6c-0.1,0-0.2-0.1-0.2-0.1l0,0h-0.1c0,0-0.1,0-0.2,0c-1.1-0.3-3.5,0.3-5.1,2.2c-1.1,1.2-1.4,2.6-1.2,3.3
		c0.1,0.2,0.2,0.3,0.3,0.3c0.4,0.1,0.5,0,0.6-0.4c0.3-0.5,0.6-1.1,2.1-1.6c1.6-0.5,4,1.2,7.1,3.7c0.2,0.1,0.3,0.2,0.5,0.4
		c0.4,0.3,0.9,0.7,1.3,1.1c0.1,0.1,0.2,0.2,0.3,0.2l0.1,0.1c0.7,0.6,1.4,1.1,2.2,1.7c0.1,0.1,0.2,0.1,0.3,0.2s0.2,0.2,0.3,0.2
		c0.8,0.6,1.5,1.2,2.3,1.8c0.1,0.1,0.2,0.1,0.3,0.2s0.2,0.1,0.3,0.2c0.6,0.4,1.1,0.8,1.7,1.2c0.1,0.1,0.2,0.1,0.2,0.2
		c0.1,0.1,0.2,0.1,0.3,0.2c0.9,0.6,1.9,1.2,2.8,1.7c0.1,0.1,0.2,0.1,0.3,0.1s0.2,0.1,0.2,0.1c0.8,0.4,1.6,0.8,2.4,1h0.1
		c0.1,0,0.4,0.1,0.5,0.1l0,0c1-0.5,1.3-1.3,1.4-1.9C1008.3,131.1,1007.8,130,1007.3,129.5"/>
	<path class="st0" d="M1046.3,121.6c0.1,0.1,0.2,0.1,0.4,0.1c0.2,0,0.4-0.1,0.6-0.2l0,0c0.5-0.2,1-0.6,1.4-1.1l0,0
		c0.2-0.2,0.4-0.4,0.6-0.7c0.2-0.2,0.3-0.5,0.2-0.9c-0.1-0.7-0.7-1.4-1.4-1.8c-0.7-0.4-1.5-0.1-1.9,0.1c-0.2,1-0.7,2-1.2,2.5
		C1045.1,120.4,1045.6,121.1,1046.3,121.6"/>
	<path class="st0" d="M1042.6,119c0,0.1-0.1,0.1-0.1,0.2c0.3,0.2,0.8,0.4,1.2,0.5c0.2,0,0.4,0,0.7-0.2l0,0c0.1-0.1,0.2-0.1,0.2-0.2
		l0,0c0.1-0.1,0.2-0.2,0.3-0.3c0.3-0.4,0.5-0.8,0.6-1.3c0-0.1,0.1-0.3,0.1-0.4l0,0c0-0.1,0-0.2,0.1-0.4c0,0,0,0,0-0.1
		c0-0.2,0-0.4-0.2-0.6c-0.3-0.4-1-0.7-1.8-0.7c-0.5,0-1,0.1-1.3,0.4C1043,116.9,1043,118.2,1042.6,119"/>
	<path class="st0" d="M1040.3,118.7c0,0.2,0,0.4,0,0.5c0.4,0.1,0.9,0.1,1.4,0c0,0,0,0,0.1,0s0.2-0.1,0.2-0.1l0,0
		c0.1-0.1,0.1-0.1,0.2-0.2c0,0,0-0.1,0.1-0.1c0.3-0.6,0.3-1.7-0.1-2.7c0-0.1,0-0.1-0.1-0.2v-0.1l0,0c0-0.1-0.1-0.1-0.1-0.2
		c-0.2-0.2-0.4-0.4-0.7-0.5c-0.1,0-0.3-0.1-0.4-0.1c-0.3,0-0.6,0.1-0.9,0.2c-0.7,0.4-1,0.9-1.1,1.2
		C1039.6,117,1040.1,117.9,1040.3,118.7"/>
	<path class="st0" d="M1037.4,119.7c0.3,0.2,0.5,0.5,0.7,0.8h0.1c0.3,0,0.9-0.3,1.3-0.8c0-0.1,0.1-0.1,0.1-0.2s0.1-0.1,0.1-0.2l0,0
		c0-0.1,0.1-0.2,0.1-0.2c0-0.1,0-0.2,0-0.3c-0.1-0.6-0.5-1.3-1-1.7c-0.1-0.1-0.2-0.1-0.3-0.2c-0.1-0.1-0.2-0.1-0.2-0.1
		c-0.2-0.1-0.5-0.2-0.7-0.2c-0.9-0.1-1.4,0.4-1.7,1.5c-0.1,0.3-0.1,0.6,0,0.9C1036.3,119,1036.9,119.2,1037.4,119.7"/>
	<path class="st0" d="M1036.4,123.6c1,0.1,1.4-1.2,1.5-2.1c0-0.1,0-0.3-0.1-0.5c0-0.1-0.1-0.2-0.2-0.3l0,0c-0.1-0.1-0.1-0.2-0.2-0.3
		s-0.2-0.2-0.3-0.3c-0.3-0.3-0.7-0.5-1-0.6c-0.1,0-0.2,0-0.3,0l0,0h-0.1h-0.1c-0.7,0.3-0.8,1.7-0.8,1.8
		C1034.7,121.9,1035.2,123.5,1036.4,123.6"/>
	<path class="st0" d="M1003.8,133.1c-0.1,0-0.2-0.1-0.2-0.1c-0.1,0-0.2-0.1-0.3-0.1c-1-0.5-1.9-1.1-2.8-1.7
		c-0.1-0.1-0.2-0.1-0.3-0.2s-0.2-0.1-0.2-0.2c-0.6-0.4-1.1-0.8-1.7-1.2c-0.1-0.1-0.2-0.1-0.3-0.2s-0.2-0.1-0.3-0.2
		c-0.8-0.6-1.6-1.2-2.3-1.8c-0.1-0.1-0.2-0.1-0.3-0.2s-0.2-0.1-0.3-0.2c-0.7-0.6-1.5-1.2-2.2-1.7l-0.1-0.1c-0.1-0.1-0.2-0.2-0.3-0.2
		c0.1,0.2,0.3,0.4,0.4,0.6c0.1,0.1,0.1,0.3,0.2,0.5c0.1,0.1,0.2,0.1,0.2,0.2c0.4,0.3,0.7,0.6,1.1,0.9c0.1,0.1,0.1,0.1,0.2,0.2
		c0.1,0.1,0.1,0.1,0.2,0.2c1.1,0.9,2.3,1.8,3.5,2.6c0.1,0,0.1,0.1,0.2,0.1c0.1,0.1,0.1,0.1,0.2,0.1c0.2,0.1,0.4,0.3,0.6,0.4
		c0.1,0.1,0.2,0.1,0.3,0.2c0.1,0,0.1,0.1,0.2,0.1c0.1,0,0.1,0.1,0.2,0.1c1.3,0.8,2.6,1.6,3.9,2.3c0.1,0,0.1,0.1,0.2,0.1
		c0.1,0,0.1,0.1,0.2,0.1c0.4,0.2,0.8,0.4,1.2,0.5c0.1,0,0.3-0.1,0.4-0.1c0.2,0,0.4,0,0.6,0C1005.4,133.8,1004.6,133.5,1003.8,133.1
		 M1008.2,132.3c-0.1,0.6-0.4,1.5-1.4,1.9l0,0c-0.1,0-0.4,0-0.5-0.1h-0.1c-0.8-0.3-1.6-0.6-2.4-1c-0.1,0-0.2-0.1-0.2-0.1
		c-0.1,0-0.2-0.1-0.3-0.1c-1-0.5-1.9-1.1-2.8-1.7c-0.1-0.1-0.2-0.1-0.3-0.2s-0.2-0.1-0.2-0.2c-0.6-0.4-1.1-0.8-1.7-1.2
		c-0.1-0.1-0.2-0.1-0.3-0.2s-0.2-0.1-0.3-0.2c-0.8-0.6-1.6-1.2-2.3-1.8c-0.1-0.1-0.2-0.1-0.3-0.2s-0.2-0.1-0.3-0.2
		c-0.7-0.6-1.5-1.2-2.2-1.7l-0.1-0.1c-0.1-0.1-0.2-0.2-0.3-0.2c-0.4-0.4-0.9-0.7-1.3-1.1c-0.2-0.1-0.3-0.2-0.5-0.4
		c-3.1-2.5-5.6-4.1-7.1-3.7c-1.4,0.4-1.8,1.1-2.1,1.6c-0.2,0.4-0.2,0.4-0.6,0.4c-0.1,0-0.2-0.1-0.3-0.3c-0.2-0.7,0.1-2,1.2-3.3
		c1.6-1.8,3.9-2.5,5.1-2.2c0.1,0,0.1,0,0.2,0h0.1c0.1,0,0.2,0.1,0.2,0.1c2,0.8,2.4,1.5,3,2.6c0.5,1,1.2,2.2,3.2,3.8
		c0.4,0.3,0.9,0.7,1.5,1.1c1.2,0.9,2.8,1.8,4.9,2.9c1.1,0.6,2.1,1,2.9,1.4c0.2,0.1,0.3,0.1,0.4,0.2l0,0c0.2,0.1,0.5,0.2,0.7,0.2
		c0.1,0,0.2,0.1,0.3,0.1l0,0h0.1c0.2,0.1,0.3,0.1,0.5,0.1c0.1,0,0.2,0.1,0.3,0.1h0.1c0.1,0,0.2,0,0.3,0.1h0.1c0.1,0,0.2,0.1,0.3,0.1
		l0,0c0.7,0.2,1.2,0.3,1.5,0.5C1007.8,130,1008.3,131.1,1008.2,132.3"/>
	<path class="st0" d="M985.3,96.9c0.1,0.4,0.1,0.7,0.2,1c0,0.2,0.1,0.6,0.3,0.8c0.4,0.3,1.6,0.3,1.6,0.3c0-0.1-0.1-0.2-0.2-0.3
		c0.1,0,0.1,0,0.2,0c-0.2-0.3-0.4-0.4-0.9-0.5l0,0C986.6,98.1,985.9,97.9,985.3,96.9"/>
	<g>
		<path class="st0" d="M1955.6,336.5c0,40.5-15.5,52.4-35.1,52.4c-20.5,0-35.1-13.2-35.1-52.4c0-40.5,15.5-52.8,35.1-52.8
			C1941,283.6,1955.6,296.4,1955.6,336.5 M2032.1,336.5c0-77.9-48.3-111.6-111.6-111.6c-64.7,0-111.6,33.7-111.6,111.6
			s47.4,111.6,111.6,111.6C1983.8,448.1,2032.1,414.4,2032.1,336.5 M1801.2,439.9V383c-3.2,1.4-7.7,2.7-15,2.7
			c-6.8,0-10.5-4.1-10.5-13.7v-81.5c0-43.7-22.3-65.6-56.9-65.6c-33.3,0-51.9,18.7-62,28.2v-23.7h-99.3v54.2h25.1v105.7h-25.1v54.2
			h99.3V306.9c5.9-4.1,16.4-10.9,27.8-10.9c12.3,0,16.9,7.3,16.9,19.6v74.7c0,39.2,19.1,57.9,53.3,57.9
			C1777.5,448.1,1794.3,442.6,1801.2,439.9 M1455,383.9c-6.4,4.6-17.3,11.4-29.6,11.4c-13.2,0-21.4-6.4-21.4-21
			c0-16.4,11.8-23.7,30.5-23.7h20.5V383.9z M1554.3,439.9V383c-3.2,1.4-7.7,2.7-15,2.7c-6.8,0-10-4.1-10-13.7v-67
			c0-53.3-24.6-80.2-84.3-80.2c-47.4,0-79.3,10.5-100.2,17.3V305h54.2v-16.4c6.4-0.9,18.2-4.1,32.8-4.1c17.8,0,23.2,7.7,23.2,21.4
			v5.9h-31.9c-50.6,0-95.7,15-95.7,71.5c0,47.4,32.3,64.7,68.8,64.7c31.9,0,51.9-10.9,67.9-26.9c6.4,18.2,21,26.9,44.2,26.9
			C1531,448.1,1547.4,442.6,1554.3,439.9 M1317.4,439.9V383c-3.2,1.4-7.7,2.7-15,2.7c-6.8,0-10.5-4.1-10.5-13.7V229.4h-74.3v141.2
			c-7.3,5.5-16.9,12.3-28.7,12.3c-12.3,0-15.9-8.2-15.9-20.5v-133h-99.3v54.2h25.1v98.9c0,43.7,21.4,65.6,57.4,65.6
			c33.7,0,54.2-14.1,69.7-31.4c5.9,21,21,31.4,46,31.4C1293.7,448.1,1310.6,442.6,1317.4,439.9 M1070.5,298.7v-73.8
			c-32.3,0-49.7,14.6-61,33.7v-29.2h-99.3v54.2h25.1v105.7h-25.1v54.2h133.9v-54.2h-34.6v-64.2
			C1021.3,309.2,1046.4,298.7,1070.5,298.7 M821.8,322.4h-49.7c1.4-31,6.4-46.5,26-46.5C817.2,275.9,821.8,295,821.8,322.4
			 M897.8,362c0-95.2-31.4-137.1-99.3-137.1c-62.4,0-103.4,38.7-103.4,112.5c0,81.1,46.5,110.7,105.7,110.7
			c50.6,0,77.9-19.6,93.8-31l-22.3-46.9c-16.4,9.6-40.5,20.5-63.8,20.5c-21,0-34.2-9.6-36.4-28.7L897.8,362L897.8,362z M613.6,237.6
			c0,36-14.1,42.4-36.4,42.4h-11.8v-82.9h11.3C600.4,197.1,613.6,205.8,613.6,237.6 M692.4,234c0-75.2-51-94.3-108.4-94.3H463.7
			v54.2h25.1v195.4h-25.1v54.2h136.2v-54.2h-34.6v-51.9H584C640.5,337.4,692.4,316.9,692.4,234 M359.4,439.9V383
			c-3.2,1.4-7.7,2.7-15,2.7c-6.8,0-10.5-4.1-10.5-13.7V126h-99.3v54.2h25.1v210c0,39.2,19.1,57.9,53.3,57.9
			C335.7,448.1,352.6,442.6,359.4,439.9 M224.6,443.5v-89.7h-54.2v28.7h-68.8v-63.3h92v-60.6h-92v-57.9h68.8V228h54.2v-88.4H0v54.2
			h25.1v195.4H0v54.2L224.6,443.5L224.6,443.5z"/>
	</g>
	<g>
		<path class="st0" d="M1006.1,175.9l2.2-10.7c-1,1.4-2.3,2.6-3.5,3.7l-4.3,15c-0.4,1.4,0.3,2.9,1.7,3.4c1.5,0.5,3.9,0.8,7-0.7
			l0.5-5.2c-0.1,0-0.3,0-0.4-0.1C1007,180.6,1005.6,178.3,1006.1,175.9z"/>
		<path class="st0" d="M1010.6,161.7l-3,14.5c-0.3,1.6,0.6,3.1,2.2,3.5h0.1l1.9-18.9C1011.3,161,1010.9,161.2,1010.6,161.7z"/>
		<path class="st0" d="M1022.5,180L1022.5,180c1.6-0.4,2.6-1.9,2.2-3.5l-2.8-13.7c-0.4-0.6-0.7-1.1-1.1-1.7L1022.5,180z"/>
		<path class="st0" d="M1031.6,184l-4.5-15.4c-1.1-1-2.2-2-3.2-3.2l2.2,10.7c0.5,2.4-0.9,4.7-3.3,5.3c-0.1,0-0.2,0-0.3,0.1l0.5,5.2
			c3,1.4,5.3,1.2,6.9,0.6C1031.3,186.9,1032,185.4,1031.6,184z"/>
		<path class="st0" d="M1015.8,162.1c-0.7,0.2-1.6-0.6-2.6-1l-2.9,28.7c0,0.4,0.1,0.9,0.3,1.2c0.8,1,2.2,2.3,4.9,2.4
			c2.8,0.1,4.7-0.8,5.7-1.5c0.5-0.4,0.8-1,0.7-1.6l-2.7-30.1C1017.9,161,1016.7,161.8,1015.8,162.1z"/>
	</g>
	<path class="st0" d="M1008.3,122.1C1008.3,122.1,1008.3,122.2,1008.3,122.1"/>
	<g>
		<path class="st0" d="M1040.1,19.5C1040.1,19.4,1040,19.4,1040.1,19.5c-0.6-0.1-1.1-0.4-1.7-1c-0.3-0.3-0.4-0.7-0.5-1.1
			c0-0.1-0.1-0.2-0.1-0.3V17c0,0,0-0.1-0.1-0.1c-0.2-0.1-0.4-0.2-0.6-0.1c-0.1,0.1-0.4,0.2-0.7,0.3c-0.1,0-0.1,0.1-0.2,0.1
			c-0.2,0-0.4,0.1-0.5,0.1h-0.1h-0.1h-0.1c-0.6,0-1.2-0.3-1.7-0.5l-0.2-0.1c-0.3-0.2-0.4-0.2-0.4-0.2l0,0c-0.2,0-0.4,0.1-0.8,0.2
			c0,0,0,0,0,0.1c0.1,0.3,0.1,0.6,0.2,0.7c0,0,0.2,0.2,0.3,0.3c0.4,0.3,1,0.8,1.1,1.4v0.1l0,0l0,0c0,0.2,0,0.3,0,0.5
			c0,0.1,0,0.1-0.1,0.2c-0.1,0.3-0.2,0.5-0.3,0.6c-0.1,0.1-0.1,0.3,0,0.4c0,0,0.1,0,0.1,0.1l0,0c0.1,0,0.2,0,0.3,0
			c0.3,0,0.6,0,0.9,0.3l0,0c0.5,0.5,0.4,0.9,0.3,1.2v0.1c0.3,0.2,0.7,0.4,1.1,0.5c0.1,0,0.2,0,0.2-0.1c0.1-0.1,0.2-0.3,0.2-0.4
			c0.1-0.4-0.2-0.9-0.4-1.2c-0.2-0.3-0.2-0.4-0.3-0.5c0-0.2,0-0.5,0.1-0.8c0-0.1,0-0.2,0-0.3c-0.1-0.1-0.1-0.1-0.2-0.2
			c-0.2-0.2-0.3-0.3-0.5-0.5c-0.6-0.6-1.3-1.1-2.1-1.6l0.1-0.2c0.8,0.5,1.6,1,2.2,1.5c0.2,0.1,0.4,0.3,0.5,0.4
			c0.1,0.1,0.1,0.1,0.2,0.2c0.3,0,0.9,0,1.2,0.1c0.2,0,0.3,0.2,0.6,0.4l0,0c0.1,0.1,0.2,0.2,0.3,0.3c0.3,0.3,0.7,0.7,1,0.9
			c0.2,0.1,0.3,0.1,0.5,0.2c0.1,0,0.1,0,0.2-0.1c0.1-0.4,0-0.7,0-1C1040.3,19.9,1040.2,19.7,1040.1,19.5z"/>
		<path class="st0" d="M1033.1,36.1L1033.1,36.1c0.2-0.5,0.7-1,1.1-1.3l0.2-0.1c0.2-0.1,0.3-0.3,0.3-0.3l0,0c0-0.2,0.1-0.4,0.1-0.7
			c0,0,0-0.1-0.1-0.1s-0.2,0-0.3,0c-0.2,0-0.4-0.1-0.5-0.1l0,0c0,0-0.1,0.1-0.2,0.1s-0.1,0.1-0.2,0.1c-0.5,0.2-1.2,0.5-1.7,0.4h-0.1
			h-0.1l0,0c-0.2-0.1-0.3-0.1-0.5-0.2c-0.1,0-0.1-0.1-0.1-0.1c-0.2-0.1-0.4-0.3-0.5-0.4s-0.3-0.2-0.4-0.1c0,0-0.1,0-0.1,0.1
			s-0.1,0.2-0.1,0.3v0.1c-0.1,0.2-0.3,0.6-0.6,0.7l0,0c-0.6,0.2-1.1,0.2-1.4,0c-0.1,0-0.2,0-0.2,0c-0.3,0.2-0.7,0.5-0.9,1
			c0,0.1,0,0.1,0,0.2c0.1,0.1,0.3,0.2,0.4,0.3c0.2,0.1,0.4,0.1,0.7,0.1c0.3,0,0.5-0.1,0.8-0.1h0.2c0.2,0,0.4-0.1,0.5-0.1
			c0.2,0,0.6,0.2,0.8,0.3c0.1,0,0.1,0.1,0.2,0.1c1.2-0.5,2.3-1,3.3-1.5l0.1,0.2c-1,0.6-2,1.2-3.2,1.8c-0.1,0.3-0.3,0.8-0.4,1
			c-0.1,0.1-0.2,0.2-0.6,0.4c-0.3,0.1-0.5,0.3-0.8,0.4c-0.3,0.2-0.5,0.3-0.6,0.5c-0.1,0.1-0.2,0.3-0.2,0.4c0,0.1,0,0.1,0.1,0.2
			c0.7,0.3,1.6,0.2,1.7,0.1c0.1,0,0.1,0,0.1,0c0.1-0.4,0.5-0.8,1.3-1.1c0.4-0.2,0.8-0.1,1.2-0.1c0.2,0,0.3,0,0.5,0h0.1l0,0
			c0.2-0.1,0.3-0.3,0.2-0.5c0-0.2-0.1-0.4-0.1-0.7c0-0.1,0-0.1,0-0.2C1032.9,36.6,1033,36.3,1033.1,36.1L1033.1,36.1z"/>
		<path class="st0" d="M1011.5,41.3C1011.6,41.3,1011.6,41.3,1011.5,41.3c0.4-0.3,0.9-0.5,1.6-0.5h0.1c0.4,0,0.8,0.2,1.1,0.5
			c0.1,0.1,0.2,0.2,0.4,0.2h0.1l0,0c0.2,0,0.4-0.1,0.4-0.3c0.1-0.1,0.1-0.4,0.3-0.6c0-0.1,0-0.1,0.1-0.2c0.1-0.2,0.3-0.3,0.5-0.5
			l0,0l0,0c0.4-0.3,1.1-0.4,1.7-0.5h0.2c0.1,0,0.4-0.1,0.5-0.1c0.1-0.1,0.3-0.3,0.5-0.6v-0.1c-0.3-0.2-0.4-0.4-0.6-0.5
			c0,0-0.2,0-0.5-0.1c-0.6,0-1.3-0.1-1.8-0.5l-0.1-0.1c0,0-0.1,0-0.1-0.1l0,0c-0.1-0.1-0.2-0.3-0.3-0.4c0-0.1-0.1-0.1-0.1-0.2
			c-0.1-0.2-0.2-0.5-0.2-0.6c0-0.2-0.2-0.3-0.3-0.3c-0.1,0-0.1,0-0.2,0s-0.2,0.1-0.3,0.2l0,0c-0.2,0.2-0.5,0.4-0.9,0.3l0,0
			c-0.7-0.1-1.1-0.3-1.3-0.6c0-0.1-0.1-0.1-0.2-0.1c-0.3,0-0.9,0.1-1.3,0.5c-0.1,0-0.1,0.1-0.1,0.2c0.1,0.2,0.2,0.3,0.3,0.4
			c0.3,0.3,1,0.5,1.4,0.6h0.2c0.2,0.1,0.4,0.1,0.5,0.2c0.2,0.1,0.4,0.5,0.7,0.8c1.2,0.1,2.5,0.2,3.7,0.2v0.2
			c-1.2,0.1-2.5,0.1-3.7,0.1c-0.1,0.1-0.6,0.6-0.8,0.7c-0.1,0.1-0.4,0.1-0.7,0.1c-0.3,0-0.6,0-0.9,0c-0.4,0-0.6,0.1-0.8,0.2
			c-0.1,0.1-0.3,0.2-0.4,0.3c0,0,0,0.1,0,0.2C1010.6,41.1,1011.4,41.3,1011.5,41.3z"/>
		<path class="st0" d="M996,16.5c-0.9-0.1-1.6,0.4-1.7,0.5c-0.1,0-0.1,0.1-0.1,0.1c0,0.2,0,0.5-0.2,0.8c-0.1,0.2-0.3,0.5-0.6,0.9
			c-0.3,0.3-0.7,0.5-1.1,0.6c-0.2,0.1-0.3,0.1-0.4,0.2l-0.1,0.1l0,0c-0.1,0.2-0.1,0.4,0,0.6c0.1,0.1,0.3,0.3,0.4,0.6
			c0,0,0.1,0.1,0.1,0.2c0.1,0.2,0.2,0.4,0.2,0.6v0.1l0,0c0.1,0.4,0,1-0.1,1.4c0,0.2-0.1,0.3-0.1,0.5s-0.1,0.4,0,0.5
			c0.1,0.2,0.3,0.4,0.5,0.6h0.1c0.1-0.1,0.3-0.1,0.4-0.2c0.1-0.1,0.2-0.1,0.3-0.2c0,0,0-0.1,0.1-0.1c0-0.1,0.1-0.1,0.1-0.2
			c0.2-0.4,0.5-1,1.1-1.2h0.1h0.1l0,0c0.2,0,0.3-0.1,0.5-0.1c0.1,0,0.1,0,0.2,0c0.2,0,0.4,0.1,0.7,0.1c0.2,0.1,0.3,0,0.4,0
			c0,0,0,0,0-0.1s0-0.1,0-0.2v-0.1l0,0c0-0.2-0.1-0.6,0.2-0.8l0,0c0.2-0.2,0.4-0.3,0.6-0.4c0.2-0.1,0.4-0.1,0.6,0c0.1,0,0.1,0,0.2,0
			c0.2-0.2,0.4-0.6,0.4-1.1c0-0.1,0-0.1-0.1-0.2c-0.2-0.1-0.3-0.1-0.5-0.1l0,0c-0.2,0-0.4,0.1-0.7,0.2c-0.2,0.1-0.4,0.2-0.7,0.4
			c-0.2,0.2-0.4,0.3-0.5,0.3c-0.2,0-0.6,0-0.9,0h-0.2c-0.8,0.9-1.5,1.8-1.9,2.9l-0.2-0.1c0.4-1.1,1-2.1,1.8-3.1
			c0-0.2-0.1-0.8-0.1-1.1c0-0.1,0.2-0.3,0.4-0.6c0.1-0.1,0.1-0.1,0.2-0.2c0.1-0.1,0.3-0.3,0.4-0.5c0.2-0.2,0.3-0.4,0.4-0.7
			c0-0.2,0.1-0.3,0-0.5C996.2,16.6,996.1,16.6,996,16.5z"/>
		<path class="st0" d="M1038.4,31c0-0.1,0.1-0.2,0.1-0.2c0.1-0.2,0.2-0.4,0.2-0.4l0,0c0-0.1-0.1-0.4-0.3-0.7c0,0,0,0-0.1,0
			s-0.3,0.1-0.4,0.1s-0.3,0.1-0.3,0.1l-0.1,0.1c0,0.1-0.1,0.1-0.1,0.2c-0.4,0.4-0.9,0.9-1.4,0.9h-0.1c-0.1,0-0.1,0-0.2,0
			c-0.2,0-0.3,0-0.4,0s-0.1,0-0.2-0.1c-0.2-0.1-0.4-0.2-0.7-0.3c-0.2-0.1-0.3-0.1-0.4,0l-0.1,0.1l0,0c0,0.1,0,0.2,0,0.3
			c0,0.3-0.1,0.6-0.4,0.8l0,0c-0.5,0.3-1,0.4-1.4,0.3c-0.1,0-0.1,0-0.2,0c-0.2,0.2-0.5,0.5-0.6,1.1c0,0.1,0,0.1,0.1,0.2
			c0.2,0.1,0.3,0.1,0.5,0.2c0.3,0.1,0.8-0.1,1.4-0.4c0.1,0,0.1-0.1,0.2-0.1c0.2-0.1,0.3-0.1,0.4-0.1c0.2,0,0.6,0.1,0.9,0.1
			c0.1,0,0.2,0,0.2,0l0.4-0.3l0.4-0.3c0.7-0.6,1.3-1.2,1.9-1.8l0.2,0.2c-0.5,0.7-1.1,1.4-1.8,2l-0.4,0.3l-0.3,0.3
			c0,0.3,0,0.8-0.1,1.1c-0.1,0.1-0.2,0.3-0.5,0.5l-0.2,0.1c-0.4,0.3-0.8,0.7-1,1c-0.1,0.1-0.1,0.3-0.1,0.5c0,0.1,0,0.1,0.1,0.1
			c0.3,0.1,0.6,0.1,1,0s0.6-0.2,0.7-0.2s0.1-0.1,0.1-0.1c0-0.5,0.3-0.9,1-1.4c0.3-0.3,0.7-0.3,1-0.4h0.1c0.1,0,0.3,0,0.4-0.1
			c0,0,0,0,0.1,0l0,0c0.1,0,0.1,0,0.1-0.1c0.2-0.1,0.2-0.4,0.1-0.5s-0.2-0.3-0.3-0.6c0-0.1-0.1-0.1-0.1-0.2c0-0.2-0.1-0.3,0-0.5
			v-0.1v-0.1C1037.8,32.1,1038.1,31.5,1038.4,31z"/>
		<path class="st0" d="M1029.6,12.5L1029.6,12.5c-0.5,0.2-1.1,0.3-1.9,0.1c-0.4-0.1-0.7-0.4-0.9-0.7c-0.1-0.1-0.2-0.2-0.3-0.3
			c0,0-0.1,0-0.1-0.1l0,0c-0.2-0.1-0.4,0-0.5,0.2c-0.1,0.1-0.2,0.3-0.4,0.5c0,0.1-0.1,0.1-0.1,0.1c-0.2,0.2-0.4,0.3-0.6,0.4l0,0l0,0
			c-0.5,0.2-1.2,0.2-1.7,0.2h-0.2c-0.1,0-0.4,0-0.5,0c-0.1,0.1-0.4,0.3-0.6,0.5v0.1c0.2,0.3,0.3,0.5,0.4,0.6c0,0,0.2,0.1,0.4,0.1
			c0.6,0.2,1.3,0.4,1.6,0.8v0.1c0,0,0,0.1,0.1,0.1l-0.1,0.1l0.1-0.1c0.1,0.1,0.2,0.3,0.2,0.4s0,0.1,0,0.2c0,0.2,0.1,0.4,0.1,0.7
			c0,0.2,0.1,0.3,0.2,0.3s0.1,0,0.1,0c0.1,0,0.2-0.1,0.3-0.1c0.2-0.1,0.5-0.2,0.7-0.2c0.1,0,0.2,0,0.3,0l0,0c0.6,0.2,1,0.5,1.1,0.9
			c0,0.1,0.1,0.1,0.1,0.1c0.3,0,0.8,0.1,1.4-0.2c0.1,0,0.1-0.1,0.1-0.2c0-0.2-0.1-0.3-0.1-0.4c-0.2-0.4-0.8-0.7-1.2-0.9
			c-0.3-0.1-0.5-0.2-0.6-0.3s-0.3-0.5-0.4-0.8v-0.1c-1.2-0.4-2.4-0.7-3.6-0.9v-0.2c1.2,0.2,2.4,0.4,3.7,0.7c0.2-0.1,0.8-0.4,1-0.5
			c0.1,0,0.4,0,0.7,0.1h0.1c0.5,0.1,1.2,0.3,1.6,0.2c0.2,0,0.3-0.1,0.5-0.2c0.1,0,0.1-0.1,0.1-0.2
			C1030.5,13,1029.8,12.6,1029.6,12.5z"/>
		<path class="st0" d="M992.2,32.7c0.1,0.2,0.4,0.3,0.6,0.2c0.1,0,0.4-0.1,0.7-0.2c0.1,0,0.1,0,0.2,0c0.1,0,0.1,0,0.2,0
			c0.1,0,0.2,0,0.4,0h0.1h0.1h0.1c0.3,0.1,0.6,0.2,0.9,0.4c0.2,0.1,0.5,0.3,0.8,0.5s0.4,0.2,0.4,0.2l0,0c0.2,0,0.5-0.1,0.8-0.1
			c0,0,0,0,0-0.1v-0.3c0-0.2,0-0.4,0-0.5c0,0-0.2-0.2-0.3-0.3l-0.1-0.1c-0.1-0.2-0.3-0.4-0.4-0.6c-0.1-0.2-0.3-0.5-0.3-0.8v-0.1
			v-0.1l0,0c0-0.2,0.1-0.3,0.1-0.5c0-0.1,0.1-0.1,0.1-0.2c0.1-0.2,0.2-0.4,0.4-0.6c0.1-0.1,0.2-0.3,0.1-0.3c0,0,0,0-0.1-0.1
			c-0.1,0-0.2,0-0.3-0.1l0,0c-0.3,0-0.6-0.1-0.8-0.4l0,0c-0.1-0.2-0.2-0.4-0.2-0.6s0.1-0.4,0.2-0.5c0,0,0.1-0.1,0-0.1
			c-0.1-0.1-0.2-0.2-0.3-0.3s-0.3-0.2-0.6-0.3c-0.1,0-0.2,0-0.3,0c-0.1,0.1-0.3,0.2-0.3,0.3c-0.2,0.3-0.2,0.8-0.1,1.2
			c0,0.1,0,0.1,0,0.2c0,0.2,0.1,0.3,0,0.4c0,0.1-0.1,0.3-0.2,0.5H994h0.1c-0.1,0.2-0.1,0.3-0.2,0.4c0.5,0.9,1.3,1.9,2.2,2.7
			l-0.2,0.2c-1-0.8-1.8-1.7-2.5-2.6c-0.2,0-0.4-0.1-0.5-0.1s-0.4-0.1-0.6-0.2c-0.1-0.1-0.3-0.3-0.4-0.6c-0.1-0.1-0.2-0.3-0.3-0.5
			c-0.2-0.4-0.4-0.8-0.7-1c-0.1-0.1-0.3-0.2-0.5-0.3c-0.1,0-0.1,0-0.2,0.1c-0.2,0.3-0.3,0.7-0.3,1s0,0.5,0.1,0.8
			c0,0.1,0.1,0.1,0.1,0.1c0.2,0.1,0.5,0.2,0.7,0.5c0.2,0.2,0.4,0.5,0.7,0.9c0.2,0.4,0.3,0.7,0.3,1.1V32c0,0.2,0,0.3,0,0.5
			C992.1,32.6,992.2,32.6,992.2,32.7L992.2,32.7L992.2,32.7z"/>
		<path class="st0" d="M1023.6,40.9C1023.7,40.9,1023.7,40.9,1023.6,40.9c0.3-0.4,0.7-0.7,1.5-0.9c0.4-0.1,0.8,0,1.1,0.1
			c0.2,0.1,0.3,0.1,0.5,0.1h0.1v0.1v-0.1c0.2,0,0.3-0.2,0.3-0.4s0-0.5,0.1-0.7c0-0.1,0-0.1,0-0.2c0-0.2,0.1-0.3,0.2-0.4v-0.1
			c0,0,0,0,0-0.1v-0.1c0.2-0.2,0.4-0.4,0.7-0.6c0.3-0.2,0.6-0.3,0.8-0.5c0.2-0.1,0.4-0.2,0.4-0.2c0.1-0.1,0.2-0.4,0.3-0.7
			c0,0,0-0.1-0.1-0.1c-0.2-0.1-0.5-0.2-0.7-0.3c-0.1,0-0.2,0-0.3,0c-0.1,0-0.1,0-0.2,0c-0.3,0.1-0.6,0.1-0.9,0.2
			c-0.4,0-0.7,0-0.9-0.1h-0.1h-0.1h-0.1c-0.2-0.1-0.3-0.2-0.4-0.3l-0.1-0.1c-0.2-0.2-0.3-0.3-0.4-0.5c-0.1-0.1-0.2-0.2-0.4-0.2
			c-0.1,0-0.1,0-0.1,0.1c-0.1,0.1-0.1,0.2-0.2,0.3c-0.2,0.2-0.4,0.5-0.8,0.6l0,0c-0.6,0.1-1.1,0-1.4-0.2c-0.1-0.1-0.1-0.1-0.2,0
			c-0.2,0.1-0.7,0.3-1.1,0.8c0,0.1,0,0.1,0,0.2c0.1,0.1,0.2,0.2,0.4,0.3c0.3,0.2,0.8,0.2,1.5,0.2c0.3,0,0.5,0,0.7,0
			c0.2,0.1,0.7,0.4,0.9,0.6c1.2-0.2,2.4-0.5,3.6-0.9l0.1,0.2c-1.1,0.4-2.3,0.8-3.5,1.1c-0.1,0.2-0.4,0.7-0.6,0.9
			c-0.1,0.1-0.3,0.2-0.6,0.3l-0.2,0.1c-0.4,0.1-1,0.3-1.3,0.6c-0.1,0.1-0.2,0.2-0.3,0.4c0,0.1,0,0.1,0.1,0.2
			C1022.5,40.8,1023.2,40.9,1023.6,40.9z"/>
		<path class="st0" d="M1011.5,10.6C1011.5,10.6,1011.4,10.6,1011.5,10.6c-0.3,0.4-0.8,0.7-1.6,0.8c-0.4,0.1-0.8-0.1-1.1-0.2
			c-0.1-0.1-0.3-0.1-0.4-0.1h-0.1l0,0c-0.2,0-0.3,0.2-0.4,0.4c0,0.2-0.1,0.4-0.1,0.7c0,0.1,0,0.1,0,0.2c-0.1,0.2-0.2,0.4-0.3,0.5
			l0,0l0,0c-0.4,0.4-1.1,0.7-1.6,0.9h-0.1c-0.2,0.1-0.4,0.2-0.4,0.2c-0.1,0.2-0.2,0.4-0.3,0.7v0.1l0.2,0.1c0.2,0.1,0.4,0.2,0.5,0.3
			l0,0c0.1,0,0.3,0,0.4-0.1c0.5-0.1,1.3-0.2,1.8,0.1h0.1h0.1l0,0c0.2,0.1,0.3,0.2,0.4,0.3c0,0,0.1,0.1,0.1,0.2
			c0.2,0.2,0.3,0.4,0.4,0.6c0.1,0.1,0.2,0.2,0.4,0.2c0.1,0,0.1,0,0.1,0c0.1-0.1,0.1-0.1,0.2-0.2l0,0c0.2-0.2,0.4-0.5,0.8-0.5l0,0
			c0.7-0.1,1.1,0.1,1.4,0.4c0.1,0.1,0.1,0.1,0.2,0.1c0.5-0.2,0.9-0.4,1.2-0.7c0-0.1,0.1-0.1,0-0.2c-0.1-0.1-0.2-0.3-0.3-0.3
			c-0.4-0.2-1-0.3-1.5-0.3h-0.1c-0.3,0-0.5,0-0.6-0.1c-0.2-0.1-0.5-0.4-0.8-0.6L1010,14c-1.2,0.1-2.4,0.3-3.6,0.6l-0.1-0.2
			c1.2-0.4,2.4-0.6,3.6-0.8c0.1-0.2,0.5-0.7,0.7-0.9c0.1-0.1,0.3-0.2,0.7-0.2c0.5-0.1,1.2-0.3,1.6-0.6c0.1-0.1,0.2-0.2,0.3-0.4
			c0-0.1,0-0.1,0-0.2C1012.5,10.6,1011.7,10.6,1011.5,10.6z"/>
		<path class="st0" d="M999.7,38.2L999.7,38.2c0.3-0.1,0.5-0.1,0.7-0.1c0.3,0,0.7,0.1,1.1,0.2c0.4,0.1,0.6,0.5,0.8,0.7l0,0
			c0.1,0.1,0.1,0.2,0.2,0.3l0,0l0,0c0,0,0.1,0,0.1,0.1l0,0c0.2,0.1,0.4,0,0.5-0.2c0.2-0.2,0.3-0.4,0.5-0.5c0-0.1,0.1-0.1,0.1-0.1
			c0.1-0.1,0.3-0.2,0.5-0.2l0,0h0.1h0.1c0.3-0.1,0.6-0.1,1-0.1c0.3,0,0.6,0,1,0.1c0.2,0,0.4,0,0.5,0c0.2-0.1,0.4-0.3,0.7-0.4
			c0,0,0,0,0-0.1c-0.1-0.3-0.3-0.5-0.4-0.6l-0.2-0.1c-0.1,0-0.1,0-0.2-0.1h-0.1c-0.2-0.1-0.5-0.2-0.7-0.3c-0.3-0.2-0.6-0.4-0.7-0.6
			v-0.1c0,0,0,0,0-0.1l0.1-0.1h-0.1c-0.1-0.1-0.1-0.3-0.2-0.5c0-0.1,0-0.1,0-0.2c0-0.2,0-0.4,0-0.7c0-0.2-0.1-0.3-0.2-0.4h-0.1l0,0
			c-0.1,0-0.2,0-0.3,0.1c-0.3,0.1-0.7,0.2-1,0.1l0,0c-0.6-0.2-0.9-0.6-1-1c0-0.1-0.1-0.1-0.1-0.1c-0.3-0.1-0.8-0.1-1.4,0
			c-0.1,0-0.1,0.1-0.1,0.2c0,0.2,0,0.3,0.1,0.4c0.2,0.4,0.8,0.8,1.1,1s0.4,0.3,0.5,0.4c0.1,0.2,0.2,0.6,0.4,1
			c0.2,0.1,0.4,0.2,0.6,0.3l0.2,0.1c0.8,0.3,1.6,0.6,2.6,0.9l-0.1,0.2c-1-0.2-1.8-0.4-2.7-0.7l-0.2-0.1c-0.2-0.1-0.5-0.2-0.7-0.2
			c-0.3,0.1-0.8,0.4-1.1,0.4c-0.1,0-0.3,0-0.6-0.1l-0.2-0.1c-0.5-0.2-1.1-0.3-1.6-0.3c-0.2,0-0.3,0.1-0.5,0.1
			c-0.1,0-0.1,0.1-0.1,0.2c0.1,0.3,0.3,0.6,0.5,0.8C999.3,38,999.5,38.1,999.7,38.2z"/>
		<path class="st0" d="M1023.6,11C1023.6,10.9,1023.6,11,1023.6,11c-0.4,0.3-1,0.4-1.8,0.4c-0.4,0-0.7-0.3-1-0.5l0,0
			c-0.1-0.1-0.2-0.1-0.3-0.2l0,0l0,0h-0.1c-0.2,0-0.4,0.1-0.5,0.3s-0.2,0.4-0.3,0.6c0,0,0,0.1-0.1,0.2s-0.2,0.2-0.4,0.3l0,0
			c0,0,0,0-0.1,0h-0.1c-0.5,0.3-1.2,0.4-1.8,0.4h-0.2c-0.1,0-0.3,0-0.4,0.1c-0.2,0.1-0.4,0.4-0.6,0.6c0,0,0,0,0,0.1l0.1,0.1
			c0.2,0.2,0.3,0.3,0.4,0.4l0,0c0,0,0.1,0,0.4,0.1c0.6,0.1,1.3,0.2,1.7,0.6l0.1,0.1c0,0,0,0,0.1,0.1v0.1c0.1,0.1,0.2,0.2,0.3,0.4
			c0,0.1,0,0.1,0.1,0.2c0.1,0.3,0.2,0.5,0.2,0.7s0.1,0.3,0.3,0.3c0.1,0,0.1,0,0.2,0c0,0,0,0,0.1,0s0.2-0.1,0.3-0.2
			c0.2-0.1,0.5-0.3,0.8-0.3h0.1l0,0c0.6,0.1,1,0.3,1.3,0.7c0,0.1,0.1,0.1,0.2,0.1c0.3,0,0.8-0.1,1.3-0.4c0.1,0,0.1-0.1,0.1-0.2
			c-0.1-0.2-0.1-0.3-0.2-0.4c-0.3-0.3-0.8-0.5-1.4-0.7c-0.3-0.1-0.5-0.1-0.6-0.2c-0.2-0.2-0.5-0.6-0.6-0.9c-0.4-0.1-0.7-0.1-0.9-0.1
			c-0.8-0.1-1.7-0.2-2.7-0.3v-0.2c1.1,0,2,0,2.8,0.1c0.3,0,0.6,0,1,0.1c0.2-0.1,0.7-0.6,0.9-0.7c0.1-0.1,0.4-0.1,0.7,0h0.2
			c0.5,0,1.1,0,1.5-0.1c0.1-0.1,0.3-0.2,0.4-0.3c0.1,0,0.1-0.1,0-0.2C1024.7,11.5,1024.3,11.2,1023.6,11z"/>
		<path class="st0" d="M996,24.3C996.1,24.3,996.1,24.2,996,24.3c0.1-0.2,0.1-0.3,0.1-0.5s-0.1-0.4-0.2-0.6c0-0.1-0.1-0.1-0.2-0.1
			c-0.2,0-0.3,0-0.5,0.1s-0.4,0.2-0.5,0.4c-0.1,0.1-0.1,0.2-0.2,0.3l-0.1,0.1c0,0.1-0.1,0.1-0.1,0.2c0,0.1-0.1,0.1-0.1,0.2
			c-0.1,0.1-0.1,0.2-0.2,0.3c-0.1,0.1-0.2,0.1-0.4,0.2l-0.2,0.1c-0.1,0.1-0.3,0.2-0.4,0.2c0,0.2-0.1,0.4-0.1,0.6c0,0.1,0,0.2,0,0.3
			c0,0.8,0.2,2.1,0.4,2.9l0.3,0.9c0,0,0,0,0.1,0h0.1c0-0.1,0.1-0.2,0.2-0.3c0.1-0.1,0.1-0.3,0.2-0.3c0,0,0-0.1,0-0.2
			c0-0.1,0-0.2-0.1-0.2c-0.1-0.3-0.3-1.1,0.1-1.6l0.1-0.1c0,0,0,0,0-0.1l0,0c0.1-0.1,0.2-0.2,0.4-0.3c0.1,0,0.1-0.1,0.2-0.1
			c0.2-0.1,0.4-0.2,0.7-0.2c0.2-0.1,0.3-0.1,0.3-0.2l0,0l0,0c-0.1-0.1-0.1-0.1-0.2-0.2c-0.1-0.1-0.2-0.2-0.3-0.3s-0.1-0.3-0.1-0.4
			l0,0C995.3,24.6,995.6,24.3,996,24.3z"/>
		<path class="st0" d="M994.3,34.8l0.1,0.1c0.1,0,0.1,0,0.2,0c0.4,0,0.9,0.2,1.5,0.6c0.4,0.2,0.5,0.6,0.6,0.9v0.1
			c0.1,0.2,0.1,0.3,0.2,0.4L997,37l0,0c0.2,0.1,0.4,0.1,0.6,0c0.1-0.1,0.4-0.3,0.6-0.4c0.1,0,0.1-0.1,0.2-0.1
			c0.2-0.1,0.5-0.2,0.6-0.2l0,0c0,0,0,0,0.1,0c0.6-0.1,1.2,0.1,1.8,0.3h0.2c0.1,0,0.4,0.1,0.5,0.1c0.2-0.1,0.4-0.2,0.8-0.3
			c0,0,0,0,0-0.1c0-0.2-0.2-0.5-0.2-0.7c0,0-0.2-0.2-0.4-0.2c-0.5-0.3-1.1-0.7-1.3-1.2v-0.1V34l0,0c0-0.1-0.1-0.3-0.1-0.5
			c0-0.1,0-0.1,0-0.2c0-0.3,0.1-0.5,0.2-0.7c0.1-0.2,0-0.3-0.1-0.4l-0.1-0.1c-0.1,0-0.2,0-0.3,0l0,0c-0.3,0-0.7,0.1-1-0.1l0,0
			c-0.5-0.4-0.7-0.8-0.6-1.2c0,0,0-0.1-0.1-0.1c-0.2-0.1-0.3-0.1-0.5-0.2c-0.3-0.1-0.5-0.1-0.7-0.1c-0.1,0-0.2,0.1-0.2,0.1
			c-0.1,0.2-0.1,0.3-0.1,0.4c0,0.2,0.1,0.3,0.2,0.6c0.1,0.2,0.2,0.3,0.4,0.5l0.2,0.2c0.2,0.2,0.3,0.3,0.3,0.4c0,0.2,0.1,0.6,0.1,0.9
			v0.1c0.9,0.7,1.9,1.3,3.1,1.9l-0.1,0.2c-1.2-0.5-2.3-1.1-3.3-1.7c-0.2,0.1-0.9,0.2-1.2,0.1c-0.2,0-0.3-0.1-0.6-0.3
			c-0.2-0.2-0.5-0.3-0.8-0.5s-0.6-0.3-0.8-0.3s-0.3,0-0.6,0c-0.1,0-0.1,0.1-0.1,0.1c0,0.3,0.1,0.6,0.2,0.9
			C994,34.5,994.2,34.7,994.3,34.8z"/>
		<path class="st0" d="M1017.6,41.5C1017.6,41.5,1017.7,41.5,1017.6,41.5c0.4-0.4,0.8-0.6,1.7-0.7c0.4,0,0.8,0.2,1.1,0.3
			c0.1,0.1,0.2,0.1,0.3,0.1h0.1h0.1c0.2,0,0.4-0.2,0.4-0.4s0.1-0.5,0.2-0.7c0-0.1,0-0.1,0.1-0.2c0.1-0.1,0.2-0.3,0.3-0.4l0,0
			c0,0,0-0.1,0.1-0.1l0.1-0.1c0.4-0.4,1-0.6,1.5-0.8l0.2-0.1c0.4-0.1,0.4-0.1,0.4-0.2c0.1-0.1,0.2-0.3,0.4-0.6v-0.1
			c-0.2-0.2-0.5-0.3-0.6-0.4c-0.1,0-0.3,0-0.4,0h-0.1c-0.5,0-1.3,0.1-1.8-0.2l-0.1-0.1c0,0,0,0-0.1,0h-0.1c-0.1-0.1-0.3-0.2-0.4-0.3
			c0-0.1-0.1-0.1-0.1-0.2c-0.2-0.2-0.3-0.5-0.3-0.6c-0.1-0.2-0.2-0.2-0.3-0.3c-0.1,0-0.1,0-0.1,0l0,0l0,0c-0.1,0.1-0.1,0.1-0.2,0.2
			c-0.2,0.2-0.5,0.5-0.9,0.5l0,0c-0.7,0-1.1-0.1-1.4-0.4c-0.1-0.1-0.1-0.1-0.2-0.1c-0.3,0.1-0.8,0.3-1.2,0.7c-0.1,0.1-0.1,0.1,0,0.2
			c0.1,0.1,0.2,0.3,0.3,0.4c0.4,0.3,1,0.3,1.5,0.4c0.3,0,0.5,0,0.7,0.1s0.5,0.4,0.8,0.7h0.1c0.2,0,0.4,0,0.6,0h0.3
			c0.9-0.1,1.9-0.2,2.7-0.3V38c-0.7,0.1-1.7,0.3-2.7,0.5h-0.3c-0.2,0-0.5,0.1-0.7,0.1c-0.2,0.2-0.5,0.7-0.7,0.8
			c-0.1,0.1-0.3,0.1-0.6,0.2h-0.3c-0.5,0.1-1.1,0.2-1.4,0.4c-0.1,0.1-0.2,0.2-0.4,0.4c0,0.1,0,0.1,0,0.2
			C1016.6,41.4,1017.4,41.5,1017.6,41.5z"/>
		<path class="st0" d="M996.6,17.2L996.6,17.2v0.2c-0.1,0.3-0.3,0.6-0.5,0.9c-0.1,0.2-0.2,0.3-0.4,0.5c-0.1,0.1-0.2,0.2-0.2,0.3
			c-0.2,0.2-0.3,0.3-0.3,0.4l0,0c0,0.1,0,0.4,0.1,0.7l0.1,0.1c0.3,0,0.6,0,0.8,0c0.1,0,0.3-0.2,0.4-0.2c0.2-0.1,0.5-0.3,0.7-0.4
			c0.3-0.1,0.6-0.2,0.9-0.2h0.1h0.1l0,0c0.2,0,0.4,0.1,0.5,0.1s0.1,0.1,0.2,0.1c0.2,0.1,0.4,0.2,0.6,0.4c0.1,0.1,0.3,0.1,0.4,0.1
			c0,0,0.1,0,0.1-0.1s0.1-0.2,0.1-0.3l0,0c0.1-0.2,0.2-0.6,0.5-0.8l0,0c0.6-0.3,1-0.3,1.4-0.1c0.1,0,0.2,0,0.2,0
			c0.2-0.2,0.6-0.5,0.8-1c0-0.1,0-0.1-0.1-0.2c-0.2-0.1-0.3-0.2-0.4-0.2c-0.3-0.1-0.8,0-1.5,0.2l-0.2,0.1c-0.2,0.1-0.4,0.1-0.5,0.1
			c-0.2,0-0.5-0.1-0.8-0.2c-0.1,0-0.2-0.1-0.2-0.1c-1.1,0.6-2.1,1.2-3,1.9l-0.2-0.2c0.8-0.8,1.8-1.5,2.9-2.2c0-0.3,0.2-0.8,0.3-1
			c0.1-0.1,0.2-0.2,0.5-0.4l0.2-0.1c0.4-0.3,0.9-0.6,1.1-0.9c0.1-0.1,0.1-0.3,0.2-0.5c0-0.1,0-0.1-0.1-0.2c-0.7-0.3-1.5,0-1.7,0
			c0,0-0.1,0-0.1,0.1c0,0.2-0.2,0.5-0.4,0.7s-0.5,0.4-0.8,0.6c-0.4,0.2-0.8,0.2-1.2,0.2c-0.2,0-0.3,0-0.5,0c0,0-0.1,0-0.1,0.1
			l-0.1-0.1l0.1,0.1c-0.2,0.1-0.2,0.3-0.2,0.5c0.1,0.2,0.1,0.4,0.2,0.7C996.6,17,996.6,17,996.6,17.2
			C996.7,16.8,996.6,17,996.6,17.2L996.6,17.2z"/>
		<path class="st0" d="M989.7,26.2L989.7,26.2c0,0.3,0.2,0.5,0.4,0.5s0.4,0.1,0.7,0.2c0.1,0,0.1,0,0.2,0.1c0.2,0.1,0.3,0.2,0.4,0.3
			h0.1c0,0,0,0,0.1,0l0.1,0.1c0.3,0.3,0.6,0.8,0.8,1.2c0.1,0.2,0.2,0.3,0.3,0.5s0.2,0.4,0.3,0.4c0.2,0.1,0.4,0.1,0.7,0.2l-0.5-0.8
			c-1.1-1.9-0.8-3.3-0.7-3.8V25c-0.1-0.1-0.2-0.2-0.4-0.4c-0.1-0.2-0.3-0.4-0.3-0.5c-0.1-0.1,0-0.4,0-0.7L992,23
			c0-0.2,0.1-0.3,0.1-0.5c0-0.3,0.1-0.6,0.1-0.8c0-0.1-0.1-0.3-0.2-0.5c0-0.1-0.1-0.1-0.2-0.1c-0.3,0.1-0.6,0.3-0.9,0.6
			c-0.3,0.3-0.4,0.6-0.5,0.7c0,0.1,0,0.1,0,0.1c0.1,0.2,0.2,0.5,0.2,0.8s0,0.6,0,0.9v0.2c0,0.2-0.1,0.4-0.2,0.7
			c-0.1,0.2-0.2,0.3-0.3,0.5l0,0c-0.1,0.1-0.1,0.2-0.2,0.3l0,0l0,0C989.7,26.1,989.7,26.2,989.7,26.2z"/>
		<path class="st0" d="M1002,13.9c0,0.2-0.1,0.3-0.2,0.5l0,0v0.1v0.1c-0.3,0.5-0.8,0.8-1.3,1.1l-0.2,0.1c-0.2,0.1-0.3,0.2-0.4,0.3
			c-0.1,0.2-0.1,0.4-0.2,0.7c0,0,0,0.1,0.1,0.1c0.3,0.1,0.6,0.2,0.7,0.2c0.1,0,0.2,0,0.2-0.1c0.1,0,0.1,0,0.2-0.1
			c0.5-0.2,1.2-0.4,1.8-0.2h0.1h0.1l0,0c0.2,0.1,0.3,0.1,0.5,0.2c0.1,0,0.1,0.1,0.1,0.1c0.2,0.1,0.3,0.3,0.5,0.5
			c0.1,0.1,0.3,0.2,0.4,0.2c0,0,0.1,0,0.1-0.1c0,0,0-0.1,0.1-0.1c0-0.1,0.1-0.1,0.2-0.2c0.2-0.3,0.3-0.5,0.7-0.7l0,0
			c0.6-0.2,1.1-0.1,1.4,0.1c0.1,0.1,0.2,0.1,0.2,0c0.4-0.2,0.8-0.5,1-0.9c0-0.1,0-0.1,0-0.2c-0.1-0.1-0.3-0.2-0.4-0.3
			c-0.4-0.2-1.1-0.1-1.5-0.1c-0.3,0.1-0.5,0.1-0.7,0s-0.6-0.3-0.9-0.5l0,0h-0.1c-0.3,0.1-0.5,0.1-0.8,0.2c-0.8,0.2-1.6,0.5-2.6,0.9
			l-0.1-0.2c1-0.5,1.8-0.8,2.5-1.1c0.3-0.1,0.6-0.2,0.9-0.3c0.1-0.2,0.3-0.8,0.5-1c0.1-0.1,0.3-0.2,0.6-0.3h0.1
			c0.5-0.2,1.1-0.4,1.4-0.8c0.1-0.1,0.2-0.3,0.3-0.4c0-0.1,0-0.1-0.1-0.2c-0.3-0.2-0.6-0.3-0.9-0.3c-0.3,0-0.6,0-0.8,0h-0.1
			c-0.2,0.4-0.6,0.8-1.4,1c-0.4,0.1-0.8,0-1.1,0l0,0c-0.1,0-0.2-0.1-0.3-0.1l0,0c-0.1,0-0.1,0-0.2,0c-0.2,0.1-0.3,0.2-0.3,0.4
			s0,0.4,0,0.7C1002,13.7,1002,13.8,1002,13.9z"/>
		<path class="st0" d="M1041.7,28.5c-0.1-0.1-0.4-0.2-0.6-0.5c-0.1,0-0.1-0.1-0.2-0.1c-0.1-0.1-0.2-0.3-0.3-0.4l0,0v-0.1v-0.1
			c-0.2-0.4-0.3-0.9-0.4-1.4c0-0.2-0.1-0.4-0.1-0.5c0-0.2-0.1-0.4-0.1-0.4l0,0c-0.1-0.1-0.4-0.3-0.7-0.4h-0.1
			c-0.1,0.1-0.2,0.2-0.3,0.3c-0.1,0.1-0.2,0.2-0.2,0.2v0.1c0,0.1,0,0.2,0,0.2c0,0.3-0.1,1.1-0.6,1.5h-0.1c0,0,0,0-0.1,0l0,0
			c-0.2,0.1-0.3,0.1-0.5,0.2c-0.1,0-0.1,0-0.2,0c-0.2,0-0.4,0-0.7,0c-0.2,0-0.3,0-0.4,0.1l0,0c0,0.1,0.1,0.2,0.1,0.3
			c0.1,0.2,0.3,0.5,0.1,0.8l0,0c-0.3,0.4-0.7,0.7-1.1,0.6h-0.1c-0.1,0.2-0.1,0.3-0.1,0.5s0,0.4,0,0.7c0,0.1,0.1,0.1,0.2,0.2
			c0.2,0,0.3,0,0.5,0c0.3,0,0.7-0.3,1.2-0.8c0.1-0.1,0.1-0.1,0.2-0.2c0.1-0.1,0.2-0.2,0.3-0.2c0.1,0,0.4-0.1,0.7-0.2
			c0.1,0,0.2-0.1,0.3-0.1c0.5-1,0.9-2.1,0.9-3.2h0.2c0,1.2-0.2,2.4-0.7,3.4c0.1,0.2,0.4,0.8,0.4,1c0,0.1-0.1,0.4-0.2,0.7
			c0,0.1-0.1,0.2-0.1,0.3c-0.2,0.4-0.5,0.9-0.5,1.3c0,0.2,0,0.3,0,0.5c0,0.1,0.1,0.1,0.2,0.1c0.7-0.1,1.3-0.5,1.6-0.9
			c0,0,0.1-0.1,0-0.1c-0.1-0.4,0-1,0.4-1.8c0.1-0.2,0.3-0.4,0.4-0.5s0.3-0.2,0.4-0.3l0.1-0.1c0.1-0.1,0.2-0.2,0.3-0.3l0.1-0.1h0.1
			h-0.1C1042,28.9,1041.9,28.7,1041.7,28.5z"/>
		<path class="st0" d="M1008.8,41c0.2,0,0.4-0.1,0.5-0.2s0.2-0.4,0.4-0.6c0-0.1,0.1-0.1,0.1-0.2c0.1-0.1,0.2-0.2,0.4-0.3l0,0
			c0,0,0,0,0.1,0h0.1c0.5-0.3,1.2-0.3,1.8-0.3h0.1c0.2,0,0.4,0,0.5,0c0.1-0.1,0.4-0.3,0.6-0.5v-0.1c-0.2-0.3-0.4-0.5-0.5-0.6
			c0,0-0.2-0.1-0.3-0.1c-0.1,0-0.1,0-0.2,0c-0.6-0.1-1.3-0.3-1.7-0.7l-0.1-0.1c0,0,0,0-0.1-0.1v-0.1c-0.1-0.1-0.2-0.3-0.3-0.4
			c0-0.1,0-0.1,0-0.2c-0.1-0.2-0.1-0.4-0.1-0.7c0-0.2-0.1-0.3-0.2-0.3c-0.1,0-0.1,0-0.2,0c-0.1,0-0.2,0.1-0.3,0.2
			c-0.3,0.1-0.6,0.3-1,0.2l0,0c-0.6-0.2-1-0.4-1.2-0.8c0-0.1-0.1-0.1-0.2-0.1c-0.5,0-1,0.1-1.4,0.3c-0.1,0-0.1,0.1-0.1,0.2
			c0,0.2,0.1,0.3,0.2,0.4c0.2,0.3,0.8,0.6,1.3,0.8l0.1,0.1c0.2,0.1,0.4,0.1,0.5,0.2c0.1,0.1,0.4,0.5,0.5,0.9l0,0
			c1.2,0.3,2.4,0.5,3.6,0.7v0.2c-1.3-0.1-2.5-0.2-3.7-0.4c-0.2,0.1-0.7,0.5-1,0.6c-0.1,0-0.4,0-0.7,0h-0.2c-0.5-0.1-1.1-0.1-1.5,0
			c-0.1,0.1-0.3,0.1-0.5,0.2c-0.1,0-0.1,0.1,0,0.2c0.4,0.7,1.1,1,1.3,1c0.1,0,0.1,0,0.1,0c0.3-0.2,0.6-0.3,1-0.3
			c0.2,0,0.4,0,0.7,0.1c0.5,0.1,0.8,0.4,1,0.6c0.1,0.1,0.2,0.2,0.3,0.3C1008.7,40.9,1008.7,41,1008.8,41v0.1V41z"/>
		<path class="st0" d="M1041.6,22.8L1041.6,22.8c0-0.2,0.1-0.3,0.1-0.5c0,0,0-0.1,0-0.2l0,0c-0.1-0.2-0.3-0.4-0.5-0.4s-0.4,0-0.8,0
			c-0.1,0-0.1,0-0.2,0c-0.2,0-0.5-0.1-0.7-0.2l0,0l0,0c-0.5-0.2-0.9-0.6-1.2-0.9c-0.1-0.1-0.2-0.2-0.3-0.3l-0.1-0.1
			c-0.1-0.1-0.2-0.2-0.3-0.2c-0.2,0-0.5,0-0.8,0c0,0-0.1,0-0.1,0.1v0.1c0,0.2-0.1,0.5-0.1,0.7c0,0,0.1,0.2,0.2,0.3
			c0.2,0.3,0.6,1,0.4,1.6v0.1V23l0,0c-0.1,0.2-0.2,0.3-0.3,0.4c0,0-0.1,0.1-0.2,0.1c-0.1,0.1-0.3,0.3-0.5,0.4s-0.2,0.2-0.2,0.3l0,0
			c0.1,0,0.2,0.1,0.3,0.1c0.1,0.1,0.3,0.1,0.4,0.2c0.1,0.1,0.2,0.2,0.3,0.4l0,0c0,0.2,0,0.4-0.1,0.6s-0.2,0.3-0.4,0.4
			c0,0-0.1,0-0.1,0.1s0.1,0.2,0.2,0.4c0.1,0.1,0.2,0.3,0.4,0.5c0.1,0.1,0.2,0.1,0.2,0.1c0.2,0,0.3-0.1,0.4-0.2
			c0.2-0.1,0.3-0.3,0.3-0.5c0-0.1,0.1-0.2,0.1-0.3v-0.3c0-0.1,0-0.2,0-0.2c0-0.1,0-0.3,0.1-0.3c0.1-0.1,0.2-0.2,0.3-0.3l0.4-0.4
			c-0.2-1-0.7-2.1-1.4-3.1l0.2-0.1c0.8,1,1.4,2.1,1.7,3.1c0.1,0.1,0.3,0.2,0.5,0.3s0.4,0.3,0.5,0.4c0.1,0.1,0.2,0.3,0.2,0.7
			c0,0.1,0,0.3,0.1,0.4c0,0.2,0,0.3,0.1,0.5v0.1c0.1,0.3,0.1,0.5,0.2,0.7c0.1,0.1,0.2,0.3,0.3,0.4c0,0.1,0.1,0.1,0.2,0
			c0.3-0.2,0.5-0.5,0.7-0.9c0.1-0.3,0.2-0.6,0.2-0.8c0-0.1,0-0.1,0-0.1c-0.2-0.2-0.4-0.4-0.5-0.7c-0.1-0.2-0.2-0.6-0.3-0.9v-0.1
			c-0.1-0.2-0.1-0.4,0-0.7C1041.5,23.2,1041.6,23,1041.6,22.8z"/>
		<path class="st0" d="M1032.2,13.5c-0.2-0.1-0.4,0-0.6,0.1c-0.1,0.1-0.3,0.3-0.6,0.5c0,0-0.1,0.1-0.2,0.1c-0.1,0.1-0.3,0.1-0.5,0.2
			h-0.1c0,0,0,0-0.1,0h-0.1c-0.6,0.1-1.3,0-1.9-0.1h-0.1c-0.1,0-0.4-0.1-0.5-0.1l0,0c-0.2,0.1-0.5,0.2-0.7,0.4c0,0,0,0,0,0.1
			l0.1,0.2c0.1,0.2,0.2,0.4,0.2,0.5c0,0,0.1,0.1,0.4,0.2c0.6,0.3,1.2,0.6,1.4,1.1v0.1v0.1l0,0V17c0.1,0.2,0.1,0.3,0.1,0.5
			c0,0.1,0,0.1,0,0.2c0,0.3,0,0.5-0.1,0.7c0,0.2,0,0.3,0.1,0.4h0.1l0,0c0.1,0,0.2,0,0.4-0.1c0.2,0,0.3-0.1,0.5-0.1s0.3,0,0.5,0.1
			l0,0c0.7,0.4,0.8,0.8,0.8,1.1c0,0.1,0,0.1,0.1,0.1c0.3,0.1,0.8,0.2,1.3,0.1c0.1,0,0.2-0.1,0.2-0.1c0-0.2,0-0.3,0-0.4
			c-0.1-0.4-0.5-0.8-0.9-1.1c-0.2-0.2-0.4-0.3-0.5-0.4c-0.1-0.2-0.2-0.6-0.2-1c-1-0.6-2.1-1.1-3.3-1.5l0.1-0.2
			c1.2,0.4,2.4,0.8,3.5,1.3c0.2-0.1,0.8-0.3,1.1-0.3c0.2,0,0.3,0.1,0.7,0.2l0.2,0.1c0.5,0.2,1,0.5,1.5,0.5c0.2,0,0.3,0,0.5-0.1
			c0.1,0,0.1-0.1,0.1-0.2c0-0.3-0.2-0.6-0.4-0.9c-0.2-0.2-0.4-0.4-0.5-0.6h-0.1c-0.5,0.2-1,0.1-1.8-0.3c-0.4-0.2-0.6-0.5-0.8-0.8
			l0,0c-0.1-0.1-0.2-0.3-0.2-0.4C1032.3,13.6,1032.3,13.5,1032.2,13.5L1032.2,13.5L1032.2,13.5z"/>
		<path class="st0" d="M1013.9,10.7c0,0.1-0.1,0.4-0.2,0.6c0,0.1,0,0.1-0.1,0.2c-0.1,0.1-0.2,0.3-0.3,0.4l0,0c0,0,0,0-0.1,0.1
			l-0.1,0.1c-0.5,0.4-1.2,0.6-1.8,0.7c-0.1,0-0.4,0.1-0.4,0.1l0,0c-0.1,0.1-0.3,0.4-0.4,0.6v0.1c0.3,0.2,0.5,0.4,0.6,0.5
			c0.1,0,0.3,0,0.5,0c0.6,0,1.3,0,1.8,0.4h0.1c0,0,0.1,0,0.1,0.1l-0.1,0.1l0.1-0.1c0.1,0.1,0.2,0.2,0.3,0.3c0,0.1,0.1,0.1,0.1,0.2
			c0.1,0.2,0.2,0.5,0.3,0.6c0.1,0.2,0.2,0.3,0.3,0.3c0.1,0,0.1,0,0.2,0s0.2-0.1,0.2-0.2l0.1-0.1c0.2-0.2,0.5-0.4,0.9-0.4l0,0
			c0.6,0,1.1,0.2,1.4,0.5c0.1,0.1,0.1,0.1,0.2,0.1c0.3,0,0.8-0.2,1.3-0.6c0.1-0.1,0.1-0.1,0-0.2c-0.1-0.2-0.2-0.3-0.3-0.4
			c-0.3-0.3-0.9-0.4-1.5-0.5c-0.3,0-0.5-0.1-0.7-0.2c-0.2-0.1-0.4-0.4-0.7-0.7l-0.1-0.1c-1.2,0-2.4,0-3.7,0.1v-0.2
			c1.3-0.2,2.5-0.3,3.7-0.3c0.2-0.2,0.6-0.6,0.8-0.8c0.1-0.1,0.3-0.1,0.7-0.1h0.1c0.5,0,1.2-0.1,1.6-0.3c0.1-0.1,0.3-0.2,0.4-0.3
			c0-0.1,0-0.1,0-0.2c-0.4-0.5-1-0.7-1.5-0.7h-0.1c-0.3,0.4-0.8,0.5-1.6,0.6c-0.5,0-0.8-0.2-1.1-0.4c-0.1-0.1-0.2-0.2-0.4-0.2h-0.1
			v-0.1v0.1C1014.1,10.3,1013.9,10.5,1013.9,10.7z"/>
		<path class="st0" d="M1003.3,9.5c-0.1,0-0.2,0.1-0.2,0.1c-0.1,0-0.3,0.2-0.4,0.2l0,0c-0.1,0.1-0.2,0.4-0.3,0.7v0.1
			c0.2,0.1,0.5,0.3,0.7,0.4c0.1,0,0.3,0,0.4-0.1c0.8-0.2,1.4-0.2,1.8,0h0.1h0.1l0,0c0.2,0.1,0.3,0.2,0.4,0.3c0.1,0,0.2,0,0.4,0
			c0.4,0.1,0.8,0.2,1.1,0.3c0,0,0.1,0,0.1,0.1c0-0.1,0-0.2,0-0.3c0-0.4,0.3-0.7,0.7-0.7c0.1,0,0.2,0,0.2,0c0.2,0,0.3,0.1,0.5,0.2
			c0.3,0.1,0.6,0.3,0.9,0.2c0.5-0.1,0.8-0.2,1-0.4l0,0c-0.1-0.1-0.2-0.2-0.4-0.3c-0.4-0.2-1.1-0.2-1.5-0.2c-0.3,0-0.5,0-0.7,0
			c-0.2-0.1-0.5-0.3-0.8-0.5l-0.1-0.1c-1.1,0.2-2.3,0.4-3.6,0.8l-0.1-0.2c1.3-0.4,2.4-0.7,3.5-1c0.1-0.2,0.4-0.7,0.6-0.9
			c0.1-0.1,0.3-0.2,0.6-0.3h0.2c0.5-0.1,1-0.3,1.3-0.6c0.1-0.1,0.2-0.2,0.3-0.4c0-0.1,0-0.1-0.1-0.2c-0.4-0.3-0.9-0.4-1.6-0.4h-0.1
			c-0.2,0.4-0.7,0.7-1.4,0.9c-0.4,0.1-0.8,0-1.1-0.2c-0.2-0.1-0.3-0.1-0.4-0.1h-0.1V6.8v0.1c-0.2,0-0.3,0.2-0.3,0.4s0,0.4-0.1,0.7
			c0,0.1,0,0.1,0,0.2c-0.1,0.1-0.1,0.3-0.2,0.4v0.1c0,0,0,0,0,0.1v0.1C1004.3,9,1003.7,9.3,1003.3,9.5z"/>
		<path class="st0" d="M1008.7,8.2l-0.2,0.1c-0.1,0-0.3,0.1-0.4,0.1l0,0c-0.1,0.1-0.2,0.4-0.4,0.6v0.1c0.2,0.1,0.5,0.3,0.6,0.4
			c0.1,0,0.3,0,0.4,0l0,0c0.5,0,1.3,0,1.8,0.3h0.1c0,0,0,0,0.1,0h0.1c0.1,0.1,0.3,0.2,0.3,0.3l0.1-0.1h0.3c0.2,0,0.9,0.1,1.6,0.4
			h0.1l0,0c0.1,0,0.1,0,0.2,0l0,0c0.1-0.3,0.4-0.6,0.8-0.6V10l0,0V9.8c0.1,0,0.2,0,0.3,0c0.2,0.1,0.3,0.2,0.5,0.2
			c0.3,0.2,0.5,0.3,0.9,0.3h0.1l0.1-0.1c0.1-0.1,0.1-0.1,0-0.2s-0.2-0.3-0.3-0.4c-0.4-0.3-1.2-0.4-1.5-0.4s-0.5,0-0.7-0.1
			s-0.4-0.4-0.7-0.6c-0.1-0.1-0.1-0.1-0.1-0.1h-0.9c-1,0.1-1.8,0.1-2.7,0.2V8.4c0.9-0.2,1.8-0.3,2.7-0.4l0.9-0.1
			c0.2-0.2,0.5-0.7,0.7-0.8c0.1-0.1,0.3-0.1,0.6-0.2h0.3c0.5-0.1,1-0.2,1.4-0.4c0.1-0.1,0.2-0.2,0.4-0.4c0-0.1,0-0.1,0-0.2
			c-0.5-0.4-1.1-0.6-1.5-0.6h-0.1c-0.3,0.4-0.8,0.6-1.6,0.7c-0.4,0-0.8-0.2-1.1-0.3c-0.1-0.1-0.2-0.1-0.3-0.2l0,0l0,0h-0.1
			c-0.2,0-0.3,0.2-0.4,0.3c0,0.1-0.1,0.4-0.2,0.7c0,0,0,0.1,0,0.2c-0.1,0.1-0.2,0.3-0.3,0.4l-0.1,0.1l-0.1,0.1
			C1009.9,7.9,1009.2,8.1,1008.7,8.2z"/>
		<path class="st0" d="M997.9,11.7L997.9,11.7c-0.2,0.1-0.4,0.3-0.4,0.3c0,0.2-0.1,0.4-0.2,0.7c0,0,0,0.1,0.1,0.1
			c0.3,0.1,0.6,0.2,0.7,0.2c0,0,0.1,0,0.2-0.1c0.1,0,0.1,0,0.2-0.1c0.3-0.1,0.9-0.3,1.4-0.3c0.1,0,0.3,0,0.4,0h0.1h0.1l0,0
			c0.2,0.1,0.3,0.1,0.5,0.2c0.1,0,0.1,0.1,0.1,0.1c0.1,0.1,0.2,0.1,0.3,0.2h0.1h0.1c0-0.1,0-0.2,0-0.3c0-0.4,0.2-0.7,0.5-0.8
			c0.1,0,0.2,0,0.4,0c0.1,0,0.3,0,0.4,0.1c0.3,0.1,0.7,0.2,1,0.1c0.7-0.2,1-0.5,1.2-0.8l0.1-0.2l0,0c-0.4-0.1-1-0.1-1.4,0
			c-0.3,0.1-0.5,0.1-0.7,0.1c-0.2-0.1-0.6-0.3-1-0.5c-1.1,0.3-2.2,0.8-3.4,1.3l-0.1-0.2c1.1-0.6,2.2-1.1,3.3-1.5
			c0.1-0.2,0.3-0.8,0.4-1c0.1-0.1,0.3-0.2,0.6-0.3c0.1,0,0.1-0.1,0.2-0.1c0.4-0.2,0.9-0.4,1.2-0.7c0.1-0.1,0.2-0.3,0.2-0.4
			c0-0.1,0-0.1-0.1-0.2c-0.6-0.3-1.2-0.3-1.7-0.2h-0.1c-0.1,0.4-0.5,0.8-1.3,1.1c-0.4,0.2-0.8,0.1-1.2,0c-0.1,0-0.3-0.1-0.4-0.1
			h-0.1l0,0c-0.2,0.1-0.3,0.2-0.3,0.4s0,0.4,0,0.7c0,0.1,0,0.1,0,0.2c0,0.2-0.1,0.4-0.2,0.6l0,0l0,0C998.9,11,998.3,11.4,997.9,11.7
			z"/>
		<path class="st0" d="M989.4,26l0.4,0.1l-0.3-0.2C989.4,25.9,989.4,25.9,989.4,26z"/>
		<path class="st0" d="M986.6,21.1C986.7,21.1,986.7,21.2,986.6,21.1c0.2,0.3,0.4,0.5,0.4,0.7l0,0l0,0c0.2,0.4,0.1,1,0.1,1.5
			c0,0.1,0,0.2,0,0.3c0,0.3,0,0.4,0,0.4c0.1,0.1,0.3,0.4,0.5,0.6h0.1l0.1-0.1c0.2-0.1,0.4-0.2,0.5-0.3c0,0,0.1-0.1,0.1-0.2l0.1-0.1
			c0.2-0.5,0.4-1.1,0.9-1.4h0.1h0.1l0,0c0.1,0,0.2-0.1,0.3-0.1v-0.1c0.1-0.2,0.3-0.5,0.5-0.8c0.3-0.3,0.6-0.5,0.9-0.6
			c0.1-0.1,0.1-0.2,0.2-0.2c0-0.1-0.1-0.1-0.1-0.2c-0.3-0.3-0.3-0.7,0-1c0.1-0.1,0.1-0.1,0.2-0.2c0.1-0.1,0.3-0.2,0.5-0.2
			c0.1,0,0.3-0.1,0.4-0.2l0,0c-0.2,0-0.3,0-0.5,0s-0.4,0.1-0.6,0.3c-0.2,0.2-0.4,0.4-0.5,0.5l-0.1,0.1c-0.1,0.1-0.2,0.3-0.3,0.3
			c-0.1,0.1-0.5,0.1-0.8,0.2c-0.1,0-0.2,0-0.3,0.1c-0.6,1-1.1,2-1.4,3.1l-0.2-0.1c0.2-1.1,0.6-2.2,1.2-3.3c-0.1-0.2-0.3-0.8-0.3-1
			c0-0.1,0.1-0.3,0.2-0.6c0.1-0.3,0.3-0.5,0.4-0.8c0.1-0.2,0.2-0.5,0.2-0.7c0-0.1,0-0.3-0.1-0.5c0-0.1-0.1-0.1-0.2-0.1
			c-0.7,0.1-1.3,0.6-1.5,0.8v0.1c0.2,0.4,0,1-0.3,1.7c-0.2,0.4-0.6,0.6-0.9,0.8c-0.2,0.1-0.3,0.2-0.4,0.3l-0.1,0.1l0,0
			c-0.1,0.2,0,0.4,0.1,0.5C986.2,20.7,986.4,20.8,986.6,21.1z"/>
		<path class="st0" d="M989.5,15.5c0.1,0.1,0.2,0.4,0.3,0.6c0,0.1,0.1,0.1,0.1,0.2c0.1,0.2,0.1,0.3,0.1,0.5v0.1V17v0.1
			c0,0.3-0.1,0.6-0.2,0.9c-0.1,0.3-0.3,0.6-0.4,0.8c-0.1,0.2-0.2,0.4-0.2,0.4l0,0c0,0.2,0.1,0.4,0.2,0.7h0.1h0.2
			c0.2,0,0.5-0.1,0.6-0.1c0,0,0.2-0.1,0.2-0.2l0.1-0.1c0.2-0.2,0.4-0.4,0.6-0.6c0.3-0.2,0.6-0.3,0.8-0.4h0.1h0.1l0,0
			c0.2,0,0.4,0,0.5,0s0.1,0,0.2,0.1c0.1,0,0.1,0,0.2,0.1c0,0,0.1,0,0.1-0.1c0.3-0.3,0.4-0.6,0.5-0.8s0.1-0.4,0.1-0.6
			c0-0.2,0.1-0.3,0.2-0.4c0.1-0.1,1-0.6,2-0.6h0.1c0-0.1-0.1-0.2-0.1-0.3s0-0.2,0-0.3c-0.1,0-0.2-0.1-0.2-0.1
			c-0.4,0-0.8,0.1-1.4,0.5c-0.3,0.2-0.4,0.3-0.6,0.3c-0.2,0-0.6,0-1-0.1h-0.1c-0.9,0.8-1.7,1.6-2.4,2.5l-0.2-0.1
			c0.6-0.9,1.4-1.8,2.3-2.7c0-0.2-0.1-0.8,0-1.1c0-0.1,0.2-0.3,0.4-0.5c0.1-0.1,0.1-0.1,0.2-0.2c0.3-0.3,0.7-0.7,0.8-1.1
			c0-0.1,0.1-0.3,0.1-0.5c0-0.1-0.1-0.1-0.2-0.1c-0.6-0.1-1.3,0.2-1.7,0.4l-0.1,0.1c0,0.4-0.2,0.9-0.8,1.5c-0.3,0.3-0.8,0.4-1.1,0.5
			c-0.2,0-0.3,0.1-0.4,0.1c0,0-0.1,0-0.1,0.1l-0.1-0.1l0.1,0.1C989.4,15.1,989.3,15.3,989.5,15.5z"/>
		<path class="st0" d="M994.3,12.5c0,0.2,0,0.3,0,0.5v0.1c0,0,0,0,0,0.1v0.1c-0.1,0.3-0.2,0.5-0.5,0.8c-0.2,0.3-0.4,0.5-0.6,0.7
			c-0.3,0.3-0.3,0.3-0.3,0.3c0,0.2,0,0.5,0,0.7c0,0,0,0.1,0.1,0.1l0,0c0.3,0,0.6,0.1,0.8,0.1l0,0c0,0,0.2-0.1,0.3-0.2l0.2-0.1
			c0.2-0.1,0.4-0.2,0.7-0.3c0.4-0.1,0.6-0.2,0.9-0.2h0.1h0.1l0,0l0,0c0.1,0,0.1,0,0.2,0.1c0.1-0.1,0.1-0.2,0.2-0.2l0.1,0.2l0,0
			l-0.1-0.2c0.1,0,0.2-0.1,0.2-0.1c0.2,0,0.4,0,0.5,0c0.3,0,0.7,0,1-0.2s0.6-0.4,0.7-0.5c0.2-0.2,0.2-0.3,0.3-0.5v-0.2l0.3-0.1
			c0.1,0,0.5-0.1,1-0.2c-0.1,0-0.1-0.1-0.2-0.1c-0.5-0.1-1.1,0.1-1.5,0.2c-0.1,0-0.1,0-0.2,0.1c-0.2,0.1-0.3,0.1-0.5,0.1
			s-0.6-0.2-1-0.3l0,0l-0.8,0.4c-0.3,0.1-0.5,0.3-0.8,0.4c-0.1,0.1-0.3,0.2-0.4,0.2c-0.1,0.1-0.2,0.1-0.3,0.2
			c-0.3,0.2-0.5,0.3-0.8,0.5l-0.2-0.2c0.2-0.2,0.5-0.4,0.7-0.6c0.1-0.1,0.2-0.2,0.3-0.3s0.3-0.2,0.4-0.3c0.2-0.2,0.5-0.3,0.7-0.5
			l0.8-0.5c0-0.2,0.1-0.8,0.3-1c0.1-0.1,0.2-0.2,0.5-0.4h0.1c0.4-0.3,0.9-0.6,1.1-1c0.1-0.1,0.1-0.3,0.2-0.5c0-0.1,0-0.1-0.1-0.2
			c-0.8-0.3-1.6,0-1.7,0c0,0-0.1,0-0.1,0.1c0,0.2-0.1,0.4-0.3,0.7c-0.2,0.2-0.4,0.4-0.8,0.6c-0.4,0.2-0.8,0.2-1.2,0.2
			c-0.1,0-0.2,0-0.4,0l0,0c0,0,0,0-0.1,0h-0.1l0,0c-0.2,0.1-0.2,0.3-0.2,0.5c0,0.1,0.1,0.4,0.2,0.7
			C994.3,12.4,994.3,12.4,994.3,12.5z"/>
		<path class="st0" d="M1042.3,16.9L1042.3,16.9C1042.2,16.9,1042.2,16.9,1042.3,16.9h-0.2c-0.5-0.1-1-0.5-1.4-0.8
			c-0.1-0.1-0.2-0.1-0.2-0.2c-0.1-0.1-0.3-0.2-0.4-0.3l0,0c-0.2,0-0.5,0-0.8,0.1c0,0-0.1,0-0.1,0.1c0,0.2,0,0.5,0,0.7
			c0,0,0.1,0.2,0.2,0.3c0.5,0.6,0.7,1.1,0.7,1.5v0.1v0.1v0.1c0,0.2-0.1,0.3-0.1,0.4h0.1c0.2,0,0.3,0.1,0.4,0.3s0.2,0.5,0.3,0.8
			c0.1,0.3,0.1,0.7,0,1.2c0,0,0,0,0,0.1l0,0c0.2,0,0.3,0,0.4,0c0.3,0,0.7,0.2,0.9,0.6c0,0.1,0.1,0.2,0.1,0.3v0.1l0,0
			c0.2-0.4,0-1-0.1-1.3l0,0c-0.1-0.2-0.1-0.4-0.1-0.5c0-0.2,0.2-0.6,0.3-0.9l0,0l-0.2-0.3l-0.3-0.4c-0.4-0.6-0.9-1.3-1.6-2l0.2-0.2
			c0.8,0.7,1.3,1.3,1.8,1.9l0.3,0.4l0.2,0.4c0.2,0,0.9,0.1,1.1,0.3c0.1,0.1,0.2,0.2,0.4,0.5l0.1,0.2c0.3,0.4,0.6,0.9,1,1.2
			c0.1,0.1,0.3,0.2,0.5,0.2c0.1,0,0.2,0,0.2-0.1c0.1-0.3,0.2-0.6,0.2-0.9c0-0.2-0.1-0.5-0.1-0.7c0-0.1,0-0.1-0.1-0.1
			c-0.3-0.1-0.5-0.2-0.7-0.4s-0.4-0.5-0.7-0.8c-0.2-0.3-0.2-0.7-0.2-1v-0.1c0-0.1,0-0.2,0-0.3l0,0l0,0l0,0c0,0,0-0.1-0.1-0.1
			c-0.1-0.2-0.3-0.2-0.6-0.2c-0.2,0.1-0.4,0.1-0.7,0.2c-0.1,0-0.1,0-0.2,0C1042.7,16.9,1042.5,16.9,1042.3,16.9z"/>
		<path class="st0" d="M1045.7,22c-0.2-0.1-0.5-0.2-0.6-0.3l0,0l0,0c-0.4-0.3-0.8-0.8-1.1-1.2l-0.1-0.2c-0.2-0.3-0.3-0.3-0.3-0.4
			c-0.2-0.1-0.5-0.1-0.8-0.2c0,0-0.1,0-0.1,0.1l-0.1,0.2c-0.1,0.2-0.1,0.3-0.2,0.4c0,0,0.1,0.3,0.1,0.4c0.2,0.5,0.3,1.1,0.1,1.6v0.1
			v0.1h-0.1l0.1,0.1c-0.1,0.1-0.2,0.3-0.3,0.4c0,0-0.1,0.1-0.2,0.1l0,0c0,0.1,0,0.2-0.1,0.3c0,0.2,0,0.4,0,0.6v0.1
			c0.1,0.3,0.2,0.6,0.3,0.9c0.1,0.3,0.2,0.4,0.4,0.6c0.1,0.1,0.2,0.3,0.2,0.5s-0.1,0.6-0.3,0.9l0,0c0.1,0,0.2-0.1,0.2-0.1
			c0.2-0.1,0.3-0.3,0.3-0.5c0-0.1,0.1-0.2,0.1-0.3s0-0.2,0-0.3c0-0.3,0.1-0.5,0.1-0.6c0.1-0.1,0.3-0.4,0.6-0.6l0.1-0.1
			c-0.1-1.1-0.4-2.2-0.9-3.2l0.2-0.1c0.5,1.1,0.9,2.1,1.2,3.3c0.2,0.1,0.8,0.5,0.9,0.7c0.1,0.1,0.1,0.3,0.2,0.6l0.1,0.5
			c0,0.1,0,0.3,0.1,0.4c0.1,0.3,0.2,0.5,0.3,0.8c0.1,0.1,0.2,0.3,0.3,0.4c0.1,0,0.1,0,0.2,0c0.4-0.3,0.7-0.8,0.8-1.5v-0.1
			c-0.4-0.3-0.6-0.9-0.8-1.6c-0.1-0.5,0.1-0.9,0.2-1.2c0.1-0.1,0.1-0.3,0.1-0.4v-0.1l0,0c0-0.2-0.2-0.4-0.5-0.4
			c-0.2,0-0.4,0-0.7-0.1C1045.8,22,1045.7,22,1045.7,22z"/>
		<path class="st0" d="M1037.9,13.1L1037.9,13.1h-0.2c-0.6,0-1.2-0.2-1.6-0.4l-0.3-0.1c-0.1,0-0.3-0.1-0.4-0.1
			c-0.2,0-0.5,0.1-0.8,0.2c0,0,0,0.1-0.1,0.1c0,0.2,0.1,0.5,0.1,0.7c0,0,0.1,0.1,0.3,0.3c0.4,0.3,1,0.8,1.1,1.3v0.1v0.1l0,0
			c0,0.2,0,0.3,0,0.5v0.1c0.1,0.2,0.2,0.5,0.3,0.7v0.1c0.1-0.1,0.3-0.1,0.3-0.2c0.3-0.2,0.7-0.1,1,0.1c0.1,0.1,0.1,0.1,0.2,0.2
			c0,0.1,0,0.1,0.1,0.2c0,0.1,0.1,0.2,0.1,0.4c0.1,0.3,0.1,0.6,0.4,0.9s0.6,0.5,0.9,0.7c0.1-0.2,0.1-0.3,0.1-0.4
			c0-0.3-0.2-0.7-0.6-1.2l0,0c-0.2-0.2-0.3-0.4-0.3-0.5c0-0.2,0-0.5,0-0.9v-0.1c-0.8-0.7-1.8-1.5-2.8-2.1l0.1-0.2
			c1.1,0.6,2.1,1.3,3,2c0.2,0,0.9-0.1,1.1-0.1s0.3,0.2,0.6,0.4c0.1,0.1,0.2,0.1,0.2,0.2c0.4,0.3,0.8,0.6,1.2,0.7
			c0.2,0,0.4,0.1,0.5,0c0.1,0,0.1-0.1,0.1-0.1c0.1-0.7-0.4-1.4-0.5-1.6l-0.1-0.1c-0.5,0.1-1-0.2-1.6-0.7c-0.4-0.3-0.5-0.7-0.6-1
			c0-0.2-0.1-0.3-0.1-0.4c0,0,0-0.1-0.1-0.1l0.1-0.1l-0.1,0.1c-0.2-0.1-0.4-0.1-0.6,0s-0.4,0.2-0.6,0.3c-0.1,0-0.1,0.1-0.2,0.1
			C1038.4,13,1038.2,13.1,1037.9,13.1L1037.9,13.1z"/>
		<path class="st0" d="M1016,7.1L1016,7.1c-0.4,0.4-1.1,0.5-1.6,0.5c-0.1,0-0.2,0-0.2,0c-0.1,0-0.4,0.1-0.5,0.1
			c-0.1,0.1-0.3,0.3-0.5,0.6v0.1c0.2,0.2,0.4,0.4,0.6,0.5c0.1,0,0.3,0,0.4,0.1c0.8,0,1.4,0.2,1.8,0.5l0.1,0.1c0,0,0,0,0.1,0.1l0,0
			c0.1,0.1,0.2,0.3,0.3,0.4c0,0.1,0.1,0.1,0.1,0.2c0,0.1,0.1,0.2,0.1,0.2c0.3-0.1,0.5-0.2,0.6-0.3l0.1-0.2h0.3
			c0.5,0.1,1.1,0.3,1.6,0.8c0.1,0,0.1,0.1,0.2,0.1c0-0.1,0.1-0.2,0.1-0.2c0.1-0.3,0.5-0.5,0.8-0.5c0.1,0,0.2,0,0.3,0.1l0.1,0.1
			c0.1,0.1,0.2,0.1,0.3,0.2c0.1,0.1,0.2,0.2,0.3,0.2v-0.1c-0.1-0.2-0.2-0.3-0.3-0.4c-0.2-0.2-0.7-0.4-1.4-0.6
			c-0.3-0.1-0.5-0.1-0.6-0.2c-0.2-0.1-0.4-0.5-0.7-0.8c-1.2-0.1-2.5-0.1-3.6-0.2V8.3c1.2-0.1,2.4-0.1,3.7-0.1
			c0.1-0.1,0.6-0.6,0.8-0.7c0.1-0.1,0.3-0.1,0.7-0.1h0.2c0.5,0,1,0,1.4-0.2c0.1-0.1,0.3-0.2,0.4-0.3c0,0,0-0.1,0-0.2
			c-0.5-0.6-1.2-0.8-1.4-0.8h-0.1c-0.3,0.3-0.8,0.5-1.6,0.5c0,0,0,0-0.1,0c-0.4,0-0.8-0.3-1-0.5c-0.1-0.1-0.2-0.2-0.3-0.2h-0.1l0,0
			c-0.2,0-0.4,0.1-0.4,0.3c-0.1,0.2-0.1,0.4-0.3,0.6c0,0.1,0,0.1-0.1,0.2C1016.4,6.8,1016.2,7,1016,7.1L1016,7.1z"/>
		<path class="st0" d="M1021.8,7.4L1021.8,7.4L1021.8,7.4c-0.6,0.4-1.2,0.4-1.8,0.4h-0.2c-0.3,0-0.4,0-0.5,0
			c-0.1,0.1-0.4,0.3-0.6,0.5v0.1c0.2,0.2,0.4,0.4,0.5,0.6c0,0,0.3,0.1,0.4,0.1c0.5,0.1,1.3,0.3,1.7,0.7l0.1,0.1c0,0,0,0,0.1,0.1l0,0
			c0.1,0.2,0.2,0.3,0.3,0.4c0,0.1,0,0.1,0,0.2s0.1,0.2,0.1,0.3c0.7,0.1,1.1,0,1.4-0.3c0.1-0.1,0.3-0.1,0.5-0.1
			c0.7,0.2,1.2,0.6,1.5,1.1c0,0,0,0,0,0.1c0.1-0.1,0.1-0.2,0.2-0.3c0.2-0.2,0.5-0.4,0.8-0.4c-0.2-0.3-0.6-0.5-1.3-0.7
			c-0.3-0.1-0.5-0.2-0.6-0.3c-0.1-0.2-0.4-0.6-0.6-0.9c-1.2-0.3-2.5-0.5-3.6-0.6V8.3c1.2,0.1,2.4,0.2,3.7,0.4
			c0.2-0.1,0.7-0.5,0.9-0.6c0.1-0.1,0.4,0,0.7,0c0.1,0,0.2,0,0.2,0c0.5,0,1,0.1,1.4-0.1c0.1-0.1,0.3-0.1,0.4-0.3
			c0.1,0,0.1-0.1,0-0.2c-0.4-0.6-1-0.9-1.3-1h-0.1c-0.4,0.3-0.9,0.4-1.7,0.3c-0.4-0.1-0.7-0.3-1-0.6c-0.1-0.1-0.2-0.2-0.3-0.3h-0.1
			V5.8v0.1c-0.2,0-0.4,0.1-0.5,0.2s-0.2,0.4-0.4,0.6c0,0.1-0.1,0.1-0.1,0.2C1022.2,7.2,1022,7.3,1021.8,7.4L1021.8,7.4z"/>
		<path class="st0" d="M1027.5,8.5L1027.5,8.5c-0.1,0-0.1,0-0.1,0.1h-0.1c-0.5,0.2-1.2,0.2-1.7,0.1h-0.2c-0.1,0-0.4,0-0.5,0
			c-0.2,0.1-0.4,0.3-0.6,0.4c0,0,0,0,0,0.1c0.2,0.3,0.3,0.5,0.4,0.6l0,0c0,0,0.3,0.1,0.4,0.1l0,0c0.8,0.2,1.3,0.5,1.5,0.9v0.1
			c0,0,0,0,0,0.1l0,0c0.1,0.2,0.2,0.3,0.2,0.5l0,0c0,0.1,0.1,0.1,0.1,0.1c0.2,0.2,0.4,0.5,0.7,0.5c0.7,0.2,1.2,0.2,1.5,0
			c0.1-0.1,0.3-0.1,0.5,0s1,0.5,1.3,1.3c0.1,0,0.1,0,0.2-0.1c0,0,0.1,0,0.1-0.1l0,0v-0.1c0-0.2-0.1-0.3-0.1-0.4
			c-0.2-0.4-0.8-0.7-1.2-0.9c-0.3-0.1-0.5-0.2-0.5-0.4c-0.1-0.1-0.3-0.5-0.4-0.8c0-0.1,0-0.1-0.1-0.1l-0.9-0.3l-1.3-0.4l-1.3-0.4
			l0.1-0.2l1.3,0.3l1.3,0.3l0.9,0.3c0.2-0.1,0.8-0.4,1-0.5c0.1,0,0.4,0,0.7,0.1h0.1c0.5,0.1,1.1,0.3,1.6,0.2c0.2,0,0.3-0.1,0.5-0.2
			c0.1,0,0.1-0.1,0.1-0.2c-0.2-0.5-0.5-0.8-1.1-1.2h-0.1c-0.4,0.2-1,0.3-1.7,0c-0.4-0.1-0.7-0.4-0.9-0.7c-0.1-0.1-0.1-0.2-0.2-0.3
			c0,0,0,0-0.1-0.1c0,0-0.1,0-0.1-0.1l0,0c-0.2,0-0.4,0-0.5,0.2s-0.3,0.4-0.5,0.5c0,0.1-0.1,0.1-0.1,0.1
			C1027.8,8.3,1027.7,8.4,1027.5,8.5L1027.5,8.5z"/>
		<path class="st0" d="M1032.8,10.4L1032.8,10.4c-0.6,0.1-1.3,0-1.8-0.2h-0.1c-0.3-0.1-0.4-0.1-0.4-0.1l0,0
			c-0.2,0.1-0.4,0.2-0.7,0.3v0.1c0.1,0.2,0.2,0.5,0.3,0.7c0,0,0.3,0.1,0.4,0.2c0.6,0.3,1.1,0.6,1.4,1.1v0.1v0.1l0,0
			c0.1,0.1,0.1,0.3,0.1,0.4c0.2,0,0.4,0,0.5,0l-0.1,0.2l0,0l0.1-0.2c0.1,0,0.2,0.1,0.2,0.2c0.1,0.1,0.2,0.3,0.3,0.4
			c0.2,0.3,0.3,0.5,0.6,0.7c0.7,0.3,1.1,0.4,1.5,0.3c0.2-0.1,0.3,0,0.5,0.1c0.1,0.1,0.2,0.2,0.4,0.4l0,0c-0.1-0.3-0.4-0.7-0.9-1.1
			c-0.3-0.2-0.4-0.3-0.5-0.4c-0.1-0.2-0.2-0.6-0.2-1l0,0c-1.2-0.6-2.2-1.2-3.2-1.6l0.1-0.2c1,0.4,2.1,0.8,3.4,1.4
			c0.3-0.1,0.8-0.3,1.1-0.3c0.2,0,0.3,0.1,0.6,0.2h0.1c0.1,0,0.1,0.1,0.2,0.1c0.4,0.2,0.9,0.4,1.4,0.4c0.2,0,0.3,0,0.5-0.1
			c0.1,0,0.1-0.1,0.1-0.2c-0.1-0.7-0.7-1.3-0.9-1.4h-0.1c-0.4,0.2-1,0.1-1.7-0.3c-0.4-0.2-0.6-0.5-0.7-0.8l0,0
			c-0.1-0.1-0.1-0.3-0.2-0.3l-0.1-0.1l0,0c-0.2-0.1-0.4,0-0.5,0.1s-0.3,0.3-0.6,0.4c0,0.1-0.1,0.1-0.2,0.1
			C1033.2,10.2,1033,10.3,1032.8,10.4L1032.8,10.4z"/>
		<path class="st0" d="M1035.4,40.3L1035.4,40.3l0.1-0.2c0.2-0.5,0.8-0.9,1.2-1.3l0.1-0.1c0.1-0.1,0.3-0.3,0.3-0.3
			c0-0.2,0.1-0.4,0.1-0.7c0,0,0-0.1-0.1-0.1h-0.2c-0.2,0-0.4-0.1-0.5-0.1s-0.3,0.1-0.4,0.2c-0.5,0.3-1.2,0.5-1.8,0.4h-0.1h-0.1h-0.1
			c-0.2,0-0.3-0.1-0.5-0.2l-0.1-0.1c0,0.3-0.2,0.5-0.5,0.7c-0.1,0-0.2,0.1-0.2,0.1c-0.2,0-0.4,0-0.5,0c-0.3,0-0.7-0.1-1,0
			c-0.6,0.3-1,0.6-1.1,0.9c0,0.1-0.2,0.3-0.4,0.3c0,0-0.1,0-0.2,0c0.5,0.2,1.2-0.1,1.5-0.1c0.3-0.1,0.5-0.1,0.7-0.1s0.6,0.2,1,0.4
			l0,0c1.2-0.5,2.3-1,3.2-1.5l0.1,0.2c-0.9,0.6-1.9,1.2-3.1,1.8c-0.1,0.2-0.2,0.8-0.4,1c-0.1,0.1-0.3,0.2-0.6,0.4l-0.2,0.1
			c-0.4,0.2-0.9,0.5-1.1,0.8c-0.1,0.1-0.1,0.3-0.2,0.5c0,0.1,0,0.1,0.1,0.2c0.8,0.3,1.5,0.1,1.7,0.1h0.1c0.1-0.4,0.5-0.8,1.2-1.2
			c0.4-0.2,0.7-0.1,1.1-0.1h0.1c0.2,0,0.3,0,0.4,0h0.1l0.1,0.1l-0.1-0.1c0.2-0.1,0.3-0.3,0.2-0.4c0-0.2-0.1-0.4-0.1-0.7
			c0-0.1,0-0.1,0-0.2C1035.3,40.7,1035.4,40.5,1035.4,40.3L1035.4,40.3z"/>
		<path class="st0" d="M1029.8,41.5l-1.3,0.5l-0.9,0.3c-0.1,0.2-0.4,0.8-0.5,0.9c-0.1,0.1-0.3,0.2-0.6,0.3l-0.2,0.1
			c-0.4,0.2-1,0.4-1.2,0.7c-0.1,0.1-0.2,0.3-0.3,0.4c0,0.1,0,0.1,0.1,0.2c0.4,0.3,1,0.4,1.6,0.3h0.1c0.2-0.4,0.6-0.7,1.4-1
			c0.4-0.1,0.8,0,1.2,0.1c0.1,0,0.2,0.1,0.3,0.1h0.1h0.1c0.2-0.1,0.3-0.2,0.3-0.4s0-0.5,0-0.7c0-0.1,0-0.1,0-0.2
			c0-0.2,0.1-0.3,0.2-0.4c0-0.1,0-0.1,0.1-0.1v-0.1c0.3-0.5,0.9-0.8,1.3-1l0.2-0.1c0.1-0.1,0.3-0.2,0.3-0.2c0.1-0.1,0.1-0.4,0.2-0.7
			c0,0,0-0.1-0.1-0.1c-0.3-0.1-0.6-0.2-0.7-0.3c-0.1,0-0.3,0.1-0.4,0.1l0,0c-0.6,0.1-1.3,0.3-1.8,0.1h-0.1h-0.1l0,0
			c-0.2-0.1-0.3-0.2-0.5-0.3l-0.1-0.1c-0.3,0-0.6-0.1-0.9-0.2c0,0-0.1,0-0.1-0.1c0,0.1,0,0.2,0,0.3c0,0.4-0.3,0.7-0.6,0.8l-0.1-0.2
			l0,0v0.2c-0.1,0-0.2,0-0.2,0c-0.2,0-0.3-0.1-0.5-0.1c-0.3-0.1-0.6-0.2-0.9-0.1c-0.9,0.2-1.1,0.5-1.2,0.7c0.1,0.1,0.2,0.1,0.2,0.1
			c0.3,0.1,0.8,0.2,1.5,0.1c0.3,0,0.5-0.1,0.7,0s0.7,0.4,0.9,0.5l0,0l0.9-0.2l1.3-0.4c0.2-0.1,0.4-0.1,0.6-0.2
			c0.2-0.1,0.5-0.2,0.7-0.2l0.1,0.2c-0.3,0.1-0.5,0.2-0.8,0.3C1030.1,41.4,1029.9,41.5,1029.8,41.5z"/>
		<path class="st0" d="M1040.2,36.9c0.1-0.3,0.2-0.6,0.4-0.9c0.1-0.2,0.2-0.3,0.3-0.5c0.1-0.1,0.1-0.2,0.2-0.3s0.2-0.3,0.2-0.4
			c0-0.2-0.1-0.4-0.1-0.7l-0.1-0.1h-0.2c-0.2,0-0.4,0-0.6,0c0,0-0.2,0.2-0.3,0.2c-0.2,0.2-0.5,0.4-0.7,0.5c-0.3,0.2-0.6,0.3-0.9,0.3
			h-0.1h-0.1l0,0c-0.2,0-0.3,0-0.4-0.1c-0.1,0-0.2,0-0.2,0h-0.1c-0.3,0-0.6,0.1-0.9,0.3c-0.6,0.5-0.9,0.8-0.9,1.2
			c0,0.2-0.1,0.3-0.3,0.4c-0.1,0.1-0.4,0.2-0.8,0.3s-0.7,0.1-1,0c0,0.1,0,0.1,0.1,0.2c0.2,0.1,0.3,0.1,0.5,0.2
			c0.5,0.1,1.1-0.2,1.5-0.4c0.3-0.1,0.5-0.2,0.6-0.2c0.2,0,0.6,0.1,0.9,0.2h0.2c1-0.7,2-1.4,2.8-2.2l0.2,0.2
			c-0.8,0.8-1.7,1.6-2.6,2.4c0,0.3,0,0.8-0.1,1.1c-0.1,0.1-0.2,0.3-0.5,0.5l0,0c-0.4,0.3-0.9,0.7-1.1,1.1c-0.1,0.1-0.1,0.3-0.1,0.5
			c0,0.1,0.1,0.1,0.1,0.1c0.6,0.2,1.3,0,1.7-0.2c0,0,0.1,0,0.1-0.1c0-0.5,0.3-0.9,1-1.4c0.3-0.3,0.8-0.3,1.1-0.3
			c0.2,0,0.3,0,0.4-0.1c0,0,0.1,0,0.1-0.1l0,0c0.2-0.1,0.2-0.3,0.1-0.5c-0.1-0.1-0.2-0.4-0.2-0.7c0-0.1-0.1-0.1-0.1-0.2
			C1040.1,37.4,1040.1,37.2,1040.2,36.9L1040.2,36.9L1040.2,36.9z"/>
		<path class="st0" d="M1044,34.9L1044,34.9c0.2,0,0.3-0.1,0.4-0.1l0,0l0,0l0.1-0.1c0.1-0.2,0.1-0.4,0-0.5s-0.3-0.3-0.4-0.6
			c-0.1,0-0.1-0.1-0.1-0.2c-0.1-0.1-0.1-0.3-0.2-0.5v-0.1v-0.1v-0.1c0-0.3,0-0.6,0.1-1c0.1-0.3,0.2-0.6,0.2-0.9
			c0.1-0.2,0.1-0.4,0.1-0.4c-0.1-0.1-0.2-0.4-0.4-0.6h-0.1c-0.2,0.1-0.5,0.2-0.7,0.3c0,0-0.1,0.1-0.1,0.2c0,0.1-0.1,0.1-0.1,0.2
			h-0.1c-0.1,0.2-0.2,0.4-0.4,0.6c-0.3,0.3-0.5,0.4-0.7,0.5h-0.1c0,0,0,0-0.1,0h-0.1c-0.2,0-0.3,0-0.5,0c-0.1,0-0.1,0-0.2,0h-0.1
			c-0.1,0.3-0.1,0.5,0,0.7c0,0.1,0,0.3-0.1,0.5c-0.4,0.4-1.1,0.9-1.9,1h-0.1c0.1,0.1,0.1,0.2,0.1,0.3c0.1,0.3,0.1,0.6,0,0.8
			c0.2,0,0.3-0.1,0.5-0.2c0.3-0.2,0.5-0.3,0.6-0.4h0.1c0.2-0.2,0.3-0.3,0.5-0.3s0.6,0,1,0h0.1l0.3-0.3l0.3-0.4
			c0.5-0.6,1-1.3,1.4-2.1l0.2,0.1c-0.4,0.9-0.8,1.6-1.3,2.3l-0.3,0.4l-0.3,0.3c0,0.2,0.2,0.8,0.2,1.1c0,0.1-0.1,0.3-0.3,0.6
			c-0.1,0.1-0.1,0.2-0.2,0.3s-0.2,0.3-0.3,0.4c-0.2,0.3-0.3,0.5-0.3,0.7c0,0.1,0,0.3,0,0.5c0,0.1,0.1,0.1,0.2,0.1
			c0.7,0,1.3-0.4,1.6-0.6l0.1-0.1c-0.1-0.4,0.1-0.9,0.6-1.6C1043.3,35.1,1043.7,35,1044,34.9z"/>
		<path class="st0" d="M1046.8,29.3c0.1-0.1,0.2-0.2,0.3-0.3c0,0,0-0.1,0.1-0.1h0.1h-0.1c0-0.2-0.1-0.4-0.2-0.5
			c-0.2-0.1-0.4-0.2-0.6-0.4c-0.1,0-0.1-0.1-0.2-0.1c-0.1-0.1-0.2-0.2-0.4-0.4c0,0,0,0,0-0.1c0,0,0,0,0-0.1v-0.1
			c-0.2-0.3-0.3-0.6-0.3-0.9l-0.2-0.9c0-0.1-0.1-0.4-0.1-0.4c-0.1-0.1-0.4-0.3-0.7-0.4h-0.1l0,0c-0.2,0.2-0.4,0.4-0.5,0.5
			c0,0,0,0.3-0.1,0.4c0,0.2-0.1,0.5-0.2,0.8c-0.1,0.2-0.2,0.5-0.5,0.7h-0.1c0,0,0,0-0.1,0.1l0,0c-0.2,0.1-0.3,0.2-0.5,0.2
			c-0.1,0-0.1,0-0.2,0h-0.1c-0.1,0.2-0.3,0.3-0.4,0.5l-0.1,0.1c0.1,0.1,0.2,0.2,0.3,0.2c0.3,0.2,0.4,0.6,0.3,1L1042,29l0,0l0.2,0.1
			c0,0.1-0.1,0.2-0.1,0.3c-0.1,0.1-0.2,0.2-0.4,0.3l-0.1,0.1c-0.1,0.1-0.3,0.2-0.4,0.3s-0.3,0.2-0.3,0.4c-0.1,0.1-0.1,0.3-0.2,0.4
			c0,0,0.1,0.1,0.2,0.1c0.2,0,0.4,0,0.5-0.1c0.2-0.1,0.4-0.2,0.6-0.4c0.1-0.1,0.2-0.3,0.3-0.5l0.1-0.1c0-0.1,0.1-0.1,0.1-0.2
			c0.1-0.1,0.2-0.3,0.3-0.3c0.1-0.1,0.4-0.2,0.7-0.3c0.1,0,0.2-0.1,0.3-0.1c0.4-1.1,0.6-2.2,0.7-3.3h0.2c0,1.1-0.1,2.3-0.4,3.4
			c0.2,0.2,0.5,0.7,0.5,0.9c0,0.1,0,0.3-0.1,0.7c-0.1,0.2-0.1,0.4-0.2,0.6v0.2c-0.1,0.3-0.1,0.6-0.1,0.8s0.1,0.3,0.2,0.5
			c0,0.1,0.1,0.1,0.2,0.1c0.4-0.1,0.7-0.3,0.9-0.5c0.3-0.3,0.5-0.5,0.5-0.6v-0.1c-0.1-0.2-0.2-0.5-0.2-0.8s0.1-0.6,0.2-1
			C1046.2,29.8,1046.5,29.5,1046.8,29.3z"/>
		<path class="st0" d="M1000.2,43.6c0.2,0.1,0.4,0,0.5-0.1c0.2-0.2,0.3-0.4,0.5-0.5c0-0.1,0.1-0.1,0.1-0.1c0.1-0.1,0.3-0.2,0.5-0.2
			h0.1h0.1h0.1c0.5-0.2,1.1-0.1,1.7,0c0.1,0,0.2,0,0.3,0c0.3,0,0.4,0.1,0.5,0.1c0.2-0.1,0.4-0.2,0.7-0.4c0,0,0,0,0-0.1v-0.1
			c-0.1-0.2-0.2-0.4-0.3-0.6c0,0-0.3-0.1-0.4-0.2c-0.7-0.3-1.2-0.6-1.5-1c0,0,0,0,0-0.1l0,0c0,0,0,0,0-0.1l0,0
			c0-0.1-0.1-0.2-0.1-0.2s0,0-0.1,0s-0.2-0.1-0.3-0.1l0.2-0.3l-0.3,0.2c-0.1-0.1-0.2-0.2-0.3-0.3c-0.2-0.3-0.4-0.5-0.7-0.6
			c-0.7-0.2-1.2-0.3-1.5-0.1c-0.1,0.1-0.3,0.1-0.5,0c-0.1-0.1-0.4-0.3-0.6-0.5c-0.2-0.2-0.3-0.4-0.4-0.5l0,0c0,0.2,0,0.3,0.1,0.4
			c0.1,0.4,0.7,0.7,1,1l0.2,0.1c0.2,0.1,0.3,0.2,0.4,0.3c0.1,0.2,0.2,0.5,0.3,0.9v0.1c1.1,0.5,2.2,0.9,3.3,1.3l-0.1,0.2
			c-1.2-0.3-2.3-0.7-3.5-1.1c-0.2,0.1-0.8,0.4-1.1,0.4c-0.1,0-0.4,0-0.7-0.1c-0.5-0.2-1.1-0.4-1.6-0.3c-0.2,0-0.3,0.1-0.5,0.1
			c-0.1,0-0.1,0.1-0.1,0.2c0.1,0.3,0.2,0.5,0.5,0.8c0.2,0.2,0.3,0.3,0.5,0.5h0.1c0.2-0.1,0.4-0.1,0.6-0.1c0.3,0,0.7,0.1,1.1,0.2
			c0.4,0.2,0.7,0.5,0.8,0.8c0.1,0.1,0.2,0.3,0.2,0.3C1000.1,43.5,1000.1,43.6,1000.2,43.6L1000.2,43.6L1000.2,43.6z"/>
		<path class="st0" d="M992.1,39.2c0.1,0,0.2,0,0.3,0c0.4,0,0.8,0.2,1.4,0.5c0.4,0.2,0.6,0.6,0.7,0.9c0.1,0.1,0.1,0.2,0.1,0.3V41
			l0.1,0.1c0.2,0.1,0.4,0.1,0.6,0c0.1-0.1,0.3-0.3,0.6-0.4c0,0,0.1-0.1,0.2-0.1c0.2-0.1,0.3-0.1,0.5-0.2h0.1h0.1h0.1
			c0.6-0.1,1.4,0.2,1.9,0.4c0.2,0.1,0.4,0.1,0.4,0.1c0.2-0.1,0.5-0.2,0.7-0.3v-0.1c-0.1-0.3-0.2-0.6-0.2-0.7c0,0-0.2-0.1-0.3-0.2
			l-0.1-0.1c-0.4-0.3-1-0.7-1.2-1.2l-0.1-0.2c-0.1-0.2-0.1-0.3-0.1-0.5c0-0.1,0-0.1,0-0.2c0-0.1,0-0.2,0-0.3l-0.1,0.1
			c-0.3,0.2-0.7,0.2-1,0c-0.1,0-0.1-0.1-0.2-0.2c-0.1-0.1-0.2-0.3-0.2-0.5c-0.1-0.3-0.3-0.6-0.5-0.8c-0.6-0.4-1.1-0.6-1.5-0.5
			c-0.1,0-0.1,0-0.2,0c0.1,0.4,0.5,0.8,0.7,1.1l0,0c0.2,0.2,0.4,0.3,0.4,0.5c0.1,0.2,0.1,0.6,0.1,0.9v0.1c0.1,0.1,0.2,0.1,0.3,0.2
			c0.2,0.1,0.3,0.2,0.5,0.3c0.9,0.6,1.6,1,2.3,1.3l-0.1,0.2c-0.7-0.3-1.5-0.7-2.4-1.2c-0.2-0.1-0.4-0.2-0.5-0.3s-0.2-0.1-0.3-0.2
			c-0.2,0.1-0.9,0.2-1.1,0.2c-0.1,0-0.3-0.1-0.6-0.3c-0.5-0.3-1.1-0.6-1.5-0.7c-0.2,0-0.3,0-0.5,0c-0.1,0-0.1,0.1-0.1,0.2l0,0
			C991.3,38.3,991.8,38.8,992.1,39.2C992.1,39.1,992.1,39.2,992.1,39.2z"/>
		<path class="st0" d="M987.8,34.8c0.5,0,1,0.3,1.5,0.9c0.3,0.3,0.4,0.7,0.4,1c0,0.2,0.1,0.3,0.1,0.4c0,0,0,0.1,0.1,0.1l0,0
			c0.1,0.1,0.4,0.2,0.6,0.1c0.2-0.1,0.4-0.2,0.7-0.3c0.1,0,0.1-0.1,0.2-0.1c0.2,0,0.5-0.1,0.7,0h0.1l0,0l0,0c0.3,0,0.7,0.2,0.9,0.3
			s0.4,0.2,0.5,0.3s0.2,0.1,0.3,0.2c0.1,0.1,0.3,0.2,0.4,0.2l0,0c0.2,0,0.5-0.1,0.8-0.1c0,0,0,0,0-0.1s0-0.2,0-0.2
			c0-0.2,0-0.4,0-0.5c0,0-0.2-0.2-0.3-0.3c-0.2-0.2-0.4-0.4-0.6-0.6c-0.2-0.3-0.3-0.5-0.4-0.8v-0.1v-0.1l0,0c0-0.1,0-0.1,0-0.2
			c-0.1-0.1-0.2-0.3-0.3-0.5c-0.2-0.4-0.3-0.7-0.3-1.1l0,0c0,0-0.1,0-0.1-0.1c-0.1,0-0.2,0-0.2,0.1c-0.3,0.1-0.7,0-1-0.3l0.2-0.1
			l0,0l-0.2,0.1c-0.1-0.1-0.1-0.2-0.1-0.3c0-0.2-0.1-0.3-0.1-0.5v-0.1c0-0.3,0-0.6-0.2-0.9l0,0c-0.1,0-0.2,0-0.2,0.1
			c-0.1,0.1-0.2,0.3-0.2,0.4c0,0.2,0,0.4,0.1,0.6s0.2,0.4,0.3,0.6l0.1,0.1c0.1,0.2,0.2,0.3,0.2,0.5s-0.1,0.5-0.1,0.8
			c0,0.1,0,0.2-0.1,0.2c0.7,0.9,1.5,1.7,2.5,2.4l-0.2,0.2c-1-0.7-1.9-1.5-2.7-2.3c-0.3,0-0.9,0-1.1-0.1c-0.1,0-0.3-0.2-0.5-0.4
			s-0.4-0.4-0.6-0.6c-0.2-0.2-0.4-0.4-0.7-0.5c-0.2-0.1-0.3-0.1-0.5-0.1c-0.1,0-0.1,0-0.2,0.1C987.3,33.8,987.5,34.4,987.8,34.8
			C987.7,34.8,987.8,34.8,987.8,34.8z"/>
		<path class="st0" d="M986.2,32.3c0.1,0.2,0.3,0.3,0.5,0.3s0.4,0,0.7,0h0.1c0,0,0,0,0.1,0c0.2,0,0.4,0.1,0.5,0.1h0.1h0.1h0.1
			c0.3,0.1,0.6,0.3,0.8,0.5s0.4,0.4,0.6,0.6l0,0c0.1,0.1,0.3,0.3,0.3,0.3c0.2,0,0.5,0.1,0.8,0.1c0,0,0,0,0.1-0.1V34
			c0.1-0.2,0.1-0.5,0.1-0.6l0,0c0-0.1-0.1-0.2-0.2-0.3c-0.1-0.3-0.3-0.5-0.4-0.8c-0.1-0.3-0.1-0.6-0.1-0.9v-0.1v-0.1l0,0
			c0.1-0.2,0.1-0.3,0.2-0.4c0-0.1,0.1-0.1,0.1-0.1c0-0.1,0.1-0.1,0.1-0.1c-0.1-0.1-0.2-0.3-0.3-0.4c-0.2-0.2-0.4-0.3-0.6-0.4
			c-0.2-0.1-0.3-0.2-0.3-0.4c-0.1-0.3-0.1-0.6-0.1-0.9c0-0.4,0.1-0.8,0.4-1.2l0.1-0.1l0,0c-0.1-0.1-0.3-0.1-0.4-0.1
			c-0.1,0-0.1-0.1-0.2-0.1c-0.1,0.1-0.3,0.2-0.3,0.3c-0.1,0.1-0.1,0.2-0.1,0.3s0,0.2-0.1,0.3c0,0.3,0,0.5,0,0.7c0,0.3,0.1,0.5,0,0.6
			c-0.1,0.2-0.3,0.5-0.5,0.8l-0.1,0.1c0.4,1,0.9,2,1.5,3l-0.2,0.1c-0.7-1-1.4-2-1.8-3c-0.2-0.1-0.8-0.3-1-0.5
			c-0.1-0.1-0.2-0.3-0.3-0.6c-0.1-0.1-0.1-0.2-0.2-0.4c-0.1-0.1-0.1-0.3-0.2-0.4c-0.1-0.1-0.1-0.3-0.2-0.4c-0.1-0.1-0.1-0.2-0.2-0.3
			c-0.1-0.1-0.3-0.2-0.4-0.3c-0.1,0-0.2,0-0.2,0c-0.2,0.3-0.3,0.6-0.4,0.9c-0.1,0.3-0.1,0.6,0,0.8c0,0.1,0,0.1,0,0.1
			c0.2,0.1,0.4,0.3,0.6,0.5c0.1,0.1,0.2,0.3,0.2,0.4c0.1,0.2,0.2,0.3,0.2,0.5c0.1,0.2,0.1,0.4,0.1,0.6c0,0.2,0,0.4-0.1,0.5
			c0,0.2-0.1,0.3-0.1,0.4C986.1,32.2,986.2,32.3,986.2,32.3l-0.1,0.1L986.2,32.3z"/>
		<path class="st0" d="M985,26.7c0.2,0,0.4,0.1,0.7,0.3c0.1,0,0.1,0,0.2,0.1c0.1,0.1,0.3,0.2,0.4,0.3l0.1,0.1l0.1,0.1
			c0.1,0.1,0.2,0.2,0.3,0.4s0.2,0.3,0.2,0.4c0.1,0.1,0.1,0.3,0.2,0.4c0.1,0.1,0.1,0.3,0.2,0.4c0.1,0.3,0.2,0.4,0.2,0.4l0,0l0,0
			c0.1,0.1,0.4,0.2,0.7,0.3h0.1c0.2-0.2,0.3-0.5,0.4-0.6l0,0c0,0,0-0.1,0-0.4c0-0.2-0.1-0.5,0-0.8c0-0.2,0-0.3,0.1-0.4
			c0.1-0.2,0.1-0.3,0.2-0.4l0.1-0.1l0,0l0.1-0.1c0.1-0.1,0.2-0.2,0.3-0.2c-0.1-0.1-0.1-0.3-0.1-0.5c0-0.1,0-0.2,0-0.3l0,0l0.1-0.1
			c0.1-0.1,0.1-0.2,0.2-0.4c0.1-0.2,0.2-0.3,0.3-0.5s0.2-0.4,0.2-0.5v-0.2c0-0.3,0.1-0.6,0-0.8c0-0.3-0.1-0.5-0.2-0.6
			c-0.1,0-0.1,0-0.2,0.1c-0.4,0.2-0.7,0.8-0.7,1.1v0.1c-0.1,0.2-0.1,0.4-0.2,0.5c-0.1,0.1-0.5,0.3-0.7,0.5c-0.1,0-0.1,0.1-0.2,0.1
			l-0.1,0.8c0,1,0.1,2,0.2,2.7l0.2,0.8L988,29c-0.6-1.2-0.5-3.3-0.4-3.7c-0.2-0.2-0.6-0.6-0.7-0.8c-0.1-0.1-0.1-0.3,0-0.7
			c0-0.1,0-0.2,0-0.4c0-0.4,0.1-0.9-0.1-1.3c-0.1-0.1-0.1-0.3-0.2-0.4c0-0.1-0.1-0.1-0.2,0c-0.1,0.1-0.3,0.2-0.4,0.3
			c-0.1,0.1-0.2,0.2-0.3,0.4c-0.2,0.2-0.3,0.5-0.4,0.7c0,0.1,0,0.1,0,0.1c0.3,0.3,0.4,0.9,0.4,1.7c0,0.4-0.3,0.8-0.5,1.1
			c-0.1,0.1-0.1,0.2-0.2,0.3l0,0c0,0,0,0,0,0.1v0.1l0,0C984.6,26.4,984.8,26.6,985,26.7z"/>
		<path class="st0" d="M1002.8,44.4C1002.8,44.5,1002.9,44.4,1002.8,44.4c0.3-0.2,0.6-0.2,1-0.2c0.2,0,0.5,0,0.8,0.1
			c0.4,0.1,0.7,0.4,0.9,0.6c0.1,0.1,0.2,0.2,0.3,0.3h0.1l0,0c0.2,0,0.4,0,0.5-0.2c0.1-0.1,0.2-0.3,0.4-0.6c0-0.1,0.1-0.1,0.1-0.2
			c0.2-0.2,0.4-0.3,0.5-0.4l0,0l0,0c0.5-0.2,1.2-0.2,1.7-0.2h0.2c0.1,0,0.4,0,0.5,0l0,0c0.1-0.1,0.3-0.3,0.6-0.5V43
			c-0.2-0.3-0.3-0.5-0.4-0.6c0,0-0.3-0.1-0.4-0.1c-0.5-0.1-1.2-0.4-1.6-0.8v-0.1c0,0,0,0-0.1-0.1l0,0c-0.1-0.2-0.2-0.3-0.2-0.4
			c0-0.1,0-0.1,0-0.2c0-0.1,0-0.2,0-0.2c-0.1-0.1-0.3-0.2-0.4-0.2c-0.7-0.1-1.1-0.1-1.4,0.2c-0.1,0.1-0.3,0.1-0.5,0s-1-0.4-1.5-1.2
			v-0.1c-0.1,0.1-0.2,0.2-0.2,0.3c-0.1,0.1-0.2,0.2-0.4,0.3v0.1c0.2,0.4,0.8,0.6,1.2,0.8c0.3,0.1,0.5,0.2,0.6,0.3
			c0.1,0.2,0.3,0.6,0.5,0.9l0,0c1.2,0.4,2.4,0.6,3.5,0.8v0.2c-1.1-0.1-2.4-0.3-3.6-0.6c-0.2,0.1-0.7,0.5-1,0.5c-0.1,0-0.4,0-0.7,0
			c-0.1,0-0.2,0-0.3,0c-0.5-0.1-1-0.2-1.4,0c-0.2,0.1-0.3,0.1-0.5,0.2c-0.1,0-0.1,0.1,0,0.2C1001.8,43.8,1002.2,44.1,1002.8,44.4z"
			/>
		<path class="st0" d="M1115.8,15.3l-9.5,5.1l-1.9,5c-0.6-0.1-1.2,0-1.6,0.4c-0.3,0.3-0.5,0.8-0.5,1.2l-1.3,1.3l0,0l-17.9,17.9
			c-0.1-1.8-0.1-3.5-0.2-5.2c-0.3-10.6-0.8-19.7-1-24l0,0l0,0l0,0c0-0.6-0.1-1.1-0.1-1.6l0,0l1.9-1.9c0.4,0,0.9-0.2,1.2-0.5
			c0.4-0.4,0.6-1,0.4-1.6l5-1.9l5.1-9.5l-9.5,5.1l-1.9,5c-0.6-0.1-1.2,0-1.6,0.4c-0.3,0.3-0.5,0.8-0.5,1.2l-1.9,1.9l-31.3,31.3
			c-0.1-0.4-0.3-0.7-0.4-1.1c-0.1-0.3-0.4-0.6-0.7-0.7c-0.3-0.1-0.7-0.1-0.9,0.1c-0.4,0.3-0.9,0.6-1.5,0.9
			c-3.3,2.1-8.8,5.5-13.7,5.5c-3.8,0-7.6-1.4-10.9-4.1c0.3-0.2,0.7-0.4,1.3-0.5c0.4-0.1,0.8,0.1,1.1,0.2c0.1,0.1,0.3,0.1,0.4,0.2
			h0.1l0,0c0.2,0,0.3-0.2,0.4-0.4c0-0.2,0.1-0.4,0.2-0.7c0-0.1,0-0.1,0-0.2c0.1-0.2,0.2-0.4,0.3-0.5v-0.1c0.4-0.4,1-0.6,1.4-0.8
			l0.2-0.1c0.1,0,0.4-0.1,0.4-0.2c0.1-0.2,0.2-0.4,0.3-0.6v-0.1l-0.1-0.1c-0.2-0.1-0.4-0.3-0.6-0.3c-0.1,0-0.3,0-0.4,0
			c-0.8,0.1-1.4,0.1-1.8-0.1l0,0l0,0c0,0,0,0-0.1,0l0,0c-0.1-0.1-0.2-0.1-0.3-0.2h-0.1c-0.5,0-1.2-0.1-1.7-0.4
			c-0.1,0-0.2,0.1-0.3,0.1c0,0,0,0,0,0.1c-0.1,0.4-0.4,0.6-0.7,0.7c-0.1,0-0.2,0-0.3,0h-0.1c-0.1,0-0.2-0.1-0.3-0.2
			c-0.3-0.1-0.6-0.3-0.9-0.3c-0.2,0-0.4,0.1-0.6,0.1l0,0c0,0.1-0.1,0.1,0,0.2c0.1,0.1,0.2,0.3,0.3,0.3c0.4,0.3,1.2,0.3,1.5,0.3
			s0.5,0,0.7,0.1s0.5,0.4,0.8,0.6l0.1,0.1c1.2-0.1,2.4-0.3,3.6-0.5l0.1,0.2c-1.2,0.3-2.4,0.6-3.6,0.8c-0.1,0.2-0.5,0.7-0.7,0.9
			c-0.1,0.1-0.3,0.1-0.7,0.2h-0.2c-0.3,0.1-0.7,0.2-1,0.3c-0.1-0.1-0.2-0.2-0.4-0.3c0.4-0.2,0.9-0.3,1.3-0.4h0.2
			c0.1,0,0.4-0.1,0.4-0.1c0.1-0.1,0.3-0.4,0.4-0.6v-0.1c-0.3-0.2-0.5-0.4-0.6-0.5c-0.1,0-0.4,0-0.4,0c-0.8,0-1.4-0.1-1.8-0.4
			c0,0,0,0-0.1,0c0,0-0.1,0-0.1-0.1l0,0c-0.2-0.1-0.3-0.2-0.4-0.4c0-0.1-0.1-0.1-0.1-0.2v-0.1c-0.1,0.1-0.2,0.1-0.2,0.2
			c-0.1,0.1-0.3,0.2-0.5,0.2c-0.1,0-0.4-0.1-0.7-0.1c0,0,0-0.1-0.1-0.1c-0.2-0.2-0.5-0.4-0.8-0.4c-0.1,0-0.1,0-0.2,0.1h-0.1
			c0,0,0,0,0,0.1c-0.2,0.1-0.3,0.2-0.4,0.3s-0.1,0.2-0.2,0.2s-0.1,0-0.2,0l0,0c-0.1,0-0.2,0-0.3-0.1c-0.2-0.1-0.3-0.2-0.4-0.3
			c-0.2-0.1-0.4-0.3-0.6-0.3c0,0-0.1,0-0.1,0.1c-0.1,0.1-0.1,0.1,0,0.2c0.1,0.1,0.2,0.3,0.3,0.4c0.2,0.2,0.5,0.3,1,0.4
			c-0.1,0.1-0.2,0.3-0.3,0.4c-0.4-0.1-0.7-0.2-0.9-0.4l-0.1-0.1c0,0,0,0-0.1-0.1l0,0l0,0c-0.1-0.1-0.2-0.2-0.3-0.4
			c0-0.1,0-0.1-0.1-0.2c0-0.1-0.1-0.2-0.1-0.3c-0.5,0-0.8,0.1-1,0.3c-0.1,0.1-0.3,0.2-0.5,0.1c-0.2,0-1-0.3-1.6-1c0,0,0,0-0.1-0.1
			c-0.1,0.1-0.1,0.2-0.2,0.3c-0.2,0.3-0.5,0.5-0.9,0.4V41l0,0v0.2c-0.1,0-0.2,0-0.2-0.1l-0.1-0.1c0,0,0,0.1,0.1,0.1
			c0.2,0.3,0.7,0.5,1.4,0.6c0.3,0.1,0.5,0.1,0.6,0.2c0.2,0.2,0.5,0.6,0.6,0.8c0.1,0,0.2,0,0.3,0c0.2,0,0.4,0.1,0.6,0.1l1.3,0.1h0.5
			c-0.1,0.1-0.2,0.2-0.3,0.3h-0.3l-1.4-0.1c-0.2,0-0.5,0-0.7,0h-0.3c-0.3,0.2-0.7,0.6-0.9,0.7c-0.1,0.1-0.4,0.1-0.7,0h-0.2
			c-0.5,0-1.1,0-1.4,0.2c-0.1,0.1-0.3,0.2-0.4,0.3c0,0-0.1,0.1,0,0.2c0.4,0.6,1.1,0.8,1.3,0.9h0.1c0.3-0.3,0.7-0.4,1.3-0.4
			c0.1,0,0.2,0,0.4,0c0.3,0,0.6,0.2,0.8,0.4c-3.4,2.7-7.1,4.2-11,4.2c-4.9,0-10.4-3.4-13.7-5.5c-0.6-0.3-1.1-0.7-1.5-0.9
			c-0.3-0.2-0.6-0.2-0.9-0.1c-0.3,0.1-0.6,0.4-0.7,0.7c-0.1,0.4-0.3,0.7-0.4,1.1l-30.5-31.1l-1.9-1.9c0-0.4-0.2-0.9-0.5-1.2
			c-0.4-0.4-1-0.6-1.6-0.4l-1.9-5l-9.5-5.1l5.1,9.5l5,1.9c-0.1,0.6,0,1.2,0.4,1.6c0.3,0.3,0.8,0.5,1.2,0.5l1.9,1.9l0,0
			c0,0.4,0,0.9-0.1,1.6l0,0l0,0l0,0c-0.2,4.3-0.6,13.4-1,24c-0.1,1.7-0.1,3.5-0.2,5.2l-17.6-18l0,0l-1.3-1.3c0-0.4-0.2-0.9-0.5-1.2
			c-0.4-0.4-1.1-0.6-1.6-0.4l-1.9-5l-9.5-5.1l5.1,9.5l5.1,1.9c-0.1,0.6,0,1.2,0.4,1.6c0.3,0.3,0.8,0.5,1.2,0.5l1.3,1.3
			c0,0.7,0,3.4,0,7.6l0,0c-0.1,17.3,0,59.5,1.8,89.2l0.5-0.3c-2.2-35.6-1.8-89.1-1.8-95.9l18.9,18.9c0,0.4,0,0.8,0,1.3l0,0l0,0
			c0,0.2,0,0.3,0,0.5c-0.2,7.6-0.3,14.4-0.3,20.3l0,0c0,2.2,0,4.3,0,6.3l0,0l0,0l0,0C948.5,88,949,95,949.7,99c0,0.1,0,0.1,0,0.2
			c0,0.2,0.1,0.3,0.1,0.4c0,0.1,0,0.2,0.1,0.3c0.4,1.6,1,3.2,1.9,4.9c0.1,3.3,0.4,6.7,0.6,10l0,0v0.1c0.2,2.8,0.5,5.7,0.8,8.5h0.1
			l0,0h-0.1c0.1,0.8,0.2,1.6,0.3,2.5c0.2,1.8,0.5,3.7,0.9,5.5c-0.4-1.8-0.7-3.6-0.9-5.5c-0.1-0.8-0.2-1.6-0.3-2.5l-10.2,4.2
			c-0.2-2.4-0.4-4.8-0.5-7.2l-0.3,0.2c0.1,1.4,0.1,2.9,0.2,4.3l-10.8,3.7c0-0.6-0.1-1.3-0.1-1.9L931,127c0,0.6,0.1,1.2,0.1,1.8
			l0.5-0.2l0,0l-0.5,0.2c0.2,3.2,0.4,6.1,0.7,8.9c0,0.1,0,0.3,0,0.4c0,0.4,0.1,0.8,0.1,1c2.4,22.1,18.6,39.3,38.6,41.8l0,0
			c1.7,0.2,3.4,0.3,5.2,0.3c0.2,0,0.5,0,0.7,0l0,0c14.2-0.3,27.2-8,35.2-20.3c2.2,1.6,3.4,3,3.4,3c0.2,0.2,0.5,0.4,0.8,0.4
			s0.6-0.2,0.8-0.4c0,0,1.1-1.4,3.4-3c8,12.4,21,20.1,35.2,20.3l0,0c0.2,0,0.5,0,0.7,0c1.8,0,3.5-0.1,5.2-0.3l0,0
			c20-2.6,36.2-19.7,38.6-41.8c0-0.3,0.1-0.7,0.1-1c0-0.1,0-0.3,0-0.4c0.3-2.8,0.5-5.8,0.7-8.9l-0.5-0.2l0,0l0.5,0.2
			c0-0.6,0.1-1.2,0.1-1.8l-0.5-0.3c0,0.6-0.1,1.3-0.1,1.9l-10.8-3.7c0.1-1.4,0.2-2.9,0.2-4.3l-0.3-0.2c-0.1,2.4-0.3,4.8-0.5,7.2
			l-10.2-4.2c-0.1,0.8-0.2,1.6-0.3,2.5c-0.2,1.8-0.5,3.7-0.9,5.5c0.4-1.8,0.7-3.6,0.9-5.5c0.1-0.8,0.2-1.6,0.3-2.5h-0.1l0,0h0.1
			c0.3-2.8,0.6-5.7,0.8-8.5v-0.1l0,0c0.3-3.3,0.5-6.7,0.6-10c0.9-1.7,1.6-3.3,1.9-4.9c0-0.1,0-0.2,0.1-0.3c0-0.1,0.1-0.3,0.1-0.4
			c0-0.1,0-0.1,0-0.2c0.7-4,1.2-11,1.3-20.9l0,0l0,0l0,0c0-2,0-4.1,0-6.3l0,0c0-6-0.1-12.7-0.3-20.3c0-0.2,0-0.3,0-0.5l0,0l0,0
			c0-0.4,0-0.8,0-1.3l18.9-18.9c0.1,6.8,0.4,60.4-1.8,95.9l0.5,0.3c1.9-29.6,1.9-71.9,1.8-89.2l0,0c0-4.2,0-6.9,0-7.6l1.3-1.3
			c0.4,0,0.9-0.2,1.2-0.5c0.4-0.4,0.6-1,0.4-1.6l5.1-1.9L1115.8,15.3z M929.3,37.5c0.1-3.2,0.1-5.7,0.2-7.3l0,0
			C929.4,31.8,929.3,34.2,929.3,37.5z M929.4,30L929.4,30L929.4,30L929.4,30L929.4,30z M1080.9,16.5L1080.9,16.5
			c0.2,0.1,0.3,0.2,0.5,0.3l0,0l0,0l0,0l0,0c0.1,2,0.2,5.3,0.4,9.3c0,0.1,0,0.2,0,0.4c0,0.3,0,0.6,0,1c0,0.2,0,0.5,0,0.7
			c0,0.3,0,0.6,0,0.9s0,0.7,0,1c0,0.2,0,0.4,0,0.6c0,0.4,0,0.9,0.1,1.4c0,0.2,0,0.3,0,0.5c0,0.5,0,1,0.1,1.5c0,0.2,0,0.3,0,0.5
			c0,0.5,0,1.1,0.1,1.6c0,0.2,0,0.3,0,0.5c0,0.6,0,1.2,0.1,1.8c0,0.1,0,0.2,0,0.3l0,0c0,0.7,0,1.5,0.1,2.2c-0.3,0-0.7,0-1,0
			c-1.6,0-3.1,0.3-4.5,1l0,0l0,0l4.6-25.1C1081.3,16.7,1081.1,16.6,1080.9,16.5l-4.7,25.7c0,0,0.1,0,0.1-0.1c0,0-0.1,0-0.1,0.1
			l-1.2,6.3c-3.7,4.7-7.7,9.2-11.8,13.5c-5.5-3.7-10.4-9.1-13.3-14.6L1080.9,16.5z M1032,52.1c5.5,0,11.3-3.6,14.7-5.8
			c0.1-0.1,0.2-0.1,0.3-0.2c2.7,6.8,8.6,13.6,15.4,18c-3.4,3.4-6.7,9.3-8.5,15.6c-2.2,7.4-2.2,14.2-0.1,19.6
			c-0.8-0.2-1.7-0.3-2.6-0.4c-0.9-0.1-1.7-0.8-2.6-0.9c-0.9-0.1-1.8,0.3-2.8,0.3c-0.9-0.1-1.7-1.1-2.7-1.1c-0.9-0.1-1.8-0.2-2.8-0.2
			c-0.6,0-1.2,0.3-1.9,0.5c-0.2-0.1-0.5-0.2-0.7-0.3s-0.4-0.2-0.6-0.4c-0.1-0.1-0.2-0.2-0.2-0.4l0,0c0-0.1,0-0.1,0-0.2
			c0-0.1,0-0.2,0-0.3c-0.1-1.9-0.3-9.3-0.3-12.4c0-0.2,0.1-0.4,0.2-0.5l1.1-1.3c0.1,0.1,0.4,0.3,0.5,0.4c0.1,0.2,0.2,0.4,0.2,0.6
			c0.1,0.6,0,1.3,0.7,1.9c0,0,0,0,0.1,0.1c0.6,0.6,1.5,0.7,2.1,0.7c0.5,0,0.9-0.1,0.9-0.1s0-0.4-0.1-1c-0.1-0.7-0.4-1.5-1.1-2
			c0,0-0.1,0-0.1-0.1c-0.7-0.6-1.3-0.4-1.9-0.3c-0.2,0-0.4,0-0.7-0.1l-0.5-0.4v-0.1c0,0,0.1,0,0.2-0.1c0.3-0.1,2.5-1.4,2.8-1.5
			l0.6,0.5c0.1,0.2,0.2,0.4,0.2,0.6c0.1,0.6,0,1.3,0.7,1.9c0,0,0,0,0.1,0.1c0.6,0.5,1.5,0.7,2.1,0.7c0.5,0,0.9-0.1,0.9-0.1
			s0-0.4-0.1-1c-0.2-0.7-0.5-1.5-1.1-2c0,0-0.1,0-0.1-0.1c-0.7-0.6-1.3-0.3-1.9-0.3c-0.2,0-0.4,0-0.7-0.1c-0.1-0.1-0.3-0.3-0.4-0.4
			c0.5-0.2,2.9-1.4,3.4-1.7l0.9,0.7c0.1,0.2,0.2,0.4,0.2,0.6c0.1,0.6,0,1.3,0.7,1.9c0,0,0,0,0.1,0.1c0.6,0.5,1.5,0.7,2.1,0.7
			c0.5,0,0.9-0.1,0.9-0.1l0,0c0,0,0-0.4-0.1-1c-0.2-0.6-0.5-1.5-1.1-2c0,0-0.1,0-0.1-0.1c-0.7-0.6-1.3-0.3-1.9-0.3
			c-0.2,0-0.4,0-0.6-0.1c-0.2-0.2-0.7-0.6-0.8-0.7l1.5-1.2c0.1-0.1,0.2-0.1,0.4-0.1l0.7,0.2c0.1,0.1,0.2,0.3,0.3,0.5
			c0.3,0.6,0.4,1.2,1.3,1.6h0.1c0.8,0.3,1.6,0.1,2.2-0.1c0.5-0.2,0.8-0.4,0.8-0.4l0,0c0,0-0.2-0.4-0.4-0.9c-0.4-0.6-0.9-1.3-1.7-1.6
			h-0.1c-0.2-0.1-0.4-0.1-0.6-0.1c-0.5,0-0.9,0.3-1.3,0.5c-0.2,0.1-0.3,0.1-0.5,0.1c-0.2-0.1-0.5-0.2-0.7-0.3l1.3-0.8l0.6-0.5
			l0.8-0.2c0.2,0,0.3,0.1,0.5,0.1c0.6,0.3,1.1,0.7,2,0.4h0.1c0.8-0.3,1.3-0.9,1.7-1.4c0.3-0.4,0.4-0.8,0.4-0.8s-0.4-0.2-0.9-0.4
			c-0.4-0.1-0.9-0.3-1.5-0.3c-0.3,0-0.6,0-0.8,0.1h-0.1c-0.9,0.3-1,0.9-1.3,1.5c-0.1,0.1-0.2,0.3-0.3,0.4l-0.4,0.1
			c-0.2,0-0.5-0.1-0.5-0.4c0-0.1,0-0.2,0-0.2c0-0.1,0.1-0.3,0.1-0.4c0.2-0.2,0.3-0.4,0.5-0.5c0.6-0.4,1.3-0.7,1.6-1.6v-0.1
			c0.2-0.9-0.1-1.8-0.4-2.4c-0.3-0.5-0.5-0.9-0.5-0.9l0,0c0,0-0.4,0.2-0.9,0.6c-0.6,0.5-1.3,1.2-1.5,2.1v0.1c-0.2,1,0.3,1.5,0.7,2
			c0.1,0.2,0.2,0.4,0.2,0.6l-0.2,0.8c-0.1,0.2-0.2,0.4-0.4,0.6c-0.6,0.5-1.9,1.5-1.9,1.5l-1.5,1.1l-0.1-0.3c0.2-0.2,0.3-0.4,0.5-0.5
			c0.6-0.4,1.3-0.7,1.6-1.7v-0.1c0.2-0.9-0.1-1.8-0.4-2.4c-0.3-0.5-0.5-0.9-0.5-0.9l0,0c0,0-0.4,0.2-0.9,0.6
			c-0.6,0.5-1.3,1.2-1.5,2.1v0.1c-0.2,1,0.3,1.5,0.7,2.1c0.1,0.2,0.2,0.4,0.2,0.6c-0.1,0.1-0.2,0.6-0.3,0.8
			c-0.4,0.2-1.4,0.8-1.9,1.1l-2.3,0.8c0-0.1,0.1-0.3,0.1-0.5c0.1-0.2,0.3-0.3,0.5-0.4c0.6-0.4,1.3-0.6,1.5-1.6v-0.1
			c0.2-0.9,0-1.7-0.3-2.3c-0.2-0.5-0.5-0.8-0.5-0.8s-0.4,0.2-0.9,0.6c-0.6,0.4-1.2,1.1-1.5,2v0.1c-0.2,1,0.3,1.4,0.6,1.9
			c0.1,0.2,0.2,0.3,0.2,0.6l-0.1,0.3c0,0.2-0.2,0.3-0.4,0.4L1037,80c-0.1,0.1-0.3,0.1-0.4,0h-0.1c-0.1,0-0.2-0.1-0.2-0.2
			c0,0-0.4-6.5-0.4-8.3c0-0.2,0.1-0.4,0.3-0.6l1.2-1l0.6,0.1c0.2,0.2,0.3,0.3,0.4,0.5c0.3,0.6,0.4,1.2,1.2,1.6h0.1
			c0.7,0.3,1.6,0.2,2.1,0c0.5-0.1,0.8-0.3,0.8-0.3s-0.1-0.4-0.4-0.8c-0.3-0.6-0.9-1.2-1.6-1.6h-0.1c-0.2-0.1-0.4-0.1-0.6-0.1
			c-0.5,0-0.8,0.2-1.2,0.4c-0.2,0.1-0.4,0.1-0.6,0.1l-0.4-0.2l1.2-0.8l0.8-0.7l1.3-1.4c0.2,0,0.8,0.1,0.8,0.1l0,0
			c0.2,0.1,0.3,0.3,0.5,0.4c0.4,0.5,0.7,1.1,1.6,1.3h0.1c0.8,0.1,1.6-0.2,2.2-0.5c0.5-0.3,0.7-0.5,0.7-0.5s-0.2-0.4-0.6-0.8
			c-0.5-0.5-1.1-1.1-2-1.2h-0.1c-0.1,0-0.2,0-0.3,0c-0.7,0-1.1,0.4-1.5,0.7c-0.2,0.1-0.3,0.2-0.5,0.2l-0.5-0.1l2.1-1.8
			c0.1-0.1,0.1-0.1,0.2-0.1l1.3-0.4l0,0c0.2,0.1,0.4,0.1,0.5,0.3c0.5,0.4,1,0.8,1.9,0.8h0.1c0.8-0.1,1.5-0.6,1.9-1.1
			c0.4-0.4,0.5-0.7,0.5-0.7l0,0c0,0-0.3-0.3-0.8-0.5c-0.5-0.3-1.2-0.6-1.9-0.6c-0.1,0-0.2,0-0.3,0h-0.1c-0.9,0.2-1.1,0.7-1.5,1.2
			c-0.1,0.1-0.2,0.3-0.4,0.4c-0.2,0-0.9,0-1,0l1-1.2l0,0c0.1-0.1,0.3-0.1,0.5-0.2c0.6-0.2,1.3-0.2,1.8-1c0,0,0-0.1,0.1-0.1
			c0.4-0.7,0.4-1.5,0.3-2.2c-0.1-0.5-0.2-0.9-0.2-0.9l0,0c0,0-0.4,0.1-0.9,0.3c-0.6,0.2-1.4,0.7-1.9,1.4c0,0,0,0.1-0.1,0.1
			c-0.5,0.8-0.1,1.3,0,1.9c0,0.2,0.1,0.4,0,0.6l-1.2,1.3h-0.1l-0.3-1.5c0.1-0.2,0.2-0.4,0.3-0.6c0.4-0.5,0.9-0.9,0.9-1.8v-0.1
			c0-0.8-0.5-1.5-1-2c-0.4-0.4-0.7-0.6-0.7-0.6l0,0c0,0-0.3,0.3-0.6,0.8c-0.4,0.6-0.8,1.4-0.7,2.2v0.1c0.1,0.9,0.7,1.2,1.1,1.6
			c0.1,0.1,0.2,0.2,0.3,0.4c0,0.3,0.1,1.2,0.1,1.8c0,0.2-0.1,0.4-0.2,0.6l-1.2,1c-0.1-0.1-0.2-0.4-0.3-0.4c0-0.2,0-0.4,0.1-0.6
			c0.2-0.5,0.5-1,0.2-1.8c0,0,0,0,0-0.1c-0.3-0.6-1-1-1.5-1.2c-0.4-0.2-0.8-0.2-0.8-0.2s-0.2,0.3-0.3,0.8c-0.1,0.6-0.2,1.3,0.1,2
			v0.1c0.4,0.7,1,0.7,1.5,0.9c0.2,0.1,0.3,0.1,0.5,0.2l0,0l0.2,0.5l-0.7,0.7l-1.3,1.4l-0.2-0.4l0,0c0-0.2,0-0.4,0.1-0.5
			c0.2-0.5,0.5-1,0.1-1.7c0,0,0,0,0-0.1c-0.3-0.6-0.9-1-1.4-1.2c-0.4-0.2-0.8-0.2-0.8-0.2l0,0c0,0-0.1,0.3-0.2,0.8
			c-0.1,0.6-0.2,1.3,0.1,1.9v0.1c0.4,0.7,0.9,0.7,1.4,0.8c0.2,0,0.3,0.1,0.5,0.2c0,0.1,0.1,0.4,0.2,0.5l-0.8,0.5l-1.8,0.9
			c0-1-0.2-4.1-0.6-6.4c0-0.3,0.1-0.6,0.3-0.8l0.3-0.3c0.2-0.1,0.4-0.1,0.6-0.1c0.1,0,0.2,0,0.4,0c0.5,0,1.1,0,1.6-0.5
			c0,0,0,0,0.1-0.1c0.6-0.6,0.8-1.4,0.9-2c0.1-0.5,0-0.9,0-0.9s-0.1,0-0.2,0c-0.2,0-0.4,0-0.7,0c-0.7,0.1-1.5,0.3-2.1,0.9
			c0,0-0.1,0-0.1,0.1c-0.6,0.7-0.5,1.3-0.5,1.9c0,0.2,0,0.4-0.1,0.6l-0.4,0.3h-0.1c-0.1-0.8-0.3-1.4-0.4-1.7
			c0.1-0.2,0.2-0.4,0.4-0.6c0.4-0.5,1-0.9,1-1.8v-0.1c0-0.8-0.5-1.5-0.9-2c-0.3-0.4-0.7-0.6-0.7-0.6l0,0c0,0-0.3,0.3-0.6,0.7
			c-0.4,0.5-0.8,1.3-0.8,2.2v0.1c0.1,0.9,0.6,1.2,1.1,1.6c0.1,0.1,0.3,0.3,0.3,0.4c0,0.6,0.1,2,0,2.6c0,0.1-0.1,0.1-0.2,0l-0.9-0.9
			c-0.1-0.2-0.1-0.4-0.1-0.7c0-0.6,0.1-1.3-0.5-2c0,0,0,0-0.1-0.1c-0.6-0.6-1.4-0.8-2-0.9c-0.2,0-0.4,0-0.6,0s-0.3,0-0.3,0
			s0,0.4,0,1c0.1,0.7,0.3,1.5,0.9,2.1c0,0,0,0,0.1,0.1c0.5,0.5,1,0.5,1.5,0.5c0.1,0,0.2,0,0.3,0c0.2,0,0.4,0,0.5,0.1l1,1.4
			c0.1,0.2,0.2,0.4,0.2,0.7c0,1-0.1,3.8-0.1,4c0,0.1,0,0.4-0.1,0.7l-1.4-0.9v-0.7c0.1-0.2,0.2-0.4,0.3-0.5c0.4-0.5,1-0.9,1-1.8v-0.1
			c0-0.8-0.5-1.5-0.9-2c-0.3-0.4-0.7-0.6-0.7-0.6s-0.3,0.3-0.6,0.7c-0.4,0.5-0.8,1.3-0.8,2.2v0.1c0.1,0.9,0.6,1.2,1.1,1.6
			c0.1,0.1,0.2,0.3,0.3,0.4V68l-3.3-1.9c0-0.2,0-0.6,0-0.8c0.1-0.2,0.2-0.4,0.3-0.5c0.4-0.5,1-0.9,1-1.8v-0.1c0-0.8-0.5-1.5-0.9-2
			c-0.3-0.4-0.7-0.6-0.7-0.6l0,0c0,0-0.3,0.3-0.6,0.7c-0.4,0.5-0.8,1.3-0.8,2.2v0.1c0.1,0.9,0.6,1.2,1.1,1.6
			c0.1,0.1,0.3,0.3,0.3,0.4v0.6L1026,64l-0.1-0.7c0.1-0.2,0.2-0.4,0.3-0.6c0.4-0.5,1-0.9,1-1.8v-0.1c0-0.8-0.5-1.5-0.9-2
			c-0.3-0.4-0.7-0.6-0.7-0.6l0,0c0,0-0.3,0.3-0.6,0.7c-0.4,0.5-0.8,1.3-0.8,2.2v0.1c0.1,0.9,0.6,1.2,1.1,1.6
			c0.1,0.1,0.3,0.3,0.4,0.5v0.5l-1.8-1l-0.2-0.1c-0.1-0.2-0.1-0.4-0.1-0.6c0-0.6,0.1-1.3-0.5-2c0,0,0,0-0.1-0.1
			c-0.6-0.6-1.4-0.8-2-0.9c-0.2,0-0.4,0-0.6,0s-0.3,0-0.3,0s0,0.4,0,1c0.1,0.7,0.3,1.5,0.9,2.1c0,0,0,0,0.1,0.1
			c0.5,0.5,1,0.5,1.5,0.5c0.1,0,0.2,0,0.3,0c0.2,0,0.3,0,0.5,0.1l0,0l0.4,0.5l-0.3,0.3c-0.2,0.1-0.5,0.1-0.7,0.1c-0.1,0-0.2,0-0.4,0
			c-0.5,0-1.1,0-1.6,0.5c0,0,0,0-0.1,0.1c-0.6,0.6-0.8,1.4-0.9,2c-0.1,0.5,0,0.9,0,0.9s0.4,0,1,0c0.7-0.1,1.5-0.3,2.2-0.8
			c0,0,0.1,0,0.1-0.1c0.7-0.7,0.5-1.2,0.5-1.8c0-0.2,0-0.4,0.1-0.6c0.1-0.1,0.2-0.2,0.3-0.2l2.7,1.9l-0.2,0.5
			c-0.2,0.2-0.3,0.3-0.5,0.4c-0.6,0.3-1.2,0.4-1.6,1.3V68c-0.3,0.8-0.2,1.6,0,2.2c0.2,0.5,0.4,0.8,0.4,0.8l0,0c0,0,0.4-0.1,0.9-0.4
			c0.6-0.3,1.3-0.9,1.6-1.7v-0.1c0.3-0.9-0.1-1.3-0.3-1.9c-0.1-0.2-0.1-0.4-0.1-0.6c0.1-0.1,0.1-0.3,0.2-0.4l2,1l0.8,0.6v0.6
			c-0.1,0.2-0.3,0.4-0.4,0.5c-0.5,0.4-1.1,0.7-1.2,1.7v0.1c-0.1,0.8,0.3,1.6,0.6,2.1c0.3,0.4,0.6,0.7,0.6,0.7s0.3-0.3,0.7-0.7
			c0.5-0.5,1-1.2,1.1-2v-0.1c0.1-0.9-0.5-1.3-0.9-1.7c-0.1-0.2-0.2-0.4-0.3-0.6l0.1-0.3l1.4,0.7l1.2,0.9V70l0,0
			c-0.1,0.2-0.2,0.4-0.3,0.5c-0.4,0.5-1,0.8-1,1.7v0.1c0,0.8,0.4,1.5,0.8,2c0.3,0.4,0.6,0.6,0.6,0.6l0,0c0,0,0.3-0.3,0.7-0.7
			c0.4-0.5,0.9-1.3,0.9-2.1V72c0-0.9-0.6-1.2-1-1.6c-0.1-0.1-0.2-0.2-0.3-0.4l0,0c0,0,0-0.3,0-0.4l1.1,0.8c0.1,0.1,0.2,0.3,0.2,0.5
			c0,1.3,0,9.7-0.1,9.8l0,0c0,0-3.1-1.9-3.6-2.1V78c0.1-0.2,0.2-0.3,0.4-0.5c0.4-0.4,1-0.7,1.1-1.5v-0.1c0.1-0.7-0.3-1.4-0.6-1.8
			c-0.3-0.4-0.6-0.6-0.6-0.6l0,0c0,0-0.3,0.2-0.6,0.6c-0.4,0.4-0.9,1.1-0.9,1.8V76c0,0.8,0.5,1.1,0.8,1.5c0.1,0.1,0.2,0.3,0.3,0.5
			l0,0l-0.1,0.4c-0.8-0.3-1.5-0.7-1.5-0.7l-2-1.2v-0.6c0.1-0.2,0.2-0.4,0.4-0.5c0.4-0.4,1-0.7,1.1-1.5v-0.1c0.1-0.8-0.3-1.4-0.7-1.9
			c-0.3-0.4-0.6-0.6-0.6-0.6l0,0c0,0-0.3,0.2-0.7,0.6c-0.4,0.5-0.9,1.1-0.9,1.9v0.1c0,0.8,0.5,1.1,0.8,1.6c0.1,0.1,0.2,0.3,0.3,0.5
			l-0.1,0.4l-2.6-1.8l-0.3-1.3c0.1-0.2,0.1-0.3,0.2-0.4c0.3-0.4,0.8-0.8,0.7-1.5c0,0,0,0,0-0.1c-0.1-0.7-0.6-1.1-1.1-1.5
			c-0.4-0.3-0.7-0.4-0.7-0.4s-0.2,0.3-0.5,0.7c-0.3,0.5-0.6,1.2-0.5,1.8V72c0.2,0.7,0.7,0.9,1.2,1.1c0.1,0.1,0.3,0.2,0.4,0.3
			l0.1,0.8l-1.3-0.5c-0.1-0.1-0.1-0.3-0.1-0.4c-0.1-0.5-0.1-1.1-0.7-1.5c0,0,0,0-0.1,0c-0.3-0.2-0.7-0.3-1.1-0.3
			c-0.2,0-0.5,0-0.7,0.1c-0.4,0.1-0.8,0.2-0.8,0.2s0,0.4,0.2,0.8c0.2,0.5,0.5,1.2,1,1.6c0,0,0,0,0.1,0c0.6,0.4,1.1,0.1,1.6-0.1
			c0.1,0,0.3-0.1,0.4-0.1l0,0l1.4,0.9c-0.1,0.1-0.2,0.2-0.4,0.2c-0.2,0-0.3,0-0.5-0.1c-0.3-0.1-0.7-0.3-1.1-0.3
			c-0.2,0-0.4,0-0.6,0.2c0,0,0,0-0.1,0c-0.6,0.3-0.9,1-1,1.5c-0.1,0.4-0.2,0.8-0.2,0.8s0.3,0.1,0.8,0.2c0.6,0.1,1.3,0.2,1.9-0.2
			c0,0,0,0,0.1,0c0.6-0.4,0.6-1,0.7-1.5c0-0.2,0.1-0.3,0.2-0.5c0.2-0.1,0.4-0.2,0.5-0.2l2.2,1.7l-0.4,0.4c-0.2,0-0.4,0-0.5,0
			c-0.5-0.1-1.1-0.3-1.7,0.2c0,0,0,0-0.1,0c-0.5,0.4-0.7,1.1-0.8,1.6c-0.1,0.4,0,0.8,0,0.8l0,0c0,0,0.4,0.1,0.8,0.1
			c0.6,0,1.3-0.1,1.8-0.5c0,0,0,0,0.1-0.1c0.6-0.5,0.4-1,0.4-1.6c0-0.2,0-0.3,0.1-0.5l0.5-0.4l1.9,1.5l-0.3,0.5l0,0
			c-0.2,0.1-0.4,0.2-0.6,0.2c-0.6,0.1-1.3,0.1-1.9,0.8c0,0,0,0-0.1,0.1c-0.5,0.7-0.6,1.5-0.5,2.1c0,0.5,0.1,0.9,0.1,0.9
			s0.4,0,0.9-0.2c0.6-0.2,1.5-0.5,1.9-1.2c0,0,0-0.1,0.1-0.1c0.5-0.8,0.2-1.3,0.1-1.9c0-0.2,0-0.4,0-0.6l0,0c0,0,0.3-0.4,0.4-0.5
			l2.5,1.7l-0.1,0.5c-0.2,0.1-0.3,0.1-0.5,0.1c-0.5,0.1-1.1,0-1.6,0.6c0,0,0,0,0,0.1c-0.4,0.5-0.4,1.3-0.3,1.8
			c0.1,0.4,0.2,0.8,0.2,0.8l0,0c0,0,0.4,0,0.8-0.1c0.5-0.1,1.2-0.4,1.6-0.9c0,0,0,0,0-0.1c0.4-0.6,0.1-1.1,0-1.6
			c0-0.2-0.1-0.3,0-0.5l0.3-0.3l1.9,2.1c0,0,1.5,2.3,1.4,2.9c0,0.1,0,0.1,0,0.2c0,3.8,0,11.1-0.1,11.1c0,0.1,0,0.1-0.1,0.2
			c-0.7,0.2-1.3,0.5-1.9,0.5c-0.2,0-0.4,0-0.6,0l0,0c-0.1-0.1-0.3-0.3-0.4-0.4c-0.1,0.1-0.2,0.2-0.4,0.4c-0.5,0-0.9-0.1-1.4,0
			c-0.9,0-1.8,0.3-2.7,0.3c-0.9,0.1-1.8,0.3-2.7,0.4c-0.9,0.1-1.9,0.2-2.7,0.3c-1,0.1-2-0.4-2.8-0.2c-0.3,0.1-0.6,0.2-0.9,0.5V45.2
			C1021.6,49.7,1026.7,52.1,1032,52.1z M1020.2,43.2v0.2c-0.6,0.1-1.1,0.1-1.7,0.2c-0.1-0.1-0.2-0.2-0.3-0.4
			C1018.8,43.3,1019.5,43.3,1020.2,43.2z M985,46c0.1,0.1,0.2,0.1,0.3,0.2c3.5,2.2,9.3,5.8,14.8,5.8c5.4,0,10.5-2.4,14.8-6.8v53.3
			c-0.3-0.2-0.6-0.4-1-0.5c-0.8-0.2-1.9,0.4-2.8,0.2c-0.9-0.1-1.8-0.2-2.7-0.3c-0.5,0-1-0.1-1.5-0.2c-0.1-0.1-0.1-0.2-0.1-0.4
			c-0.2-1.4-0.3-5.2-0.3-7.1c0-0.2,0-0.4,0-0.7v-0.1l0,0c0-2-0.3-4,0.3-5.4c0-0.1,0.2-0.4,0.4-0.9c0.1-0.2,0.2-0.3,0.2-0.4
			c0.1,0.3,0,0.9,0,0.9s0.4-0.9,0.5-1.5c0.2,0.5,0.2,1,0.2,1c1.5-1.7,2.1-3.7,1.5-6c0.2,0.1,0.4,0.8,0.4,0.8s0.1-1,0-1.5
			c0,0,0.3,0.2,0.4,0.6c0,0,0.1-1.8-0.8-4.1c-0.8-2.3-3.3-8.3-1.2-9.1c0.5-0.2,1.4-0.1,1.8-0.1c0.3,0.1,0.9-0.3,1.1-0.6
			c0-0.1,0-0.1,0.1-0.2l0,0c0-0.1,0-0.1,0.1-0.2c0-0.1,0-0.1,0-0.2l0,0l0,0l0,0l0,0c0-0.1,0-0.2-0.2-0.3c0,0,0.1-0.6-0.4-0.7
			c-0.5-0.1-1.5-0.5-1.8-0.8c-0.3-0.2-1.1-0.8-2.1-0.8c0.2-0.9-0.1-2-0.1-2s-0.2,0.3-0.3,0.5c-0.1,0.1-0.1,0.2-0.1,0.2l0,0l0,0
			c-0.4-0.7-0.5-0.6-0.5-0.6c0.2,0.6-1,2.7-1,2.7s-0.1,0.3-0.2,0.5c0,0.1-0.1,0.1-0.1,0.1c-0.6,1.4,1.3,9.5,1.2,10.1
			c-0.1,1-1.2,3.4-3.3,3.5s-4.2,0-6.6-0.1c-1.6,0-7-0.3-7.6-0.4c-1.8,0-2.8,0.1-3.5,0.8c-0.1,0.1-0.4,0.1-0.6,0.2
			c-1,0.4-3,2.1-0.9,4c0,0,0.6-0.5,0.6-0.3c-1.1,4.4,1.1,6.1,1.3,7.1c0,0.1,0,0.1,0,0.1c0,0.4-1.8,2.4-2,3c0,0.5,0.5,2,0.9,3
			c0.1,0.3,0.2,0.6,0.3,0.8c0.1,0.4,0.5,2.5,0.8,3.4c0.5,0.7,0.8,1,1,1.1c-0.9,0-1.7-0.4-2.5-0.3c-1,0.1-1.8,0.8-2.6,0.9
			c-1,0.2-1.9,0.2-2.7,0.4c-0.1,0-0.1,0-0.2,0c2.1-5.4,2.1-12.3-0.1-19.7c-1.9-6.3-5.2-12.2-8.6-15.6C976.4,59.7,982.3,52.8,985,46z
			 M1006.2,97.6c-0.1,0-0.3,0-0.4,0c-0.9-0.1-1.8-0.3-2.7-0.3c-0.1,0-0.1,0-0.2,0c0-0.1,0-0.2,0-0.3c0-0.8,0.1-3,0.3-5.4
			c0.2-2.5,0.6-4.8,0.9-6.3l0,0c0.1-0.6,0.5-0.7,0.8-0.8c0.1,0.4,0.3,0.8,0.4,1.5l0.4,3.8c0,0.1,0.4,4.6,0.4,4.8c0,0.1,0,0.4,0,0.9
			c0,0.2,0,0.4,0,0.6C1006,96.6,1006.1,97.2,1006.2,97.6z M1006.1,78.8L1006.1,78.8L1006.1,78.8L1006.1,78.8z M1005.4,61l-0.1,0.1
			C1005.3,61.1,1005.4,61.1,1005.4,61L1005.4,61z M1000.7,97.4c-0.1,0-0.3,0-0.4,0c-0.9,0-1.8-0.6-2.7-0.6s-1.8,0.8-2.7,0.8
			c-0.6,0-1.2-0.3-1.7-0.5c-0.6-1.4-1.5-3.8-1.7-4.2c0-0.1,0-0.1,0-0.2c-0.1-1.6-0.4-3.8,0-5c0.3-1.1,0.9-2.5,0.8-4.4l0,0
			c1-0.1,2.1,0,3.1,0.3s1.8,0.9,2.9,1.1c1,0.2,2.2,0.2,3.2-0.3c0.1,2.7,0.4,5.4,0.4,6.8c0,1.4,0.3,3.3,0.3,4.5c0,0.3,0,0.5,0,0.7
			c0,0.3,0.2,0.5,0.3,0.7c-0.3,0-0.5,0-0.8,0c-0.1-0.1-0.2-0.2-0.4-0.4C1001,97.1,1000.8,97.2,1000.7,97.4L1000.7,97.4z M992.1,96.9
			C992.1,96.9,992,96.9,992.1,96.9c-1,0-1.9,0.1-2.8,0.2c-0.9,0.1-1.8,1-2.6,1.1l-0.1-0.1c-0.1,0-0.1-0.1-0.1-0.1
			c-0.2-0.5-0.6-2.7-0.7-3c0,0-0.7-3.6-0.6-4.4c0-0.1,0-0.2,0.1-0.3c0.4-0.9,1.5-1.6,2.3-2.7c2.2,3.4,2.5,5.2,2.5,5.2s1,1.9,1.1,2.1
			C991.3,95.3,991.8,96.2,992.1,96.9z M949.6,38.8c0-0.1,0-0.2,0-0.3c0-0.6,0-1.2,0.1-1.8c0-0.2,0-0.3,0-0.5c0-0.5,0-1.1,0.1-1.6
			c0-0.2,0-0.3,0-0.5c0-0.5,0-1,0.1-1.5c0-0.2,0-0.3,0-0.5c0-0.5,0-0.9,0.1-1.4c0-0.2,0-0.4,0-0.6c0-0.4,0-0.7,0-1s0-0.6,0-0.9
			s0-0.5,0-0.7c0-0.3,0-0.7,0-1c0-0.1,0-0.2,0-0.4c0.2-4,0.3-7.3,0.4-9.3l0,0l0,0l0,0l0,0l0,0l0,0c0.2-0.1,0.3-0.2,0.5-0.2v-0.1
			l31,30.9c-2.8,5.5-7.7,10.9-13.3,14.6c-4.1-4.3-8.1-8.8-11.8-13.5l-1.2-6.3c0,0-0.1,0-0.1-0.1c0,0,0.1,0,0.1,0.1l-4.7-25.6
			c-0.2,0.1-0.3,0.2-0.5,0.2l4.6,25.1l0,0l0,0c-1.4-0.6-3-1-4.5-1c-0.3,0-0.7,0-1,0C949.6,40.2,949.6,39.5,949.6,38.8L949.6,38.8z
			 M950.1,97.1c0-0.1,0-0.2,0-0.2c0-0.2-0.1-0.5-0.1-0.8c0-0.1,0-0.3,0-0.4c0-0.2,0-0.4-0.1-0.7c0-0.2,0-0.3,0-0.5s0-0.4-0.1-0.6
			c0-0.2,0-0.3,0-0.5s0-0.4-0.1-0.6c0-0.2,0-0.4,0-0.6s0-0.4,0-0.6s0-0.4,0-0.6s0-0.4,0-0.7c0-0.2,0-0.4,0-0.6s0-0.5,0-0.7
			s0-0.4,0-0.7c0-0.2,0-0.5,0-0.7s0-0.5,0-0.7s0-0.5,0-0.7s0-0.5,0-0.7c0-0.5,0-1,0-1.4c0-0.2,0-0.5,0-0.7c0-0.3,0-0.5,0-0.8
			s0-0.5,0-0.8s0-0.5,0-0.8s0-0.6,0-0.8c0-0.3,0-0.5,0-0.8s0-0.6,0-0.8c0-0.3,0-0.5,0-0.8c0-0.9,0-1.8,0-2.7c0-0.1,0-0.3,0-0.4
			c0-1,0-2,0-3.1c0-0.1,0-0.1,0-0.2c0.6-0.3,1.2-0.5,1.8-0.6c1-0.3,1.9-0.4,2.9-0.4c1.7,0,3.4,0.4,4.9,1.1c0.7,0.3,1.4,0.7,2,1.2
			l0,0l0,0l4.3,23.6c-1.2-1.7-3.5-4.9-5.8-6.7c-1.7-1.1-3.2-1.3-4.6-0.7c-2.9,1.4-4.1,6.5-4.5,9.2C950.1,97.7,950.1,97.4,950.1,97.1
			z M963.7,120.5l-9.7,5.2l-0.2,0.1l0.2-0.1c-0.5-3.6-0.9-7.3-1.2-10.9c0-0.1,0-0.2,0-0.3l-0.2,0.1l0.2-0.1
			c-0.3-3.3-0.6-6.5-0.8-9.8c2.7,5,7.5,10.3,12.8,15.2L963.7,120.5z M967.4,118.5l-2.2,1.2c-8.5-7.9-13.6-14.7-14.8-19.9
			c0-0.5,0.9-8.7,4.4-10.4c1.2-0.6,2.5-0.4,4,0.6c3,2.4,6.3,7.7,6.4,7.7c0.1,0.1,0.2,0.2,0.3,0.1c0.1,0,0.2-0.2,0.2-0.3l-0.6-3.3
			c0.8,0.7,1.7,1.4,2.6,2.1c2.3,1.8,4.7,3.6,7.1,5.3c-1.7,3.6-4.1,9.3-5.6,16L967.4,118.5z M976.8,180.7l-0.2,0.5L976.8,180.7
			c-0.3,0-0.6,0-0.9,0c-1.7,0-3.3-0.1-4.9-0.3l4.8-9.7c-0.7-0.2-1.4-0.4-2.2-0.6c0.7,0.2,1.4,0.5,2.2,0.6l0.1-0.1l-0.1,0.1
			c0.9,0.2,1.7,0.4,2.6,0.6c0.6,0.1,1.3,0.2,1.9,0.3v-0.1v0.1c3.4,0.5,6.8,0.6,10.1,0.2c-3.4,0.3-6.7,0.1-10-0.4l0,0
			c-2.2-0.4-4.3-0.9-6.4-1.6l0,0l4.9-8.3c-0.1,0-0.2-0.1-0.3-0.1c0.1,0,0.2,0.1,0.3,0.1l0.1-0.1l-1.8-0.9v-0.1v0.1l1.8,0.9l-0.1,0.1
			c1.5,0.6,3.1,1.2,4.7,1.6l0,0c1.5,0.4,3,0.7,4.6,1c3.7,0.5,7.4,0.5,11-0.1c-5.2,0.7-10.5,0.3-15.5-1.2l-0.1,0.2l0.1-0.2
			c-2-0.6-4-1.3-5.9-2.3c-0.2-0.1-0.3-0.2-0.5-0.3l0,0c-1.2-0.6-2.4-1.3-3.6-2.1c1.2,0.7,2.4,1.4,3.6,2.1l3.3-8.1
			c4.4,2.3,9.9,3.7,16.6,4c6.4,0.3,10.9,2.4,13.6,4.1c0.2,0.1,0.4,0.3,0.6,0.4C1003.5,172.7,990.7,180.3,976.8,180.7z M1056.1,180.7
			c-0.3,0-0.6,0-0.9,0l0.2,0.5l-0.2-0.5c-13.9-0.3-26.7-7.9-34.5-20.1c0.2-0.1,0.4-0.3,0.6-0.4c2.7-1.7,7.3-3.8,13.6-4.1
			c6.6-0.3,12.2-1.7,16.6-4l3.3,8.1c1.2-0.6,2.4-1.3,3.6-2.1c-1.2,0.7-2.4,1.4-3.6,2.1l0,0c-0.2,0.1-0.3,0.2-0.5,0.3
			c-1.9,0.9-3.9,1.7-5.9,2.3l0.1,0.2l-0.1-0.2c-5,1.4-10.3,1.8-15.5,1.2c3.6,0.6,7.4,0.6,11,0.1c1.5-0.2,3.1-0.5,4.6-1l0,0
			c1.6-0.4,3.2-1,4.7-1.6l-0.1-0.1l1.8-0.9v-0.1v0.1l-1.8,0.9l0.1,0.1c0.1,0,0.2-0.1,0.3-0.1c-0.1,0-0.2,0.1-0.3,0.1l4.9,8.3l0,0
			c-2.1,0.7-4.3,1.2-6.4,1.6l0,0c-3.3,0.6-6.7,0.7-10,0.4c3.4,0.4,6.8,0.3,10.1-0.2v-0.1v0.1c0.6-0.1,1.3-0.2,1.9-0.3
			c0.9-0.2,1.8-0.4,2.6-0.6l-0.1-0.1l0.1,0.1c0.7-0.2,1.4-0.4,2.2-0.6c-0.7,0.2-1.4,0.5-2.2,0.6l4.8,9.7
			C1059.4,180.6,1057.8,180.7,1056.1,180.7z M1058.8,142.3c-4.1,7.1-12.2,11-24,11.6c-6.9,0.3-11.8,2.6-14.8,4.5
			c-1.9,1.2-3.2,2.3-4,3.1c-0.8-0.8-2.1-1.9-4-3.1c-2.9-1.9-7.9-4.2-14.8-4.5c-11.8-0.6-19.9-4.5-24-11.6c-6-10.4-2.5-26.3,2.8-38.1
			h40h40C1061.3,116,1064.8,132,1058.8,142.3z M1079.2,114.5l0.2,0.1L1079.2,114.5c0,0.1,0,0.2,0,0.3c-0.4,3.6-0.8,7.3-1.2,10.9
			l0.2,0.1l-0.2-0.1l-9.7-5.2l-1.1-0.6c5.3-4.9,10.1-10.2,12.8-15.2C1079.8,108,1079.5,111.3,1079.2,114.5z M1066.7,119.6l-2.2-1.2
			l-1.8-0.9c-1.5-6.7-3.9-12.4-5.6-16c2.4-1.7,4.8-3.5,7.1-5.3c0.9-0.7,1.7-1.4,2.6-2.1l-0.6,3.3c0,0.1,0,0.3,0.2,0.3
			c0.1,0,0.3,0,0.3-0.1s3.4-5.3,6.4-7.7c1.5-1,2.8-1.2,4-0.6c3.5,1.7,4.4,9.9,4.4,10.4C1080.3,104.9,1075.2,111.7,1066.7,119.6z
			 M1083,74.6c0,0.1,0,0.3,0,0.4c0,0.9,0,1.8,0,2.7c0,0.3,0,0.5,0,0.8s0,0.6,0,0.8c0,0.3,0,0.5,0,0.8s0,0.6,0,0.8c0,0.3,0,0.5,0,0.8
			s0,0.5,0,0.8s0,0.5,0,0.8c0,0.2,0,0.5,0,0.7c0,0.5,0,1,0,1.4c0,0.2,0,0.5,0,0.7s0,0.5,0,0.7s0,0.5,0,0.7s0,0.5,0,0.7s0,0.5,0,0.7
			s0,0.5,0,0.7s0,0.4,0,0.6s0,0.4,0,0.7c0,0.2,0,0.4,0,0.6s0,0.4,0,0.6s0,0.4,0,0.6s0,0.4-0.1,0.6c0,0.2,0,0.3,0,0.5s0,0.4-0.1,0.6
			c0,0.2,0,0.3,0,0.5s0,0.4-0.1,0.7c0,0.1,0,0.3,0,0.4c0,0.3-0.1,0.5-0.1,0.8c0,0.1,0,0.2,0,0.2c0,0.3-0.1,0.6-0.1,0.9
			c-0.4-2.7-1.6-7.8-4.5-9.2c-1.3-0.7-2.9-0.4-4.6,0.7c-2.2,1.8-4.6,5-5.8,6.7l4.3-23.6l0,0l0,0c0.6-0.5,1.3-0.9,2-1.2
			c1.5-0.7,3.2-1.1,4.9-1.1c1,0,2,0.2,2.9,0.4c0.6,0.2,1.2,0.4,1.8,0.6c0,0.1,0,0.1,0,0.2C1083,72.5,1083,73.6,1083,74.6z
			 M1102.5,30L1102.5,30L1102.5,30L1102.5,30L1102.5,30z M1102.7,37.5c-0.1-3.2-0.1-5.7-0.2-7.3l0,0
			C1102.6,31.8,1102.6,34.2,1102.7,37.5z"/>
	</g>
	<path class="st0" d="M989.6,129.5c1.9,0,3.5-1.6,3.5-3.5s-1.6-3.5-3.4-3.5c-2,0-3.5,1.5-3.5,3.5C986.1,128,987.6,129.5,989.6,129.5
		z"/>
	<path class="st0" d="M997.7,130.3c0-2.2-2-3.8-4.1-3.3c-0.2,0-0.3,0.1-0.4,0.3c-0.3,0.9-0.9,1.6-1.7,2.1c-0.4,0.2-0.5,0.5-0.5,0.9
		c0,0.1,0,0.3,0,0.4c0.2,1.8,1.8,3.1,3.5,3C996.4,133.6,997.7,132.1,997.7,130.3z"/>
	<path class="st0" d="M984.6,127.1c0.3,0,0.6-0.1,0.9-0.1c0.3,0,0.3-0.1,0.3-0.4c-0.2-1.7,0.5-3,1.9-3.9c0.2-0.1,0.2-0.2,0.1-0.4
		c-0.6-1.3-1.6-2.1-3-2.2c-1.9-0.2-3.6,1.4-3.7,3.3C981.1,125.4,982.6,127.1,984.6,127.1z"/>
	<path class="st0" d="M1007.9,136.6c0-1.8-1.4-3.2-3.1-3.2c-1.7,0-3.1,1.4-3.1,3.2c0,1.7,1.4,3.1,3.2,3.1
		C1006.6,139.7,1008,138.3,1007.9,136.6z"/>
	<path class="st0" d="M1014.1,138.6c0-2.3-2.3-3.8-4.4-2.9c-0.8,0.3-1.4,0.8-1.5,1.8c0,0.2-0.2,0.4-0.2,0.6
		c-0.1,0.2-0.1,0.3-0.1,0.5c0,1.7,1.4,3.1,3.1,3.1C1012.7,141.7,1014.1,140.3,1014.1,138.6z"/>
	<path class="st0" d="M999.5,137.3c0.6,0,1.2-0.2,1.6-0.5c0.1-0.1,0.2-0.2,0.2-0.3c0-1.1,0.4-1.9,1.2-2.6c0.1-0.1,0.1-0.2,0.1-0.4
		c-0.2-2.1-2.5-3.4-4.5-2.6c-0.1,0-0.2,0.2-0.2,0.3c-0.3,0.9-0.8,1.7-1.6,2.2c-0.1,0.1-0.2,0.2-0.2,0.3
		C996.1,135.7,997.6,137.3,999.5,137.3z"/>
	<path class="st0" d="M1022.1,144.4c0-1.5-1-2.7-2.4-3.1c-0.2-0.1-0.4,0-0.6,0.2c-0.6,0.6-1.4,0.9-2.2,1c-0.2,0-0.3,0.1-0.4,0.2
		c-0.7,1.1-0.6,2.6,0.2,3.6c0.8,1.1,2.2,1.5,3.5,1C1021.2,146.9,1022.1,145.7,1022.1,144.4z"/>
	<path class="st0" d="M1019.7,138.9c0-1.3-0.8-2.5-2-2.9c-1.2-0.5-2.6-0.1-3.4,0.8c-0.2,0.2-0.2,0.3-0.1,0.6c0.4,1,0.3,2-0.2,2.9
		c-0.1,0.2-0.1,0.4,0,0.6c0.8,1.1,2.2,1.5,3.5,1.1C1018.8,141.5,1019.7,140.3,1019.7,138.9z"/>
	<path class="st0" d="M990.7,130.6c-0.1,0-0.3,0-0.4,0.1c-1.7,0.4-2.8,2-2.6,3.7c0.3,2.3,2.7,3.6,4.8,2.6c0.1-0.1,0.2-0.2,0.2-0.3
		c0.2-0.9,0.7-1.7,1.5-2.2c0.1-0.1,0.2-0.2,0.3-0.4C992.2,133.8,991,132.7,990.7,130.6z"/>
	<path class="st0" d="M1001.4,137.4L1001.4,137.4c-1.9,0-3.3,1.8-3,3.7c0.3,1.6,1.8,2.7,3.5,2.5c1.6-0.2,2.8-1.7,2.7-3.3
		c0-0.1,0-0.2-0.2-0.3C1002.8,139.8,1001.9,138.9,1001.4,137.4z"/>
	<path class="st0" d="M981.3,132.2c0,0.1-0.1,0.1-0.1,0.1c-0.6,1.2-0.6,2.5,0.2,3.6s2,1.6,3.4,1.4c0.9-0.2,1.6-0.7,2.1-1.4
		c0.5-0.6,0.4-1.3,0.3-2.1h-0.1c-1.1,0-2.1-0.5-2.8-1.3l-0.2-0.1C983.1,132.7,982.2,132.6,981.3,132.2z"/>
	<path class="st0" d="M995.8,134.2c-0.1,0-0.3,0-0.4,0.1c-1.6,0.4-2.6,1.7-2.4,3.4c0.1,1.2,0.7,2.1,1.8,2.6s2.1,0.4,3.1-0.3
		c0.1-0.1,0.2-0.2,0.2-0.3c0.2-0.7,0.5-1.2,1-1.7c0.1-0.1,0.1-0.2,0.1-0.3C997.2,137.3,996.1,136.2,995.8,134.2z"/>
	<path class="st0" d="M989.9,137.6c0,0.2,0,0.3-0.1,0.4c-0.1,1.1-0.7,1.9-1.6,2.5c-0.3,0.2-0.3,0.3-0.2,0.6c0.5,1.4,1.9,2.2,3.3,2
		c1.4-0.2,2.5-1.3,2.7-2.7c0-0.1-0.1-0.2-0.1-0.3c-0.7-0.6-1.1-1.3-1.3-2.2c0-0.2,0-0.3-0.1-0.5
		C991.7,137.8,990.8,137.8,989.9,137.6z"/>
	<path class="st0" d="M994.5,140.5c0,0.1,0,0.1,0,0.1c-0.2,1.1-0.7,1.9-1.6,2.5c-0.1,0-0.1,0.2-0.1,0.3c0.4,1.4,1.7,2.4,3.2,2.3
		s2.7-1.3,2.9-2.8c0-0.1,0-0.2-0.1-0.3c-0.3-0.5-0.5-1-0.6-1.6c0-0.2,0-0.4-0.1-0.6C996.8,141,995.6,141,994.5,140.5z"/>
	<path class="st0" d="M1010.6,142.1c-1.8-0.3-2.8-1.4-3.1-3.2c-0.6,0.6-1.2,1-2.1,1.1c-0.4,0.1-0.4,0.1-0.5,0.5
		c0,0.4-0.2,0.8-0.2,1.2c0,0.2-0.1,0.4-0.1,0.6c0.2,1.2,1.1,2.2,2.4,2.5c1.2,0.3,2.5-0.2,3.2-1.2c0-0.1,0.1-0.2,0.1-0.2
		C1010.4,143,1010.5,142.5,1010.6,142.1z"/>
	<path class="st0" d="M1013.7,140.8c-0.7,0.7-1.5,1.2-2.4,1.3c-0.1,0-0.2,0.1-0.2,0.2c-0.6,1.2-0.2,2.8,0.9,3.7s2.6,1,3.8,0.2
		c0.2-0.1,0.2-0.2,0.1-0.4c-0.2-0.6-0.4-1.2-0.2-1.8c0.1-0.5,0.3-1.1,0.5-1.6C1015,142.1,1014.5,141.9,1013.7,140.8z"/>
	<path class="st0" d="M1002,147.2c0.8,1.4,2.5,2,4,1.4c1.3-0.5,2.3-2.1,2-3.3c-1.7,0-3.1-0.9-3.6-2.7c-0.3,0.3-0.7,0.6-1,0.9
		c-0.2,0.1-0.2,0.2-0.2,0.4c0,0.4,0.1,0.9,0,1.3C1003,146,1002.6,146.7,1002,147.2z"/>
	<path class="st0" d="M985.9,127.3c-0.2,0-0.4,0.1-0.6,0.1c-0.3,0-0.5,0.2-0.6,0.3c-1.2,1.4-1.1,3.6,0.3,4.8
		c0.7,0.6,1.5,0.8,2.3,0.8c0.5-1.8,1.1-2.4,3.2-3.1c0-0.1,0-0.2,0-0.3C988.3,130.2,986.8,129.3,985.9,127.3z"/>
	<path class="st0" d="M983.3,137.6c0,0.1,0,0.2,0,0.3c0.1,1.6,1.6,2.9,3.3,2.8c1.6-0.1,3-1.5,2.9-3.1c0-0.1-0.1-0.2-0.2-0.3
		c-0.7-0.4-1.3-1-1.7-1.7l-0.1-0.1C986.6,137.2,985.2,137.9,983.3,137.6z"/>
	<path class="st0" d="M983.9,132c-0.9-1.6-0.7-3.1,0.3-4.5c-0.5-0.2-1-0.3-1.4-0.5s-0.8-0.5-1.2-0.8c-1.5,0.6-2.3,2.4-1.6,4
		S982.5,132.6,983.9,132z"/>
	<path class="st0" d="M996.8,145.8c0.7,1.6,2.5,2.3,4.1,1.6c1.4-0.6,2.3-2.4,1.8-3.7c-1.3,0.4-2.5,0.2-3.6-0.7
		C998.8,144.4,998.1,145.3,996.8,145.8z"/>
	<path class="st0" d="M1010.4,144.1c-0.6,0.6-1.2,1-2,1.2c-0.1,0.5-0.1,1-0.2,1.4c-0.1,0.4-0.4,0.9-0.6,1.3c0.6,1,1.9,1.5,3.2,1.3
		c1.2-0.2,2.2-1.2,2.4-2.2C1011.6,146.6,1010.7,145.7,1010.4,144.1z"/>
	<path class="st0" d="M1019.5,140.9c1.4,0.4,1.8,0.7,2.7,2.1c1.2-0.5,2.1-2.3,1.3-4.1c-0.7-1.4-2.5-2.2-3.8-1.6
		C1020.3,138.5,1020.2,139.7,1019.5,140.9z"/>
</g>
</svg>
